<mxfile host="app.diagrams.net" modified="2023-09-13T01:18:05.161Z" agent="Mozilla/5.0 (Windows NT 10.0; Win64; x64; rv:109.0) Gecko/20100101 Firefox/117.0" etag="ZFzX-N0ctAel-LURR-qz" version="21.7.4" type="github">
  <diagram name="Page-1" id="onuihaKf4oDAI4G0PohZ">
    <mxGraphModel dx="3528" dy="2312" grid="1" gridSize="10" guides="1" tooltips="1" connect="1" arrows="1" fold="1" page="1" pageScale="1" pageWidth="827" pageHeight="1169" math="0" shadow="0">
      <root>
        <mxCell id="0" />
        <mxCell id="1" parent="0" />
        <mxCell id="GzFNOe2iVkNS8DiqBkqE-1" value="" style="shape=image;verticalLabelPosition=bottom;labelBackgroundColor=default;verticalAlign=top;aspect=fixed;imageAspect=0;image=data:image/png,iVBORw0KGgoAAAANSUhEUgAAC7wAAASZCAMAAAB1mANLAAAAAXNSR0IArs4c6QAAAARnQU1BAACxjwv8YQUAAAE4UExURa6urn19fXV1dV1dXYWFhWVlZXFxcdra2ubm5uLi4nl5eUxMTGlpaYGBgW1tbVVVVbq6upGRkWFhYVlZWZ2dnVBQUBwcHDg4OBAQEDAwMP///76+viAgICgoKERERAAAAEhISAwMDAgICAQEBEBAQLKyspmZmba2tiQkJDw8PDQ0NKqqqsbGxsLCwo2NjSwsLOrq6vb29tbW1qWlpd7e3omJicrKyqGhoRgYGBQUFJWVle7u7s7Ozvr6+tLS0sLGwvLy8rK6spGqke727sbixoWJhW19bRgcGOLq4nV5dWFxYba+tkBEQMrSyhwgHAQIBOru6rrCuo2hjYGRgVBVUNri2qWqpTxEPEhMSCQoJNLa0rrSuqrGqml1ab7avnF1cZWZlUhVSIWZhZmymZ2hnURMRMLKwtre2nHBlFQAAAAJcEhZcwAADsIAAA7CARUoSoAAAP5hSURBVHhe7P0LY+LKtqAJojSbZGOcW8nDQtriYaw8GB8SI2BjzEl3n+rb1d23umemqqarp3qmH/Oe//8PJl4CAXqEpFAoJNbHOZasTWIQUsSnpRUrajUNkMeXO7YCAB713xqNxtemSH5vNRq/1dnrh3P/ha3Ipi3+I/t5aDS+qXmmPfyBPrjO3mYavqOP1mEvBoTSRbu5x3ZZGmro3/fZawEAAKhGp/Z43wXk0WixFQBgGANNM3uWSHRb0+whe/1wRn+wFdkM8fvT2ZsVz1jTJk/sT6nFZKppI429zTSgj9Z5Zi8GhIJ3k8N2WRocdIE0Zq8FAACgGO1x7bH3A5DH3/QZWwMASv/FsjqC5X1kWfNX9vrh/P3Hgq1J5nWO/GjB3qx4xpa1fGJ/Si2+DSzrIZO8W9bimb0YEAraTfgcSI2DrizH7LUAAADUQtefQd7l0itKlwBlyUPeHU55L+hwJPKeY+RdaXnXMsr7T5D3WLC8Z4m8j0DeAQBQFX3xAyLvkvlbUboEKAuW9/s3x+mvmDlkw+04zusrr7wXczhieX97dUYd9p4FsnQcBxmywvL+2xC9xTV7u0lgHw0i7/EgeZ89jhxnw3ZdEnT07x5nIO8AAKiJrs9A3iUzQ/IO9g6cgeW92/qpv4oJRW8f9cXS4Jb3Qg5HLO/z77qOHEs0znKBX1ZheW91FvokzZ0W9tEg8h4Pjry/6XorzdWh1vmJ/i3IOwAASqLjThvkXTJY3sHeAT80bebTejFHjgCMgfXJmfNeIz8LOBy9tJnnsXCef3xaz4qnzXxa8zSfnH00iLzHg+UdnQN/sT2XjLtPa7QAeQcAQEVw3B3kXTp/I+NVwd6BE0Te3y3L+K4vBDw2j9w57wz5hyOWd5JWzIKdAmEvq7K8P6Qc48A+GkTe48Hyjs6BXqrIO/p+YMAqAABKQuLuIO/SIZF3sHfAB5b3EY747ZA5fGZ+NJ/QS70lkXf5hyPJeR8/j22qSyLpoJd9UlreO/i7RnKYGPbRIPIeD5L32fPzeJxmbHAPfT3PkPMOAICC0Lg7yLt0mLyDvQNHWOT9k7mDCJJF3uUfjl7kPSfUj7yn/rYh8s4F2k1/4mozKXfzJ1SbAQBAQVjcHeRdOp68g70DHjTnnWmDGDhz3k9IPhy9nPecUFzeoc577qDdlKnOO8g7AADq4cXdsbyP3v/u8V7Pm2+/lYUWe8ei+c52PNKlHtsE3DijfcrqI+Ho5k/dNNnrR8CORcTiO9skBRO9P0HFdYIYL/T2E/tTanH3tNA7meR9oX9/Zi8GhDJe/LnMUufdWf7Ux+y1AEAdHliDjVmybWpzDFj++PF3tglIy99PYbZx7XHZ83CGRr6Y09dzXp7YiocqG94+2FsWzNsb2/GIAdsGVISBeeTxjW3jwXlxHFzdQiDbkeOYc/b64dh/sGPxx49eTkd8MHMTfeQte7Pi6TvO3GR/KneGj+xLN8232HN6gr/rGnubaejI/GjlBZfSx9lJacEl9V/Ya3GyH7KjwDRfHtk2ABDMY5fpWq+n7dk2tZmyt4uY562YVefNdzv9LG1mJDb6d83VnHfKbtjmMJIOo5tsXyPGbBtQEXy32XM/leLgy/XVuuz9Inl/ZNvkgN+fyCT/AumN2C6UvhOBSCQfX8bpPlbjjm0DAMH42uy6wbapjUr9YtnRTS9pRrq8X2YhKrshN3n3XzixbUBFKF8jVZy8VwiQdwAD8g5IAOT9ltHNH0d7h8g74WoDRN4VwfVXMKcP9l/UA+T9JgF5BzAg74AEQN5vmZ9+gYTIO+ZqQ37y7rvrwbYB4SwHe1wU28/wY8P+o2rcgrxvJ2QWVw76K/ZPFIb/04RQRy8C8g5gQN4BCYC83zJnqRsQecdcbchL3s8unNg2IJSN4+CRZ2fs+4aiwfdbkPfepNP5qcc/zGWOxWSEgT+N755O0sd4g5sJkHcAA/IOSEA9ed/VtQuWa/afCCDv4oCc9/gNOabNnFKW2DYgFMdosTUfd5M+W1OMm5D3jqbxDAQc6TnOwSQM/Gks/+y0yR7PpJkAeQcwIO+ABFSTd7drMmU/0RjiW5IeIO/igMh7/Ia85L32YrBilK+vL2wbEIptBxhgz778thThRuSdqwJfieQ9PeNLea890/8A3CAg74AEVJP3ZZutnDHxlcMFeRfHn+aPY/gXIu+Eqw15yfv7YH4EIu+xgLznC5e8ux2XrSF4dde5SXmHu2k3DMg7IAHV5N0InKFk02UrCJB3cRSYNpM8BF7QhrzkfXO6SviEjj6WlxeQ9zzhkvfOxBdb4dXd24y8g7zfMCDvgAQUkvfmQWs7T4HtfK/DVhAll/dmfzy2s8yrJxJarpAKPETeCVcbcpN3n3dCRx8LRN7zJTRdu6eh1qo5GUyb+NzYN9lm3ChD5P0IyDtwAuQdkIAy8l4z9m3toC+dgLJiq7kvHl9ued8aqCvcThQpcYcHTRaUNhMb8VZlQ5C862+s3kkGzAH6/7tl/WaMnCl7XSAUGyLvuRIq73a7b8yc2naABdeazNhmft2FyDtwY4C8AxJQRN6bTp/5eX3K5ObEaOB33XLLe58E3V0nMDtIOl65QizwEHknXG0IkvcvI1+VuJSP76/64q6jL96W+s8de10gFNv+k635AHkXRqi8t+rWYqBhcbcWhtXpdlpb+h8g8u4D5B04AfIOSEANed/NT827q//po78//Il77fXEYTGf0sr7bqH/8hIkmgbrAYuFVJthoXeIvBOuNgTK+x++KnEpH/gqQR85zn3TskowiU3R9J3u1V5Cl/y+fDqVqJC8r4cbfd+emev2eGwbU6dXtw/kP0Dk3QfIO3AC5B2QgBLyvjXDVXZmbj5RD2LOdJOWey+nvM/6T6bjmOM9+33h+Oo2FEaBpSIFxMTlbAiS97/+YCsZ8P8hkPdYFsP+xzObWdVj3zHOpoBQh1LL+0WVw6b5/Pwy/LJvoHNhYLiWbtLDFSLvPqi80zFEFJD32wXkHZCACvK+Mr6ytQA+3e4Dblot66tJfLeM8j4zJzUq67aXL+MvoFMYUOc9fkOQvG+YPWbgeewLGoO8xzMbsj3nY65qvlGp5f3COxtvtb8NWg1j8EWbdIz22yhh2swNRd4XIO8AAuQdkIAK8t5YspVgPrWOVcMzKZIfJewXt5P7o2T0jlNCxnxqKeA67wiSOAORd8LVhiB5Xw14ppaMxn+zCeQ9nux7XCIVkXcXHZgP39B/vP/eW7idj4ZlHb56XwRE3n0cI+/e+H+Q9xsG5B2QgALy3rTjMkha9fUQL8loz7L1iytteKrQYFndo7P7CjcUBa7zznqbGUTeCVcbguRdRG1HkPcKUw15X40m1sp+6g8H80bH2M9WHf8UehB59wFpM8AJkHdAAgrIe73FVsLpbqZY8Hcm+lGyfvEwrJ9dm6yGXpruKiLTXxJnnQ1E3jFXGwLlnRyO2QB5rzCVkPemodvNzvv2pUOC7c1J2+r3nQ46R0ixd4i8+/Dk/Rh4B3mvMGt/2TDyYP+BAfIOSEABeXfim3Z3uCeJJ/0fJesXdbN9mtWEshh64vfVKFraTjnvM8h5p1xtCJR3M3uyNch7hamEvB/alrGcWMaxfda03lyf1j6c/QQdvcVF3rcL/aBpD8iZxIU/IPIOcKIPr6f5mJ4lwYK8AxJQQN4/ONRl9kxKvePQe4n6xebd6FryPrUGW7N+HBPgC+JPf6QIIu+Yqw2B8k7L9WcC5L3ClF/e9QfNWFq2va5jp63RS1pjuLP29spavaF2rZjI++q9Y9uO803TNORM9mP3IEbgxci7rwDAc/abc4CKNO2A+hpux2/vIO+ABIqX99UHW4mkXycLe1ueftHV7MCJVN25l+z+yZExlCtnt3kh8o652hAo7y16OGYB5L3ClF3eVyNH0/pm6+XJGqCDs93Hto6etLe+7+fr7zZuwYqIvG8b+07Pf+Y0N227I0LfBUXeT+3pXsxFBaAa2kPQ2PnVgK1gQN4BCRQv74FydEWPVlbs9ErTL25sLST2sh0eU2kERHCzANVm4jcEHp+4dGlGQN4rTOkj741v6FR4nmycXyY5J1DDi1g/2+PH6WA6wc2W/Mh7s2MvA8SpZ/ezl/sXHnkHea8gTX2hmYFl4twntoIBeQckUBp5pwFRJE3l6BdX993LZPcTvQlbsVw281RB+EqbQbUZytWGwONzkf1cAXmvMKWXd+vwPB4bb/PG++vDQ0OzJrOF3kSGUhu4jXG/10ctmPTIu26G7cqaEXiPMwlC5B0HQ7wGFeS9argH49FxtNZx0Jqfs3AOyDsggbLIO3Mq9ORS9ItNJ7IO5ClBrti5mmCG1fgNgccnX65XJCDvFaZ88n491hKdCYeR89jRWgNnMzAM5/WXNVh/WPUnZLmTGbfuioq8153wcMjqrp0xxVxM5B3SZqpLzW7TGRbre3SsXNCf+I8/kHdAAqWRd+ZU+2bWfnH14DiNnG1pbfxia8Gs3ryAu7svUtyIvJP+BqrNMK42BB+fOBM4GyDvFaZ88n49OaixsPrLl/nKcvHctm3Lapp/N9dPlnMYDluTLtLdpU1LbUTzsRAi7/3o8UEHI5u9836aEAakmaBpiFTgQd6rRat/vHZc15myEyZj5PI4j0xzvFMd5B2QQMki75a9zdgvrhztp/7dyLVlXcdWcD/Viyx0olWo8x6/Ifj4zD5YAeS9wpQy8n6MGlN5n3bMujXdPc6Hzlwb2NrEdLRG7RF/nnV9ucWJAscy15EPnmLAsTT3bCWMjGck/jQ//e862WNLmgn/TgR5rxTt8PsytSFJ2upox1tMIO+ABEoj73O6zCzvkxmeaH2Bp3vKC9eIrwJ+rBe5e2UrRVBg2oyAmLicDcHH58E/12QqQN4rTCnl/QiRd7d+WODp8WZv/6XZtAbj8bi+HbqdLz1vyGht/Iw28vAkYGAPmdJuq9fbBntRD6erzdDrrzKOHqo9836aEHC74b99AfJeJZbH+s4BuN067Sea6EzBgLwDEiiNvLNnZZV3L9Bt0PS1XPgedaJ70NprCAHz/aTmJ+1sSLQIIu+Eqw3BxyffURsFyHuFKaO8H2PGPz5OyeVIR7TXO6s3sa3m63AxOw61l87WHo9t52PfO0uPcfUf5tQYjvdm5CCjeILK/yVmu0c7ke1HkPcKQeZ2j6DVobeGWO8B8g5IoDTy/kKXGeX9OD60a5jj8bBzyEObhjwxoKU3QVPkNX3O+HpsqDZDudoQcnzaWftmkPcKU+7Iu987N31r8vzcX+2X7my+ZZFFuTS7U5NWk3H7XwJOlYO5s5roLS+GY0NAjD8D2z3dgbhVBXmvELE5WfUWnWySBgdB3gEJ3FbkfeF4YRv7sLOsde+bLX7satxVOsXds35wtc820ioLkPMevyHk+KSFrzMA8l5hpiyXApOliIk8QkuUPwwXi7Yxfn7ZG08vO2vb0XKJeITjmht31/87WmsawQ61JUn1v8y1tYgdbZQrVN5pQOQR5L0ycDhKp0du5jdt3JuDvAMSuKmc9+ZxnOrM+6yr7/Z3tioKzlD6Mev9LnON4tScemyoNsO42hByfGaepgnkvcLQIZ+EzgNbUZuQKoez/XT+2Di8f1qLv177K6tm97RHuQ0WOdPwBJbbeViG4ao/Y9HR7GNRsuBF3jEQea8OHF26axgHvCShd5B3QAKlkXfmVFlKRbr3XtWDlX28vfq5agwzpkte0CYncSzNAQu9F5hHymZYJUDknXC1IeT4pCGWDIC8V5gSyntg5L1no0aqYw/M52ejjZtJc3eMo8iCtqf2NqoOgIu8niSyXZ2+UsHy7l0DgbxXhy7H5erumRg+6RdA3gEJlEbeWaM8zpBOerLq/jtbIawnE5ENLW9CxbFIpJdAIx8cbvM6G4i8E642hB2fWYtFgrxXmPLJe/DkoG5jojWm053lml8tqzUePy0fDMlHK21P7e0kKsayNZpU3i9PX6lsH9keRLsS5L06cJW3aNBRbLhfAHkHJFAWea/RRnk1SC/vpzuqPW+wqMdsqInrkXjlfe0lu2ea2i8TLPJOOm2IvBOuNoQdn7XLgyghIO+KkrFkIAG/BmpOe9PxeHoWKFCWsMlBZ9rAMYbfNGeCxbj9vJ/KllIm7xGFtjG1viKRd4+XAquIAWLhqk6wHpIFTrEBeQckUBZ571F5R8aUVt5Pg1XX9pUsufUhX7ILB9zlY/rsT/LtgTzwTSoC1WYoVxvCvh33MZtyg7wrii9qnhr0GrqtaX2crl0OiQufHHTfnJkHbdPEdwjv966e5xQZQTB5jxvXPyFXFVenr1T88v4qYlpZQAm45H1LGw5crwLkHZBAaeSdJoY3lmnlfWt4ySmuGXQTrNk2BbW2fNVmEMcnCpk+PA0FTtIkICYuZ0Po8ck5tiEMkHdFESTv1ndN0/CXXA55D58cdMwGZ68fl52Ws5DeWjF5j0s7XlN5vzx9peKXd/NPthEoPVzy7rKG42MF8g7IoCzyXqfhbPNXSnl3Ua/DaLSCJ+TYjf4Qk3zOdapjzB90eaw+Lxsi76TPhmozjKsNocfnItv54j9IQN4V4tk/7X3Kh/8CoEyRd9oanMm7a6/nRNe3TqNnNY1ZMfI+jm1UadrM5ekrlaO8z37MRMWCgOLh69HZSd+vgbwDMihe3rkiXas9CXPiWczSyfspEV2fh95/rdlCss+582ZYIr/lDmJuCecF1HmP3xB+cZltblyQd0WxX53M+OuIlkPe1zbSdhZ7P4+8t/e+O5Wfu8lY8vj6ZPJ+efpKhcg724kg79Uhkbyj4xXkHZCAAvLOMyFp45l0ILhASyp5P5VjbNpf2VoArtYVoNEurq/GxZB17GSSkQIoMG0meQi8oA3h8v4j05BVkHdFEXEy/pMtMeWQ91OhlEt5X12Yi+zaWGWKvB93og7yXiFA3gEFUUDeT0HxUBbzAfYbUkM1lbyf6vr1o//N5l6ASHFP4POd6d+cpxRVDvyEajOxGyLSuvja9BD8/xbkXSF4ijrH4Q8BlETefena5/JeNGWLvDPMn2wjUHo45Z0+C+QdkIMC8h4/SdHWWA/wkuSjpJH304w6y7hoqe74o2Yp4U2ocGmrkHnCn7T46sNBtRnK1YYIeefOjwrC3x+AvCtExoHIhBJG3isi75enr1TcZ7oDcasK1WaqA8g7oCAKyHus6q5GOzI4sGniO7Zp5P1oWQFVIi/JOA6R8Iu34IyOZ/xeO2KneOUHct7jN0TIO39+VAD+/gDkXSHqLbaSgbJG3um1/FtBNwKDKVHk/XPsZbxDznuVAHkHFEQFeY8Jva+R3L/jRBSajJpG3o9p9SbHtJgiIm+8t963e/NjOCysr8Q577S3gWozjKsNEfKeKfQO8q4oWWffwpQ48o7aA7W8s0SRd3/nBJH36sAn78+0GQd5B+Tw5elEbPpKXrTqbCWIzRydObhD1eg84ynk/RhMr/FExHFJm6zwJsLUW9aKY7xuXnj14TAQeSdcbYiS9yyhd5B3RWEzJWainJF3L2ocOBFGYZQo8u7vnCDyXh04I+90AfIOyOHbZOnRLiryblmTJVu5Yu10idl0HYddW6SQd9r8IxyOwDt6NwKyWPjuvWfKuxCAf050iLwTrjZEyXuWKC3Iu6K4U7aSgTJXm5lB5D01XucEdd4rRSJ5H+kg74AMGqfK5kW2e42Jd3o0NVYqmTL+QD+WruUudBbNSi7vxzLqO76YupCkVy4tj7zlEIfbp7soHaQgDpN38gMi74SrDZHy7itjlBSQd1XhqV0bQ1lz3ilqZXyULvJOAyIg79WBS969GVaNBcg7IAO/vBfZ7s3szgYrTHPY8E1UiB/ofw3DtY6zoiaX90ObrfS/s5Vo4svfcMATk531+ZJrgtnuaxrG7JPFcYfxPZ7xS/jmRIdqM5SrDdHynr5QEMi7qgi481bqajOKBY3LGHlHQM57deCS9y2VdxwqBHkHYrgbi+Hjq2UNx89jAQO1MtC7G4wNZ7i0kKf7Hxh/LDy5vKNLYUJzzydaYjqA+FnEe5ncHVlle8jC6IjHjX+nxT9IS8PqvBMg8k642hAt7+lv04C8q4qWfZ7lckfeyyzvl6evXFDn5EVDJgKmCwDUIIm84yMQ5B2I4VWAYeGOyuloGrvlUzAL3f7FVs/w63Ried95o1QbnJ4lpgM4/tkQVp1OJnfH8u6ri3PM6+eEfOFkhlWWOQORd8LVhhh5d3GxzzSAvKvK1SGQnHJXm1EraExyC11WyiMCUnFYRKmgDCSPLAElgEve2UB3bFQg70AMouQdZ1+EjhiVTHCNRX9JvsTtY4N9tuaAc3RoVAcw07S+Y47HhtPVHqK75eiSk9/trN/e1t6apx4tnbxD5D12Q4y8W2vzmNGVCJB3VXE/sl1VI0oaeWdRY7Ui7+SMnMXXCSOxGa+xLwiQ90ri3buPpEG1ARe0BnkHYnAENA8CbhELZWvWrnrO1YbMzsRI2j4eh45yF+UOG0a62nQHE02r6b/wPYKNppmP7YjxilHp0LNhI7OwIav0XWakj7wzIPJOuNoQJ+9Wj4z9TQzIu7LQCSWyUOZqM8qlazcmWsuMj32uzLbWKazcMcXrnNBVEMh7deCZtmU3Jjf2yfyMIO9ADEJy3lNXy8iJdX/K3pnH86DrD5knlfdNly7dR95eNHjGV/1+cEfG1PpoHvrTu9CXDb1a2E4mAoq7Y6s8BZqyyDsJuEHknXC1IVbeuWfkOgfkXVmyRzTKF3n3ZvbHmD/ZRkWYaTbP5cTnWCtamHHnxG5fgLxXB564n/FGugFSfgzkHYhBRFUUzkwShUgq717tiANvNmRgsvq67wTXoHA3ZidkJ7pmoKKvtKGAQvLUKl3DU4OUaTOsp0FdDkTeCVcb4uV9xREWvAbkXVmujoHElC/y7mtXFSxRHj/6H0PatEJJ2jkBpSC+D7AaS5JbQ2+3g7wDMWTvY25B3qcsChYcTw8goHR3sz2MuEPRs7Vg+9qNArYfhvXwdJokkBblq8leDHLec9rA0XAvRim+UZB3Zcme9O7/92WSd3Itr6C8c1XvXH2wleLwXQGBvFeI2Ok8Dm3rA7fidKAbyDsQw+6VrWSg+vLOwjG1+BFPlMX1RLMbO3LsqeXW7eARLbP+5WBG3WyL2uXUKnusXOQ+lbwfc96h2gzjagOHvKdKewd5V5ekV8JXlDHy7t2EU22GVUz04H8GK/dRJI/vbCdC5L1SxJWOq3esJp4Bkg1CA3kHYlgN2EoGqi/vLOLu8Cb3X0foG93YQNzKCa5y4CXcM5p/jMR15cwqFxM6P1PCYCGRd6jzHr+BR975B0OfAHlXl8wJiWWNvFMc5UqUc51fBZeJxJAmlF4FgbxXie9RB6DbbdF+wiv/BvIOxPGYXb2rL+/6CIfBDucWHc5VEHXV56o+1mgH2jPNhKM0NZv3CoIHzyo7PTLrUkJY2swx5x0i75SrDVzynmKMI8i7wuwztoulzHmnOTNKZnxwBdUz3y/JjswmFJBJO7yB39jkYrfRns1ZZw/yDsSRvaTZDci7pe+7neGAp1Ir4lhY0uOrwSncBydQwRaGeSAjWWptW0sYHY/GJ+8p8Oe8k14bIu+Eqw188s53Y98PyLvChFWL5aXckffRO9umDhwjlq6a7gIAea8srf7x8FrXNR/OuK1pG3TG1yeej4G8A3EkFoZrbkDeLXfTW/POYn85ycc2uGJMEItge7d234zxeLzvH4Squyh5n7HYO1SboVxt4JR3q5twl4G8K0zW9OlSV5tR0Tt/xKfEpEhdEw5qQr37FyDvFaNmt2kEULMbzNtPdM9qU4C8A3HwGmkEtyDvmKgZk3xsh+dPSzT5vYjSnQkQIO9/Qs577AZeeXc7yS6lQd5VhmtOxXDKGnmnV/IqemdsvRn/dNOFAZH3CuMejD2uDeEVeDvjbHQbyDsQh4AROsrJu7vskuopPtpnzWDKCBFfUvJlSajYElFnyI39iIi842ozLFQEkXfC1QZeeY9MiwwA5F1lMjatJa42o2jQeBUTRlnNf7G1IvFVm7nPflscUI2mvtCDx8C5U7aCAXkH4uD3ilBUk3fXaGxw7RT/43A26XVKeeeKoV/GzpMOQ5Q6ZEqEvBc3YDWPIHkuGxKcZFqbrfAA8q403NNCBFLWyDtFRXm3tpE3Q7Yhc+hJxteE3iUewg6UgE+rHvjFkkqRHiDvQCy23wBSoZq845xzXDvF/zjPRE/byTSNr2wtnIseO3H4zXWy3W1PhKjIOwMi74SrDUmukA8druQsAsi70kTWhoulvNVmMErKu7VyumHd3Up7U2Mv+5rQLsh7NWkGDYNbdf03WkDegViyR3pVk/fggJffolNHiLZm3NMvOuwU5QviJnMQiZDIO9mPpNeGyDvhakMSebd6Bvf4ZpB3pclWu6TUkXdlJwfd2MZS/3n1OPT3D/wXzbkC8n4D7N7GVwy+s/9IAHkHYkkzs+M5Csl7TXMcZxCYZO5PJj+T9yU7dy4IVmi340R2pE3zfG+kqRf3TV6moxB5n3nxNqg2Q7nakEjerZ3Bu+dA3tUm0wAWqDaTD4svdBiUn1G75pL7swrw2KPNKfoJ8n67gLwDsSQTiyBUkXdXG/Qf9IW+MQMSTxZD39s862RCxJWYaQALsxHhSRdlIjkL1JyT6h+lQ1zknQCRd8LVhoTn2KrDmToD8q42mULvJYy8f+CxllQ91ZV3RRw9FF8TCjnvtwvIOxBP5qR3ReR996ZhgUFtsx5wT+osFyFQ3teaY0+djhe2D5P3T2tpn93f8rObn1tXuir6Wad34UeEvB9z3qHaDONqQ+IL5B7fWEeQd8XJcluzhJF3X6EUdeVddSBtBkCAvAPxpBM3H2rI+8Y4qcxZcMXVhrSKwGw6ZlYcIO9ua/igbz/1Xp9pfpi8I1YN9opXXJSFTJm+Lm+ePwHy/mdxA1bzCJLnsiGxvFvryPs7HiDvqpOh1nsJI+8yz/7K8nJAu4/evgB5v11A3oF4Ms8LpIS865Pw26HbCZ6JSp+7lkMnH76W94V5jHYvTJL6EiHvyK0mk6BRhYeLOn9pp6+VFnoXEXkvrlRkHkHyXDYkl3fL+j7csLVwQN5VZ2ekToErY+T9lK4N8p4Wn7WBvN8uIO8AB/uM9q2CvK8uBopeUO+75Bb2yiS+cyXva3/pJreN3TlS3tElj0mSdM6Yob9yRto9e2V/eSFE3sl+JL02RN4JVxvSyPtnsxt4gegH5F15GqEpdnGUO/L+h7TUv6oB8g4gQN4BDrLGeVWQ925MmLLW/yR3GHYj3Cdeyfv53W3XQJ1ljLxbbn14EVffjS4EamGwlcQ8StqnYuR9xmLvUG2GcrUhjbwjZsOOX8+vAXlXnvQpcKWMvLNzH7wzPcTaaIsKO/F2kSTveL5X76GCyAHJWA/ZSkoU+M7jk8s3XTp/GSkHcynvdZxW4+OX4VpPzsXGK5ptk2bhUH5cBf+TTq56Ip1MJ0eAvP+EajOxG1LKu2X17Eh9B3lXn8SztHmUNfJOvRMKpaQFIu8AQpK8j15Mj8fMRcMB+WQYVYVRQN61B7YSjqZNcXdI6jBeyPvq0d9RYtoH63kcf02zG43YCFV34/Sv9sMwLu0hlNQ9fkJERN7xgFXSYUO1GcbVhtTyjvW9H25uIO8l4KJ6LDcQeb8RttoZj063hnYgblJhJ1aW7YZ93UcO5ye5JHmfy/kzQF5cjrNMiALyzlNZz5iSJ2FPPZf39+uCbki/nvXolAWK3h87mtZ2pnf+IDwlg7K5g8vLiXwQJe8MiLwTrjZkOBLQhZz5egg5xUDeS4DrpIuNlDXyTgHv5EZDPcgZbw3YiRWnN+yyL/tI2/zDf8pLknf0Z1jSK8h7Kck4K5AC8k6C6jHsxiQvHmfYXETeA9T1OTbn/Yj+oB2uzR1x5XAJyFx8n49yy3seQfJcNmSSd8v61d73N0FHOMh7Gdiaqb6bckbe2T048E5+tAed+RvjKO+/fWNPKYTFQq+jd9NbcIWxolgt9Br+YLOFnsk0EOuFfkCv9F1fZD4n0OfDb0rA50tMcBGqpT+IKk/ePUDeS0naO7uU4uV9NWArkTRoEru5u5T3yXXV9n2TW95DyTJDyyjwckA4AuT9T6g2E7sho7wjat1B/3CVhQXyXgrSJcH5u/fyRd7F5bzrI6dMJL/Nommd/gPWSI+3BrsEKk6n1pozNRxyS6DjOPZjN+zmXzybtjlwHPIJJ47zZDbiS+CG0Fz290PH+YZeqeE45tNES52Xuntwxujz4TeFP5/dPUhtP4NrhJxpDMg7wEW20Hvx8s4nRz3ah6IrlQt5v7+W98Hqma2lJ/141bQ2nRgRkXdz5t14g2ozlKsN2eUduVytPdx3e2dBIvzLJy4UgJYg7+qSKjgCOe8UrXOqh6H+Y5K81UP+eP6P7rzIe1E6pU+GD2cx8uambTfS9PPuEnnx2dG7W3btZRrd2HbsRs3/HtyZNrxPFeSqjUzt7B9uN9/Sfb4U6EvtwQg8O0DegRRkCr2XRd431Klq/TN5fw9Km3Gf+NNmQkk7RRNG0jRNQuSd7UkERN4JVxtEyDumuenYY3OiHXSq6lje67bjfCB7B3lXmIB7e7GUO/IuUN61T6s8j847e9v8IHk//0cFy7tuOgGHq7vcdxK3MUu7EZCSsm3YiX2j2bF7Aco/c0aJb3XMzP6l8n+i9vO7zTOpdUa2nYHTeNA0+yvb4KfhP2ekyTuLvIG8l5VMofeyyDtzqtXHZeQ9cMBqfKnIOPqsEk0alg22ki8i5P2Y8w7VZhhXG0TJO+HXTPs2GozH46ljDh3HfkAtsOmMuuw/AwripogQlniGVYRAeY+vJKYQKVpSxSLvD6Owo+19mEyUm05YNLvZuE8myrNh2H7VnWQXAm5j8outXuB+x/O75Io2fKefe7Y3WZrViY8z4YDIO8BJltB7aeSdOdW+eRF5X+0vL13aB2vMUSoymix561ny5RMgQN7/NI8dNkTeKVcbhMr7J1tarv4w1Bc4CP9V1/XsaV5AfqycxOm5JYy8m0ty5uMGQWTkna2UgrLLe9OJ2N1NI8kNYf1sGpQLZokuBFqTcNd3G/0EFwLbKNdfG39ja7mw6mvusfX251otWoOWvkCfwu04XtROnrx7/TfIe0nJEnovWeTdsrcXkXerftFg7eauNc48Bt25CXnHOe8eEHknXG0QKu8+NqOTymdP8wJyZOskbU5KGHn3CQfIOzfB8o5bVfk6tX2L7rQa/FWl/z6KFIOmyX9jehJ9zXA9PWIoazPymsFtZ6uaHcnn5PwT+7Ot1vcN1JJ/Ou96m11cQOQd4CVDnkZp5N2gS7+8z4i8X0xT9Ylvn2WPZKYzYoqkHkuAvEO1mfgNucm77yoB5F1ttmZCey9h5J2YAL2WB3nnRqXI+1Xc4RKeosyUuD2RIB0qpm37vOMuYBMXFHOnbCUHorMblv1/kn7CZUn8IO8AL276fK/SyPsLXV5H3tEFue+uttvGF/rZZSjLoNMsg10TIEDedfN43w2qzVCuNuQl772xD7YNUJRtaC5xMBB5p4C8S2Q7RHL+a6Z1bdaqeBjtuo46+gULgHGAw4Gfek9z8PgcHwNHe8fh/Q5/pi6eg3Gr19sGewmPYVebof+04p/KfOGgz7eraf2rz9f4jj9f7bLpFsdVr3BBbbQi5WbYtBAg7wA3i9SHbWnknT0rQN6thXk07YVJWpXsMpRl0GmWwa4JECHvMMNq7Ia85P2s0g/bBqjK1gkZKRdMWSPvlPZvbFtmblfeZwXoVA2JrGlOjYvsmdVm/+E8ov+UIL28jcfUv40v682sW+Oh8zweJ+gdm/bz2HY+9r2Lvz4zpob5PB4kSJ8nn29+/fne91P8+ZwEny8hZtzZP5tYj9ilqDeAvAPcfHbTTp5Qgcg76ipbQ03fuvp736CX8dllKN3cLBQca5CAKHknsXeoNsO42pCXvC9A3svEykhSMbKckXfcEuD/izMBiLzLYWGOWa+zMwI+hNsaUbGt78d3MYpbH4zb9NrzEDRp1dqgQfdmd7yPCb+vOuM9vQn9j/6XlXUc4ePxTt7ypzUbjqOz2dHnG45Z1/4r6POtGn36ltGb/5aDwv8y2Uo4h2+kxoVrY6MCeQf4ab6lPGRLI+8BOe9HeUdNysPIfnI6Xsg7uwwluMV4BbkEzx8R8g513mM35CXvvpQlkPcS4PYTnBPljryDvHOjhryvkQb/muPy4zUjeHSGTrZr7abVi+7ZtPbKOkzwWoM5/CVk3KuLHLoZnTzjOu9I8bG9b53ge9FbUhZiZ67R/yND2/gpCzLuJOzz1Qzc6bbwm8/Qc4fBcRh/dh/JhQoJvUuT92MPAvJeYtJGiksj78ypBqtndrgikLy3aLmm2UJHiz///JP+ml2G3EFwy8XBOmuZSk5EyHtxaTN5BMlz2ZCjvB8BeS8Bbod/opsy57yLnNkf5F0K5D3g8ZybSVi3tXa2rFOLzOp0BzhAjp/SDzXzA/pDxDeiO0kyvhRngm9Db0Wv+jP8x9CfjB6MSt4yfkqPRdiv2SGrp7OcZqnyHAJPImxzSjJmSOlqiLwDSUhZ7L008s6c6vl8kqbDiE2S4IzQ40iGnBeP1IlIVj3rBFGcCJD3n1BtJnZDfvJ+DJuAvJeDHrt1H49fMSDyXhaEyvsXiTpFBn2ilosM6Qzm86uxoreTI7+T41OiKjagHo6+iB0cBqfQug32djUPP2s+jV/0Ra5iJmfQp4wsPfTaxLJ+zd3FHK+k6w8jOS9oF8KS3K8g0/SCvANJcIMS1OIpi7xvqFOhJ5/JO9nIuMqpy0RcXapwspSIT4IAefcJJFSboVxtyE/e2b5GgLyXAy/hN5ZSRt5zuAd/o/KO9+TDZUOSI8x/tyR3JIzFZEbeUuR3Qps/TdtETvrcPnDIO90xL9tJ1GCRprHllncHXX/Q3wOp9emL5CDvkZ/TY7snCywOIO9AIliVooSURd579ORGZ0aovIuF3oJLQfORreSNEHlnexIBkXfC1Ybc5N2fssS2AYrjNiZcLWZ5I+/YO0HeuQmPvNdzyL0Og8rtKDps9Nnoc8g7af60dvS8j+6wwyvvdiO6Ms1swt48/TUY9pSYShCNPnmRwuSdtuK4vwB5B5KRKu29NPJOPxw6MSXJe+rUufQh+4SIkPejQEK1GcbVhtzkHdJmysjM5pkBotx13kHeuVFJ3p9iBMDdk7aNJ/I+jUkarY255d2OiSn2x+TNXza7Z7DPFzODapN+vnT9YSRc8k67VPJkkHcgIWlayuLlvUnvNsXQoInk6NpblrwfUk62HHmXUCQC5J3NsEqAyDvhakNu8g6R91Litobxl/VljbzT68nGnVvXAkl6c/dm5X1WgLxPf6e/hbLkkHfS/GmxpREn3PIel2i2nZI3f9nsnsHkPU5W6OcrWt77NZB3IDEppvYsXt65Jm3eTskZuUONiix5d4dcZ+wlWWpMJkNE5N2csf5aurxfRlqU3ZCXvOMLp+O+Z9uAMvDV6cQ1m6WOvM8aHd1mtn7Gg5m0WYDIuxSo3F62XFfQZ/BE3mO/NvoMHnmP7UU53nyiz1e0vKO/D/IOJCZ5iRQF5D0mk43QH5PhuPi8lCXvKatv8nwaMYiLvBOHlCvvm8HHBepuMHLhDdJmSkvPvpx68oJCIu/6Qm8Mh8O3uABsMPctdjBiE9BHWybsZ4C8X6JUzjv9JRwWVo+U9/inEITLO0fknfPzpesPI4n/EBiQdyADLq6bmggF5D2qKBVj0x3gG7ZNPIxGmryn8vAsM7MmREjk/Rj8lVxtpmfWb50l3tF094O8lwx3aXeiOnS5kffmTGs7g2fHceadhf6WbrDO0Tp//PjS0Uc9kwm7D4i8XwGR91Dojon3Xo43n+jzpesPI4n/EBiSvA/yDqRkNUrYVSgg7zgXJpqFsyUlXEgte3nyniIDJmWuTSpEyHthkzT1Rqe4M0PZDTnxt9MfAnkvHz27E97Wyou8Nzft4X6iHXSSjq5pn2lL1VLrJMckjry/B427T9zU3K68zyDyTnZMvPdyvPlEny9dfxhJ/IfAgLwDmVjNk8XeFZB3q/+DrYSwM5ozPAECnYJCnrynyEKSNUETRpS8k/5adrWZ3oj9pdvlb3SBdz/Iexl5N20tpFeXFHlfN8x99+CbA0d7SF0m6xR5xznvo8CiWYmbmtuVd4i80x0T770cbz7R50vXH0YS/yEwIO9ANtx+omNXBXlfm5FDVn84W1J/cWWSk0OivK+4Z1RkRM0AJxwxaTNHCpb3q3i3Khty42/4b9E/B/JeTraabRyCKrDIiLw3l8Ph8uLFsVOlj7x7x/6DA/LOSYHyvtYmdD5xx/kw0I9Xm/4SDn3GcEh+CYbjKQT6DPJ3w7Df8M/IpxA43nyiz0f/LqYTeG6mgFPe6VkP8g6kxe1wzgJIUEHeIxPF3VYfnYE48s4C9BLl3Yqe0u2K6BnuRFPytBn2l24XFnnHgLyXlsW3gdn4cdlM5B953/T3jevQApbl7JH3+lx3QN65KEze3dZQm+kL/+PPGPSfsY/4F8kH31sIe+gL/29BD/++II/et6GYus2c8k4X3Q3IO5AWVhOdCyXk3apjQQ9kw+ZEqY/HbKY2mfJOLhq4cee/2JoUBMj7z8KqzYC8/zjt7RnIe5nZfe8P5q2a35ld9D9cKh2Lew7y7vbsbo2tn5Et8u5RN35C5J2PMHnPvc67QfrFz7OHCMS8Si5wvDX/3sBPbzqJM1+DSCTv6PwDeQfSUne4nVwNebdqw3e2tuhPx+c8D7r+dylV3q1l9OTOZ/QD+9PcEJI2c8wSkV1tBuT9b+yqCQHyXnYW9b4z3jttbYlDfs1/onPL1h762ICFy3tEqZsskfcv7GDEYy0h8s5JUZH3JP3SLbMaijAcLnlfsVb8dQfyDqRHN3kbcEXk3Wp27PYP3bV+DTdXQfjVxvS9TbnybrXbnGnsq2SDDbJTrZz32wPSZioEiQo29YPWwMm2j8/j8fjesmpTtPI38gRhuHW7Edpqi4q8/wnVZvgIl/fvsUXUMuAOJA6uKjWBx3FSuOR9+0wWqw9pVg3yXkmaowe2FoMq8o6O/UPfeRqPA29z+cNANBxP+Ytty5ODw5X3vjViauYIR1DOO43+QrUZ6Xjyjr4AkPeK4ftCO5wtMSczsxXRZmeJvPvkHXLeeQmX9x6pbpwT8ZVXAIrXS2aCT96nZIEH8IG8Axn41ByuPC115J0yDKzv4m+r8usXQ9jxTNakmwkL02RHgLyzGVYJIO+SgbSZ6pJXI9XsTyLbGUGR9zlUm+GkIHmHrBluyPSOGeGS9wW91YInowF5BzKhv2kct9ZUk3cyD9MVuHyxh3R5t7bG95g9uXrgC88LRWzOu2x5hxlWv7N9jQB5rxjj5ZFXgY1UfRgzrAYi71koj7yXa78WCt9g02i4Tql+lyxw+BHkHciGq3EUSlJN3pumdir15D0afZ88P6MNX5Ev6z91p6NLSf1zG8PIQevfh0W0peLknfyQK+/vTx8XKLvhw8iFt9NdD6g2UzUen07QclkC2BqtuBCBoMi7AZF3TkLlfQbyrgYi5L19YCsR1MakyB8pew3yDmRlO5nEHbmqyTsOYl9xFvjuOo45t6yHF7R8Gz2Nx+OB09FmC/af82HbDR8CXIsYQJYnQuT9mLkhudrMVdJmeTYI4mywMNsGVIQ8RtXXzPg2DkudgMi7A5F3TiDyrjoi5D3wZDhnZZgkwEdKzoG8A9mZhRYVYygn77GsLGsxcBxS/50mo6/0njYxxnanJ+A8DeOXYywD0k13rWE/x78ahQB5Z3XeCZLlfcRWPMqzQRBnE2SxbUBFEC/vbiN0LgwfWOpSRt6//Xa8kMc571BthguQd9URIe+rx9g7/JOZiWd52ZHEd5B3QAQ9uxM1xKmU8m7hXBpcnO1sJOm217Ht9nWlSVEsGsNh4yz4VWvvzfpX9ot0RETesUCyzBmIvBPiNwjieOGE9j/Ie8UQLu9bh2vebCx1KSPvWpe9YZhhNQHB8o6bVJB3NRAh7yFD8Xy0v1tTLPgTkqkM8g6IoTfsh5dLKae8e7OtXX2u7eFu0N3klgi/Xhrjsen0NW3iDMfj/qHI3ScmbeYIRN4J8RsEcTZYmG0DKoJoed9xpMxgsNSljLyf5B0i7/xA5F11hMh7cxgZE3S7ddodsypAIO+AKGrm2zJEM8sq75TAi5JNd99J13/xsVvUNG2GB80Wi6jIOwMi74T4DYI4K9PJtgEVQbC867zFrLDUpY2837E3DNVmEgDyrjpC5N2aTdhKEGtjg0zKdq2FQ+OGIO+AOL429v3AgHQF5R095d2xc7RPGvUvHHHyTkLAEHknxG8QxNlgYbYNqAhi5X3Dk+5OwFKXPfJ+eIHIOydh8j4DeVcEMfJu1e/C7uevGkOc7W4dJprJ/hbIOyCUWnffvx5yWUl5R2w7+2Vu2TNqICRt5pi6AdVmKPEbBAGR9wojVN4Pod5wBZa67JH3ng2Rd04g8q46guTd2pzqzR0mrAweZvQxRj9xwbma5ukVyDsgmFWtMdx3D2fGi+V9u9AX4RqsGnzyjj5Zw1Ze31ea46Tu23dPj4SPPV0m4wm/BOS8p9ggiNNgYZD3yiFS3rU2W+EAS132yPv7459Q550PkHfVESXv1toZHchrTfobNgENfeAfS8P/Z0DegRxobtrm89BpLfWfxIKxvDum45RHH3jlneh7zISEBbM1HvSfnUnKSwz9baNh7A7+Wdd/JnrQyPsx5x2qzTDiNwjieOGEBB7kvWIIlPdEM+FjqctcbQYi7/yAvKuOMHlHTXbbHg8dA6e/f/oe5MdZNwHyDuTFV73ecJzBeDyeDl8dx0YOPHAcpxwNAr+8I33vx85SVSS4hMQnzwwQgSycCbrq8nhMeJ1CfBHqvKfYIIizwcJsG1ARxMl7stYBS52IyDvkvHMSKu+zv5N7mzkB8s6NQHnHrPX74OlWn9kSA/IO5MVpxKX7R4emzHzVF8ucQoyCSSLvljUb1pXNnfFGsMcWkQ1Gdxxf/bikHQ+NvPvLFULkHRO/QRCQ815hhMl7ZJWLa7DUZc95f4fIOy/hkfdcT2qQd24Ey7tlHQLT2LwRaASQd0ACjQdP5T/zshTBJJN3y22ZHM+Sy7Y+GYzHhun1j+m6W33k/8ZSyjs584nBQ+SdEL9BEGeDhdk2oCKIknf9PlnoAUudmMg7yDsXIO+qI1ze3WHA9C4zw3/WgbwDEmicWoG8LEUwCeXdstbz72xNDdZduzVDn2JRN9iWlfk7W0sC+r58bXhaeZ8xhYRqM5T4DYI4GyzMtgEVQZC8fzX8rR0HuEGAnPe0pJN37ThyET9GIO9qIVzerWZ7P77k/mwSNZB3QAJddvCNx8/jF7ZNbRLLu+U2uOsk58+qMdywVdf2SkutzRS5PdgqT1G2VPJ+lroBkXdM/AZBQM57hREj7655Vdo3Bix16SPv3q2gHuS886JpGzboiPFB5R3tSpB3JRAv7/GAvAMS8MVb/vICwWqTXN4tqzZUJXXmYPtuAyyGnrPX+mwlAdgqm6Z3By+VvJ/KFUK1GUb8BkEcL5xy7ueBAhAj78llEktd9sg75Lxzozmk4teRBxMi72oB8g5UlFOTPTtmcahNGnm3mkbeNsqFbn47uwegHcvAtepshR9ilUe1TCfvxQ1YFRACL2iDIM72PdsGVAQh8p6s0AwBS13KyPuyz94wRN4TsHtg1k65t7s977QGeVcCkHegohzlffajyvKOGubim7tt3yHzKPswZmzF6icuSU+t8oGVi9ynknd/6gZE3jHxGwQB1WYqjAh5T5NLh6UuZeS9N2FvGMn7C0Te0zGTlAsH8s4NyDtQUW5G3n1R7mJYtYbXfr4demkvKyNpfiuzSt38TkZKJezpqbxDtZnkGwSBBwuzvQ3VZqqGAHlPnvCOwFKXMvLeG7E3TKrNOBB5T8NZHiLblgcg79yAvAMVhck7bm8qLu/WMvld6GC2WJavq0VF0wsuON87xnUTV5bwrHKkkyneEsLkfeYZJFSbocRvEARE3iuMAHlP5Wf4H6WNvPvkHSLvKZFVQgrknRuQd6Ci3E7kHd8YTlHT5Qx303GmzzZJUxkPnDZ3qsvC6ITYfuc4Q1PC+ViOVpmus2byzr59BETeCfEbBHEK0oG8V47s8p6qABWRuuyR99oz5LynA5/U3v004Sf1miXWI+Yg77zsv7F9pmm9hOGx1IC8AxI4DVitvrxbs34We28e+tNuTz/GuFcLsoGjQXA7xlkZWD+rt+OHqCdrkT2rTNdZU3k/pmhCtRlG/AZBHC+cUGcP8l4xssv75DgaJgmZI+/UPJ//hMh7KvK8nVYfMgdFgLxz45P332QVnQN5BySA5Z2FCqov72nqN3g0O/vLQDvSeHfT2Tfi9H0VWermVC/yM9lcsJ5VZoi8/+kfXwWRd0z8BkGcDRZm24CKkFneN122kgwxkfcfY8h5T0eO0yaf3Zgt134tFH/azHaYOL00iFqb1Ijw0V2ehQVB3gEJ+CLvFa7zfmSZctTqSrPDGvbPpf1XZEB/a17WmDlHa7OVhO/Os8oskffiSkUKCIEXtEEQkPNeLc7Owqzy7tpJx9RQMkfeCbNnyHlPR45X5GflyEDeuTnLeQ+/A56ARv/gzafrPTaNud9LQN4BCZzkvdJ13o+ka/W+B482Zaxax0lTA/hlxo2YMbxmebVPktbjWWX2nHdi8BB5J8RvEESOQTpAPrvBA1vDZJX3xnEkTDJw85Y+8k4PSPRzrE9A3tPgl/ePdNdfYZy9OZB3bs7kPdm97WBwh4ArRPgfF9MsgrwDEripnHdM+8BW+FndN2La4W23E6bdHDG07fEpdxEXAVd4Vpkp8v5jxhQSqs1Q4jcIQlZhCiA/tjoyg63maDjlzV/aMaO8N+0kV/E+sNRlj7z/mELkPR3sdhppU/dxQZtkrI+TaSNA3rnxy3tNRCAm+MLanbIVDMg7IAEk714A8DbkPXnf9vU0k1I4PSfE0XkuFnreVXuigjOeVWaIvP/0CyRE3jHxGwQBOe/lxxm+dH45WqNtNfdW551tRWSU97SBdyJ1QnLeodpMKny1d0XLu6U/DlmGtePYIO+8fBhsnznOYOKXhxTsHvpo3x/TXP1sbbaCcZ5OgLwDOXFzkXer6Y9gcDDjmz1pEXxHbvXIE0Pbe/82SVFazyqzRN6xQJLOBqrNMOI3COKY8472P8h7OVk2rN74QNKRH5tav730mpZs8p468J4p8k5mWKWNAeS8p8R/UguU9814igNIX/X6oENyrO9A3nl53PzUf+ob25j9xOrQGJtpDX5jm9oPtPPt2vXpue37b5q/tpceXX86jWBA3m+b25P3hPXUl/ec53ozMEB/CLxMv+S7d4Yn6ew8q8yS8+6P/kLkHRO/QRBng4XZNqBcNM13fdyqd3r22Lan5qEx+JP+h2zynl558b8UE3kHeU8DzkNk+1CgvK9N13UWlvV5GOGf6PEA8s6LvSUVZty6gb+Pdj1tg74adckX+ml9nYyvsM8SXuenU7AHkXcgJ25Q3q3Gd7bCQYKSbe59QK/Z5cpid/csZHd28y0GrxHKGnlnQOSdEL9BEFBtpgL84238/PbyxzNqiOyPlbucsFJ0meQ9bakZBJbljDnvWD4h8p4Sf4MqTN5dPJqiVUcdV9tlx1e59muhvHhfw85EVz4fSB9S7bzfjbDTajNEXw1iOxx7s0D6umSQdyAvsLzTW6W3I+8kisHHwklwA3sVUFdmyJVzY7W8IpEJ5mbxrDJD5N0/vgoi74T4DYLwBemg2kxZ6Ux+Ld822uuj8dZpDR8bXmuRSd7T1rNFYC9JGXmvzdkbRkDOe0pOeYg/fjyKknfyttCP/mkkBMg7N6dM1NVoRk+OFGfIyj8c/YKVhnPpV/b6eObej5/H+/GY/J/r1ns6QN5vm1uMvKNrZE4lb5Jbbdz8ml+9LmcSe3PAgm0JIv2eVWaJvJ/GV0G1GUr8BkFA5L3kbCzry8htOl2ntVn/9rKzvp6apkzynqGeHZa6lJF3f/UjiLynZLunOxA3qqIi7wvSLxsLHHv3AHnnxtcDr4yvZCh4ijEl0SfVDHkCuWnOivHjl0d/l2z6J9mSCyDvt81NyrtVb7GVaBKE6ClnxV4JvCNQvfoS7qP/80XiWWWWnHe/QELkHRO/QRD+IB3Ie+lY9fe6++I8P5kPer07nK3PbrtlkfedyVZSgKUuZeTduxOEf4x/Qs57Kjx5x4iSdyqEg7o/hAvyzo2/B94adEbEJImzhLiha2tnu/pAS3bzHQu7J++JrxP4AXm/bXzyfgszrDJcg+tfJm/MrxpV3ijazqtKw18lzrPKLJH3Y4omVJthxG8QxPHCCdkSyHvp6B++NxrLH3N6N705qetP44/Vof9O2qcs8u6PsCYFtz8pI+9nZWNhwGo6cpB3ei3XnJ7dLQZ55+YsfFYbkGoVzT35jZv4UShf5ysybo2G7yDyDkgAyTuL/t1S5N1a8BhZihDY1VnO7eJ9Vg+e/496Vpkp59378iHyzojfIIizwcJsG1AW9H3ze39Cys42f6HfXePhzho732p9MuQ8i7x7g9fTgKUubeTddzx+oHcN8p6CHOS9/wP/nI29abgJIO/cnN/7nlBtZ+ktvHD0AbP+iAxXI9E6LOzOeDzGJg+RdyAnbjNtxvrkaadps5mMy8Fm14k0ISw8aTexC/DgtSgZc949IPJOiN8gCMh5Ly0b+9kZ/+qYvf6PT+uHTc7c3cdijTprnVaJyyDvmY43LHWZct5pe7DfQM57Kpi8k70oRt7ZzJ3L8/rGIO/cnMv7ekr8IeFJxhOCa03Jk8hAbyrstFWHyDuQEzcq7zxTNXF79xkXeTL8Zd9MFgzgrjXhNUCZIu/kmyd9DUTeCfEbBOG7cIJqM6ViZaNTtTP+7e3XYGXtzNXgH3jrtDMYjN8GtJvPIO/+iVoTg6Uudc776UIe5D0lWN693Sim2gxrftrnOxLknZtzebdsMozNfSK/8MJTA87dk7x40uFTYaetOkTegZy4VXnncOR0RR8ulZ/bxWvMxbnz8TyrzBR5P3Y1UG2GEr9BEGeDhdk2oBQ0DWc0fn6crl/0n60Hd0qKbz/+9qybU8MYYlnIIO8XspEMLHWZIu8UkPeU+NNmbL4qwTGwPdg5HwgB8s7Nxflk0rMjWefO9ewa9SccpYfIOyABLO/M325L3mPLumxSng6XoXe+sbGIN/rE1YAs4vGsMkPk/SzvGiLvmPgNgoCc9/Li6ncta/zc/3Dm03bNnjxPN9ZkNrYa4xm9ek8v70mmabsGS12GnHevcCySd6jznoaTvM9+ME3MCPs2L94ayDs3F/LO9id/XQgM1wX1lnbc+PyHyDsggZuNvMeevgmmSzrjsqoUd/bNkj6R+/meVWaJvGOBJP01VJthxG8QxDHnHe1/kPeS0bTd9dsLjq0Ox8+DpeV2e4PVs2U0Bl3tCbVK6eWd+05dIFjqskXeSWvwCJH3dPgj769C5P2Jyh/Ie1ouxJudHYGHdyhc8t6krTgOvkHkHZDAUd5vaIZVSsxMDe4g5SXzVeiMd2S7Sy4XVq+8H8qzyiyRd3/qBkTeMfEbBHE2WJhtA0rCzO4a285ftjEcOo2p2XDsB3P3OO9Z7karo4YjvbwnrINxAZa6TJF3CqTNpMQv7+afbGMmWNMA8p6Wy8g7jcnlIO/eV4WeDJF3QAK3G3mPCb0nmOr0gssEubXJef5upn2tY3N3vZ5VZo28MyDyTojfIAioNlNittqmac0mXx9/mM1fz+Pxfmv+av12OmnSy/tHTDZfNFjqUkfembqjBch7SrZ7shPxj5mYtBnWNHTP3xrIOzeX8k53JPf9bUIiee9uIPIOyADJuxduuTV5jw69p2/IHy4bVt78uu6mpr2TyhVceFaZIfLOJmYhRwBE3gnxGwRxNliYbQNKRfuwsX/T+/2GtbHriznbikkt71mmV0VgqcsQefeAtJmUnEXeRci7V76AOacHyDs3wfKerFVPJO/oKILIOyABX+T9hmZYpaBL5HAGqSNgV/3v6o2rXGRMHs8VXvuTJfLuL1cIkXdM/AZBQOS99LjDxd3zy7fDXtNtnU6Mzkgt73HzsMeApS5r5B0BkfeUHOV9JmjAqpeECfKelhB5T9Sqc8o77b/RUQSRd0ACN5w2E3nr7CyOlpCrKRL5BqFFXksE4LU/kPPuIWeDIE6DhUHeS8r2r8fOPw7fRt3JfPyyszb74YT18qnlPVkVjCuw1KWMvC/eQN4zt3rND7YHEeZPtjELIO9ZkRh5p89CRxFE3gEJ3LK8u/vw6HqynLhzrqvC8tSJnZ3PoReP1/4IyXmHajOM+A2COF44IWcCeS8jy2Hn4W3wYn7TJnvt0zpMmro3JVtqeU9b44qBpS5l5B0HjT19B3lPyzPdgXhHCqk248n75PytgbxzEyzvyYa0JZV3iLwDEsDyzprsm5N369uBrVyT5fb1/VUHvIgXwFo/6SW6Z5UZIu9nqRsQecfEbxDE2WBhtg0oESu7Z332x9pmcj9runXtcd2c/539t9TyPsw2sw+WupSRd3+6Nsh7WrwvHvWpQgesXrw1kHduLuWd3t8OPLxDgcg7oCC3HHm3FuGfOEvreN0HfMYVgHNbid39aJUZc969aBtE3gnxGwQBOe9lZ9Udj8fT+ra5X1uNTv95sCdTr2NSy3vGIwE3Wxki714gB+Q9Lb4vXkydd5D3jFyINzs7cpF32oWjrwoi74AEblreI07KLO14QMu6HUa6+cw8n/2aC88qs0feSY8NkXdC/AZBnA0WZtuAkjGvLQf2oL9bOFZ9fOgfE9bTyvt6yFZSgpue1JF370J+9sNcgrynw/fFi6nzzrookPe0XPTx7OzIYYZV7zqrX4PIOyCD25b38FM4S+5pUMpNK8LO15NJmpvlnlVmirwfA+9QbYYSv0EQZ4OF2TagZNhbKrndw8wZrt1Hr3FKK+9ZhtpgsNSljbw/sjeMECfvnYVensdFYnkaxqQ9xT8E1Xlnu7xz3lOBvHNzId7s7DCON8l4SCTv6C9A5B2QAJJ3L9xyg/Ie3lcmO7nPCer3XG8o2xWrxjDdhYJnlRki7wVO0iQgBF7QBkFAznsFsNf0Kt8YTLZbc3vs5NPKe7K7+ddkiryzN4wQJu+7kVMiRtkGHGD8kXch8s6+h+65rYO8c3Mh3nQSxITzp3PJe5O14ujJfnmHyDuQE7cdeV99sJUrssxSHlgZMqxbXtrf2VpSPKvMEnk/liuEajOM+A2COOa8o/0P8l5S2rbvRJnZx+8xrbzXW2wlJVki70d5F5g2c3OcvvjZPEMXcoKVm2md380FeefmXLzdDxJES9ioc8n7lp79+Avzp81A5B3IiduW9/Aaju3wQjSxBKfIBCbi6GbD/3kS4TVAWSLvUG0m+QZB+CfFAXkvKdvzc+/YmqSV96xSJiry/h3kPR3oi2fBEFFtKO2iNtOzuwIg79yci/dyShaNZBEzPnmnL41PHIi8AxLwyfvNzbCKCE1Fz9I6BndxrnH1brd9J8Mn8Kwya+SdAZF3QvwGQUC1mQqTVt4zztFEmq3UkffTxSRE3tOS9osP5zu5j7sbn2V4grxzcybezSmZ/ny1T6bUXAVcdTqzOj6FIfIOSADLO2u0bzHyHmpmYVkuPIT0nquzCdQt6x+tYaYbq957zxB5/wnVZpJvEMTZYGG2DagIaR0uqx2LiLyjoxLkPS3i5Z2OlnKfzvY9yDs3Z/Le75LJmfimPD/BdUqZxJ/J1wWRd0ACN5424z6xlUsSz3fqI+w6fWv6M2cOw3q289qzyiyRd3+5Qoi8Y+I3CAIi7xUmrcN16RQyqckUeWdvGAHynhZabQYzE9WGUtN82zm+Ggog79z45b1VJ7faP0OrR4QQMZvjkcOY3MUnNTAg8g5I4MblPVS0MxRcdvdhaezbSZ/pe3NptxM2IFd4Vgk57x5yNgjiNFi4YHmfnYrl1U6rgh+zp3F6nt99r5TtMduz10zD88H3SpEPn7y/3mt8NH5rNB7/3sxEw9G0xz8ajT57zQR8G7A3jAB5T4v4yLvlDrF+9msr89RXgbxz45N3dEyTQhSJ9x5HBdetYZD76GSIAkTeAQncuryH1nPnGqMSSFSotjaZ4ppkw30j9csf8awyY8479UeoNsOI3yCI44UT+gKKlPeFbXq8vbAV8byF1nXiwBT3vjK9jz9OuyqGIftuEX91OXk0kXini5of2SILf+k8aGP2mknokLdLmgOQ97TkIO/WwkECqNWRHx47K5B3bk4deQMd0rgEdPIWPb6y5MpYkzjgD6L5EHkHJIDk3bvRd5PyHjpCLP3QsehCNS6OzPGMf4nFa4MyRN7PUjcg8o6J3yAIVeq86+aCvQuM1xiIpvfI/lwajLqwt5Xpfdw12KvEcupVf/ydLWOxkVukzFc/8on+j9MrTtkb/CxP3z7Ie1o+3o87UVwbir+LDupVVvdepiXIOzeevDcnuEc3d1bTTH7PO66Eq9uffeJiMy69OwKRd0ACtx55D5oNlZDe2WJi9p+khxWA9w7F5LxD5J0Sv0EQquS8L8wffnvPiYzyzl4lO4rLe8p89TNwe+ALAHPjvWfUJIC8pyWfNrRjGLSfarFhUyDv3NDu2K3bZM9tzVaaybNo6lIo2/mMFuRnJwhE3gEJHOX9JmdYjRqYOgjLXI9hRytG5Y9nlZly3om8kx8QeSfEbxDE2WBhtq0IcNWb/O29IpF33veRVt7fXtNO2eaxdR5Rq5hK3k8fDuq8pyWfNtTVF+iH5jiOPTZx3qUN8s7Lh0F22BgtJjPrc1tPJQ1rMyKCXsNVoFf26lijDiLvgARuPfLOJrALIG1HpT2wlbzxrDJT5P14kxeqzVDiNwjibLAw21YE5H3kbu8QeY8Fy/vvy6xHm05GzGWJvCMg8p6Wx3e2C4W3oa6hHcdD63cg77w8bv70mE3+YhuTMzPCYu+/nD7Jw9GHjsFMHSLvgASwvDN/u0l5Z2dYAIt0u4OW5ZWBZ5UZIu+szjsBIu+E+A2CUCfnHTcAedt7VnnnDXnHkVXeOd9HWnnPfqlID9cU8j7z3jP6iKMvIO/pyK8NXTZIxiV9PIC88+LPYnX3/2BrydmZ3oCDVeeqZNXzZGFZ65+em0DkHZCAL/J+izOsRmXHkKpSiUk6/0N6PKvMWG2G+ghUm2HEbxDEMecd7f+C5R2Ts71D5D0WQfJOXiBj2gzIe1ryi7yf7XvIeefmbAhaljElq9awXUOO/jnXroPwM+NP9NMbzQaRd0ACt542EzG8dOfdBEvCaigr8H7s5zPlvLPvHgGRd0L8BkGcDRZm24rAu4DL195B3mPB8j4fBzlzEtbTJ9QqJpZ3dAD43jOS9xqLKZ4D8h5DrpH3EyDv3JxH3kNDdTxsD30DnQRBp+jn2VA3iLwDEii1vGvjZ9qnZOGdvdg1jRSDx9L8m5R4Vpk18s6AyDshfoMgVKk2c7yAy9Xee090KqA0PDwKlPcs7+PtBqrN4CvKGZL3wJJYEHmPw9eGdsUKtjs8QM57Ch43vt1GJkHNSEgRaX8bDpF3QAJI3r0AYPnkXURf8scXtnJN00581Zzin6TGs8oskXcq7+QIgMg7IX6DIGiuOaHYajPHC7g87b03ZVMBpeGuxl5FAL+x10yDnbu8p7sQPyeFvJMDEb1n74Ac1afBcREBb6/a+NpQ0YK9+obLplBsWVURyg+tNkMR0qttumzljLMhchB5ByRQysh7c4JORNSP5CzvKfLX0+XJp8OzyiyRd3+5Qoi8Y+I3CEKVyPufvmOALXOg98FW0tBg85aKgM4jmoqZk0bee3VOHif6Ik0N6ktGy4U+Zq+ZBN+HCz39BU1RUV18Oe+CI+9nQNoMN+F5sWmZtGfHWL73WJL5VT0g8g5IoHzyvvupL9/0ReduoU9a/vMn3cOJSjKNniz1mpaI23K8eFYJOe8ecjYI4jRYuOi0mZOz2yzAqhiD7/pPQY/NE3vNdPCm6fkuVZyhwYfz6jgTASNmlo7jvM3Zi8YzMMlz58aAvWF0OOR++leW/NJmzgB550a8vFuHyYgE8n18OTtxIfIOSKB88j51nPlv1ue76Tgfb+zUycAbnbIuGHeSSIyDb6jlhWeVWSLvx5QJqDbDiN8giOOFE5KlYuX9eA3xYy++o6N8hs+nwIGITHBGpvfBf6fPl7aS4FSSGNd2FzvLrTsbq1Pfsz88Pl3EgbynhbahZE+CvCtBDvIeC0TeAQlgeSdNTWlmWPVEB3U4ndwz/5qhUzMEkKo8TXo8q8wQeYc67yk2COJssDDbVgT+95GbvFvbF7aSBhGZ4Ayl5V0itYE56ja6deQ23g1/5d9zGUBtqHcNBPKuBEXIO0TeAQmUL/LuE5385d36Nee+kb125DYTnlWKyXmHyDslfoMg1Ml5x++AHgc5yjtE3pXCHTTrtjvUNbthDwbfcBUAkHcBeG0oOp9A3pUAIu9ARSmhvM+P7CU0YYs5ZzF5fS65ldBfaAE7+44sE8LknXzzxNwg8k6I3yCIs8HCbFsR+C/gFJV3iLyLR8ezRI6eHnr7l+2CfO/PNXYJNwN5T43Pp/Is5wjyzg1E3oGK4pP3ksyw+vJ6ZCijj9kaG7YWydLJNP9DCjasZLXZf6ArifDkfcbUDarNUOI3COJssDDbVgTe+8DHgRx5H9JBnfw8C5iMjbEasNfk5on9S0SV5L23P+z7o4+3ueEYQ7J/ZZ7+lcX4i+1CiLwrAkTegYqC5N0LvKkceX8ghREIXlEEhJw+xu222Fo4bidxVcnMbD40LBesAMZzwugkaVnOUjcg8o6J3yAIlXLevSZAjrw/zsvjhru577upiryvHtzF80bb20b7by/v7oJuBXkXgM+nQN6VACLvQEUpSdrM4xdWjLhe/8beLkJWH1M3o0rSIDZS7gFcsPnwywS/WFBIy0IEkpgbVJthxG8QxPHCCe3/QuX9eAE3kyTv9teOzJKqWZg5zerJ+9YYzibfhsPadnEY/rj/Tds2sb/7SpSDvKcF5F01IPIOVBR/2swji20bfdkZILH4vPJ0wMrrY3aT+4g797rRLaCBQPJe67NVRDp5L27Aah4xcTkbBHG279m2IpBUbcYv71ur1ckxICWOw2TFumBCReR92dAm7Qa6fmpa1mr+8OaYe2O/8LWxszy9s9qAvKsGRN6BiuKT9x8tFtuuv4gbICaIguXdsmZm5ytbvWDRd9h9Z8lsH63Gkq1nibwzIPJOiN8gCFWqzcgfsIq70556AYJrWm30o2Lyrpvj587kqeZYbucJfQe7j0X3Y9UbrWRNDlptmE/hUwrkXQlykPc6myPGR+fsr0DkHZAAlnfWedeO7vYK8n5NbzhsXFn6rG0bNbYuG+RD7um6IWXknexHcgBA5J0Qv0EQeLAw29vFVpvxXcA9SpN3a+b8Tn9TFrdLknsqJu/tjtUbGx/osr+hkSo+T3ha3eflWRubZ6GUauPzqc4Xti0HQN65ES/vk5Zvhnb26JlstgQCRN4BCfgi7yd5N/9k/1UZFJB3y1ovjX1Hm+mkNVjrP7TuYHLITXdiwT60Nb0AZkp5n3kGCdVmKPEbBKFO5J29CYS8yDseCiquhkwerBxaZapi8m61xs/Gs/NmOvtfZl2rWcPRpD5ud7v+NhYi72mR5FMg79wIl3c8j/rn1WPhHzEIkXdAAkd5n53kfWZC5D2EZk+7d3Coavzm9LVNobf+iQ/98NLes0TeCRB5J8RvEMRpsHDB8l5Ezjum6cQMAy+UrcFualVN3q3ZxH3+eNV/TO3xSOs/DLsdbTrZ7H/ZIO/ZQT7l3U8DeVcC4fLuy1X142/DIfIOSMAfeT/mPIK8lwHqQ40OrdtuppL3o7hBtRlG/AZBHC+cUGdfpLz77wBIlXdrNTnQFQVZHG+DV07e23Nz9jR/NcfG1OyYxsdve6O56Ta2NOedqCfIe1qoT5GdCPKuBALlfXvoG+PxuMN+PWNnshUMRN4BCSB59yIFLPKOfoWc9zJAfcitm31i7wnbKNKy/FncgNU8YuJyNgjibLAw21YExQxYpbTjZ1AohtppyrXKybu+/Go1lmbbsaZ707l7N1s0OOg7/UHe03LyqRnIuxIIk/eVNmzXFqjHNQJy3mvejToCRN4BCQTnvIO8lwDPh5ImzFBIy1Jgqcg8YuJyNghClZx3f7152fJu1bs59m3pWfZPb6ty8o5xzcX+7a1vNPv3be/2h3f6o+MA5D0tvhlWQd6VQJS8fzXrrFFYdViJGcp4gH70F5/WVm/SJ0DkHZBBoLxD5L0MCJF3sh+JwUPknRC/QRC+C6diq82cqt7IrDbD2JxC3OrQ9k+XXEl5t2r7jrMfPw9eXr5Zyw7REnT6ewcCVJtJy9GnZiDvaiBI3mdG2OvsRt2V9Yka0lfnlTVm1PJpy5FjdALk/bbxyfsPz91UHLB6mmG1wd4lAuQdk03eZ6zDhmozlPgNgjgbLMy2FUFxOe+ERWinWBRu/ywVv4ry7rbM+5fHodMaPR6sbvswxSFD3+kPkfe03GtsF0LkXRHEyPt6HhFk2BhfLWv1uDqWj4DIOyABLO9M31SOvD+wuV8RA/YmESDvmAzy/tMvkBB5x8RvEIQyOe/4fbAmoAB5t9bm1ewJhdK8mLihivK+3h9087n22+ts1XGmM4O8xZcDe8cg7+m5O8WWQN6VQIi8u8OoV/lcz3XSwn2ySjQQeQck4E+bUXiGVR/K35GWhYjI+1HcoNoMI36DIPy55oXKe7GRd1xQvahpzoJYX5afr6K8W6tvj/bAaUwX9XZnPKXDhn3p2iDvaaHyTppUkHclECLv9ZiR9Stj4U7Rks2aCJF3QAI+eV8+sti2ofTU5SDvDFHyzoDIOyF+gyDOBguzbUXgOwZmhci75faDKycXgT6/3AWVlHfL6m76D8vF6rE52bsGuV7xqQDIe1og8q4aIuTdHcTFz1fmdoiLy+5e8W8QeQck4JP3un+OMHUBeWeUW97ziInL2SAI5arNIIqRd8tqtNlK0bxPruIWFZX3yQZ/DevxoNfS+mQuWaYC+JIS5D0tkuS95s3NB8SwGrCVLHDs7q8GvYFo4gthiLwDEkDy7gUAQd7LhQB5Z+JGjgCIvBPiNwjCV+Wl4GozpzsARcm7dfDVZiyQeuf6bVRU3nuDY25ka/oLL0AFBODJOzqn8tyJ/tMJiEJI830spxrO5/fnOl4Sz4fIOyCBCkfeF/pXtlZNRETekbgxdZuNa7bGxjzU66Nxvjyz5RGFNzyxNbE8j+d0x2OKlXf2JhCFybtVM7waycXhdoIyWysq75bvS6B+ASogAEmRd6tLbpYAsUxmbCULPC/yaXbJEofeIfIOSOAo77OKyfvWnDtDNaeAEYQQeWd7EjGuGX9nq4AM/qazex4Fy7svdao4ebd2c5wyWiSrfuCJVFV5vwJUQABI3r0bWa17ti0PmsPiL3bLwLLDVjJB0tnj2JlkgYcjQOQdkEBVI+9NMghrM0E/9AdN02q5aUlhiJD3o7hdVJvJmVOiBqM8G8SAX/ZvdBWvFynv/qo3Bcq7tZ0XW+Pqdyc4vHZj8k4OeFCBtPgi7/n2p7pdL/pqV330SUAeXAqCW6wLtrjcjGXNkHNA5B2QAJZ3JiiVkndWcLVbbz85yN21vm23NyoX0UmOAHn/01/xRKK8Awjf3i5S3v057/JnWPWxmryztSLYXZaI9Mgq7/MhnUWdl/j02pwwnp4GT4TBE80AABJzlPfc72R/toZ4Xn6COUc/5q/0l3DmJv5pGOSXYOiLRD6FQJ9B/m4Yr/FPIXC8ed7PR55B/y7CGIdcjyeGS95Xz3TxAZF3QAq+yPtfhrVmhz0fQu5IJYZL3ps2PWd6+4N38mwP3Y/XVuKzeatvNA192K6m6T9zPBGTIyLyXpi8n/4uozwbRKGIvKtQbYbidsiQr0KYOWFpCFnl3RkNjZm+4H4EJ+9I4LW9xHxH/++CvKfk7gv72mUEw/7xJ2O/QT+WJv0lnOUe/7y7I78EQ18k8ikE+gzyd8OYfME/I59C4Hjz+43+U1+aP9HPqAd9xuSLdy6x3ZQdLnn3WgpzB5F3QAbnaTO9CTvsuR7FKAeXvLeYBvTOLzB+1SfjST0kxBbAL818GXW1B/RhN9qD4wz6PXVSDYVE3sl+JH4KkXep6Me0GbT/izmTKL6qNwXLOzptxdzlTs7hukSkh++7SSXvqJGqm4tPi/eBI3eFwNKWPtH/e6ACKZGWNoPBXxWBnFHxdVV0chJG1oinLxJfRp4+I1Jq6dkS770cb57385FndN7ZmSSO+A+BYS0F+ty0FaO/59iigbzfNhfy3vG6EJ4HvU0kGx55d23m2LSC8RmzlvnRPXCcjdu2bWpM9FlL4NY6e+MYyy8YIZH3o7jNQN4lo1LknR0FRcu71StmfrhWRJ15AfJurecJooCGuIhhIpzTmAOQ97RIlfcjVG5jJ6TgkXfyIgXIe+Sb5/185Bnp+sNI4j8E5iTvEHkHJIDk3dM31Ni8J8qEKUY5eOR92aDLZvDMaKtN2zZiTvFmww42/EXb5mwd1nXHYIUBTxiOJmigkQh5D5ukCcgXHf3/b6eIdzFnEoUcA6rIuzVzfmdr8nC7Uek6vu8mtbx/bt/4r/hzkA8uuuPn8QdqoQbo/zGzwQNhnOR9Jl3e4yPTL/hntLxXIPIu/vyJ/xCYMQ08oL8PkXdAApeRd7aZC3XlnUxzhogoFLXoGBES7WrD8Cnbmx2TI3V+dz9sBaTdLfSHoYPf3u6hu8wUZhQl70Tc5FabARCKVJth5ULJUVC8vIcPHM2NlRNZM1uEvFufCVrWHOSDC2wZ6Ksh31SO4cJq86XDvnaIvNPjON57Od487+crNvL+TJ+F/j5E3gEJVFLef3izGZtR1ecW4Zowsx8ivXo3uY/z7u8Rgr8w69Z3Q9t8GWYRFRHy7husCPIuDRrnJvJOVwuVdzXqvB9piioRwck2Jk1FiLyf4gnx9Mk06/LBloG+GvJN5RgurDbn/aksqNy+0V/CmZFK5NHyTiPvEWlklDa3vMclgbkD8uY5Iu+xn29TaOTdHdNnob8PkXdAApWUd29CtJ3PGAJYmSG36JeT2GGpM5NMKR5KhyXuBPJptfoOPqm3wwzX5SLkHdJmigE7u0o57wwV5N1aTWRWS1yYMVlsguS9zp2JwmUKOUAi7xt9g78piLynpEh5H8edN0Z8WJ1F3qcxHeBuyi3vXiAtjBZxXp7I+zjuqtYsNvJ+kneIvAMSwI0Nif6RurTVkHc21ZllNaKaKcTWDIqfu5Hi7bE1opoSr9pNKOyeACtHnwoB8v7zvNrM0FQG+6WyDNnyDy/uXnS1GfYuEErIu2W15aVc15y4W2iC5D0+Y5fB/UTRYMtoO88O3vkQeU8J6k+900l+5H0YfSzX9hzyTiPvZoxy980HvOCRdzNauZs2aXS4Iu+s/nMYy6LlnS7Q36fvk/6e46kE8n7bVDHy3mGTvbixLrIIaF+bDt/J7/bDG0E8y1o0LLSxyVBQWUTk/SRus3HtKymWy0rrFsuGVCT+N//VvyG/VWhJaqyi5U/92wvb84hiziQKTZ2ix4Ei8m7Vu5LscdmP/UO+7yaLvK+PM+pEMyps3nu/cUDkPSVFRt5H0fUmmuaGQ97ZU7yb18G8d/hz3mfzyEuKkU7fPPm7YbDPF333amvQz1e0vKNdB5F3QAIVlHdvgiarFtkgEK7zS+NSYH1oYXvLHcae7EyTjjcJUiBE3tmeRIxrIivjZoR8tn/5r/+F/FKx5SddLl+OMTpVct5nqsi7tYkNiAuhzXGPzffdZJH37V4n18Zxj7ncjH8ffuOQdO1UPQqV98gbua6zWHDIO428a64RMUZj4bj88r7VJxEdC3rH3puPwHtKOyIxCL1j+vmKlndHh8g7IANfY/NXReT9mLLSj8+dvWozUBPH1jgIaysPseN9vLQZ94ksUiFC3o/ihqvNkO1qgD9bjAOXffndi7wjhS/mTKIol/NOWBi5vZUjLkcDcdbKZZJ33w6IIksiXTYg8i4A7Y597VLlnQSc8O3egHlNGG6/xo7ByCPs+JRt+Am4NZqsGPM+6i4R9fuPlXUItwrcU5Kh3NH3qr2nuOE3BNz+D/bmu5HFo1LBJe9b1lKgT4xPn5o2fsCdPETegZxA8u7L0auCvB8naGqisygO97IQfLIzP6QtGUUVuaGM2N8Zpi/67ulABnn3i5tq8s7pwKVd/ltl0maONwAUkndrbSa4ik5FM3LUyhHfdyND3r0pKuQDkXcB+IJh749sW/6QaBEOS7v9EDNf3ePDEBdyWnn9YzD4OoA85VfYCbgw0fnbtFHnOou8tb3GI8o2OHl+GTZ/cQv7xtJ78+GQp3TRJ1iNQp63muDPR978m/i8syTyjm+m49PHbvzRwOc8RN6BnKhe2syx91vy5JP7phXE8NeEIKzmQe692sefsB3WyEbnFkYiQN6xuHnqppi88zpwCZfkLvK//DeKyLtSM6z6WDn5HpBrzoLyvu9GhrzX4qpz5AZttOjH9YcLd9olJKIIBOGLvPfkybvVNjsmvd3b6ASJ8togX9nWnPw2jO5x0FPu6FNWwYO/eiPyB96HnUl0NrvvKTMnsJ+kk6O53eObDwM9pT2kN9TbjaDO9fT52JsXC5+8D8gCOxQ+fdC/Iec8RN6BnKievL95fTLPTEoX/XH8QNML1kHt13rIViJosauEDHfJBcg7i7wTdVNL3h/5XbikS1/kveBqM0zd0U+V5D08iigEfc75WSXLO0/jkQ8hkfe2+cCc/YSTqJ+4JXz9qUx5t3bvqNtb3TkdrbP/O9t2ZPVtqmn3Drbf2XtcXNqdbdBTdiOntXy7nsdwNx/WGyMcwW/2YvtX+pS6M9FaT62rjvIw+KZ1nD7aTt58NLsDeiurPvp8/f1VR9Vse5+PvnnhcE3S0KNpUriRwKePJ+/xgbzUgLzfNtWTd+9d7bjazrP+OMUdt6D0dp5LAG/uV470+DAEyPtR3LBAKiXv/y2vA5d2iXPevZ1fzJlEUTPnndBIf3LE8R52J/8K33cjQ97dKVuRDm37LnMNgxuo4jLzFYf2p+S8lirvmKax0XuaMxybrHIRYzQYG92Hmd6KGql6jm7oi3rbGUzZS3iMxgOnsVzoUcNZL+ho+kzrGs979hIew/HQ0d719wm33a6MH/jz2ZefzxmMna6m6+3cDsp7jjiguydnCsnaPeA3ZTjGB1qm6p35AHm/bXBjwxSiGvJ+7CQbXBkwZznuabqkgItynr1Iq1oFF6vkRIS8n03SRLarwZZ2fBwOXNrlUpWcd3wMoCYAtwKKybt1iK/kmI56h/uFJct79CDAPKEz1l1+ORd5hYwsVbIqTVGRd8yx31noiw27R6Jp+kL35iIc8F6w4mxOkty3Qi+1ZC+kHdBLka2fVnRRyjO882erI4n3qP35p5dRH3yABXFMiEVvqsdeSKujN8UOWe5TLDE8YtCYkieRNzlf6osaemM/9EUrR6sGeb9tKhd5P9qwwZM1c+bexxqTSQjIUeXZizrr/Zp7ukyBKHkn124KVpvhc+DSLo/yjvZ/ofKubuQdnV1GHirrdhIMbZEt7xyj3fMhWN6vi+li9KnjtLW8hxSXEC/nHZ3U0uV9cZpz0F+c8bj+64WtxNP2gvSfwS/V4h9WPQgpycBe6x/HNNdYZsaxfw58U16fKp7oKvSEWR/nErFyGfMFflf4jX32QN6BnDjKe1VmWD1OezTg6fY//dVm0tWYuh5yyrMXt560c5TECUGEvCtcbYbTgUu7pPJOrpyKj7wzlJN3axc4JDwbq36SM0a2vEfX3ciRYHlfmAHt6NY8LPSDZuwhe+YCXzBMYrUZxuY6R93HIUH1VbcTdWtqddfmD3Pt5lHd6iJmAtYzeqaoz5eQYwW7UNbG6hE/h+rH/HQB/g7yDuRE5SLv3r21Jh37HYP/kjrlreDrf8azF11v5/HPCXWJCHlXNm0GfTY+By7tUpW0mWPOO7qOUE/era2vIxTD7yRExo1seU9Y8EocwfJu1faXKcaO+dGj8c5mI346utuiN2JfewGRd6yQoVdTq+63RPeVe+GDNBdGoigX+suhAaq687s/iB7H2gw9A5N+vmTEDU1bO7+vsHA06aXuy/hEfNA+NSDvtw2Sdxr8q4q8e1M0zbiSyY8TOiHSTu5wFXrn2osD1uulD7QJkPefylabuak67wVXm/EagB8/HtWTd2s1eWdrYthxloj0kC3vx1uHsrmW9/p4itu23aI1bemL08MXb1hzFeK4HZC8e6dTAfJuuQ078Bhttuykvdva/OMXWz1j14+M7wdxsB8CI9c9u5VQuN1OsL6n+HzJiM7MnxmstAx7mlE/tql5WjXI+23ji7xXY4ZVr4Ml8zrE4ut63H3KBJarq3KuvThkPWD6QJsAefeJm2LVZqpc550ucZ13b+8XK+/sTSAUjLzjDtt3hZ2ZmRN3B/wC2fJe2FhQul98X47uWCsiavUJ+omzn72Hj386YO8+io28I7ad/fLy/Fo07HqKzq1mOrULuXZroyR5Lh4rzW5c3mHeLvedFM3NrmP3BH2+JDQjcnJWrXv0111zbWkPdIskqwZ5v20qlzbjjffiqhu1+mAriNk9W0nKVbfMtRe9KWjST8oiRN7ZnkSoJe83Vecdct6jafHXhonjwF0i0kO2vHM/UTSX8k5SADrvccN7t0bO3lQqCpd39L017H0XV4ahjwdnaixTnj96f2o2NvpP+tg0zGk/ZRKbuzSmDq58Qx+H7t5uJLyK9th2bBt9PvamMn2+BPwyfZ+8efwg6HHY3+v4Enc7sL0a0T6r/gLyDuRE5eTd63y4is34zTl9/spl2jrXXuyyP5d+UhYR8o7EjUZ/Vas2U/0676pUm1F1hlU/PTyViwhaXPfjzpAt7yR3tggu5Z2EQfo1N25477GCH4CO1An50vH5VJS8I5qbb2x4goOMOZPZ/lresRdyustMN1lc5NmMUTvbXEpb3+d7yPb5uPmH02Wnxtp8ZH+bMnKc4QDHCo+nDkTeAQlgeWc9dzXkfcpOZa5iM/7eOLlSeGgXk19w7cWO949S70UB8u6foEexyDtZcDhwaZfK1Hn35byrKu/WzPFqVWfBpfOxJ0O2vBfUrF7JO829H67jgxrDpDnQFcYXeZdfbSYPkownlUYRb+rT2timVtN/6i8BPeXqzt82HK16BvIO5EbVIu9eIgxfsRmfRmSYLekyS5Uv8s7ee7GRd5+4KZbzjn/yOHBpl0jejzu/SHlnF3DkvSgr74mHmQaxctIMartVeSfDgdwpR1z9Mnhxy/jl3ZeTCVSC3UPfcezAu3dn5zdE3gEJVE3ePRfmKjazfTldwif76Odc7Aiul/Lq1RWc806cjfxQT965HLi0S1/kveBqM6eLCHXl3WomK/AYwDZdVVbfdyNH3ouaYvVc3mckf3f3xDF8NkPco3L45L3QS3IgF7AvBE+36k7ZCgbkHZBA1eSd9jmcxWb8HzdL+OjCRrj2oq1GtZmjuKlWbYbXgUu7VK7OO0JhebdWk2yzFy0iZ3gJR7q8p9s92TmXdzqz6mbMccFTWJa+glB5p40qyHslCZ5u9SwIB/IOSADJO21pKjLDqvcJuIrN+Kf+zjKx4UVIj2svTlknmU69MQLkndV5J6gm75wOXNqlUtVm2CWcyvKOTtEs0xfVnJRjXm9T3ln6ocbVIaSfJbpynCLvM5D3itKYa1d0zmouMavGrSrIO5AXVYu8ewF0rmIzA98J5xf5pFz8W569uHpmK8XPsErETbVqM7dQ550ZM1oUKu/kAo6+F7Xl3ap3UxeWWPbT/lPp8u4Vu5XNmbz/oIFEb2RONC8FXW4oCKTN3AALZuw+emdjaI9WDQNWgfyomrx7AXSeYjO//Pmc6SX6KmrPsxfXe7aSPmolQt7VrTbD68ClXf5b4xuigX98eyHbisFX532muLxbm7Th83b6cobS5T16Msf8oFlF9K+7D/TOJd8Q36LuFSgIknd6HVzwJTlQJMSq6XEA8g7khU/eKzHDKou8bz03juIs3TxLB3SRL8+zF3V24dDkeaPBiJB33wQ9asn7DdR5fx5QPgaDIrv5suS8ExZmmn/rZkmXly7vk6wjc1NC5Z3G/d17WtyH7y4AyPsRiLwD0qwa5P22wfJOLxErUm3GJLfHg0eEX3DWM0mW9w0bWBs8+oULcfJODgDFIu9kweHApV0e0DdP7rWiH0V286Wo835kaya/Q9bkyqELQ7q8pzufs3MWeWfvlu8uwM3Le1Nf/Lifz+cLqzZnXzsCHzl/R1u7ur6AUQG3BLJqr1EFeQfyomppM9bM2GzXrSFHsRl34E+DFZg2o4/YSgRLtqcP3+gyBSLk/SRu6lWb4XPg0i6xvHsUK+/426cHgfrynqJYe8YS8Tcm7yzyzhK5IPIew2Kj9Z3xo+OYe01zvpzfy0T//Y++pj3NHWcwdrraJkMfA5QIiLwDEqicvFu7rj2s8/Q650FvgQNWefrpFgvWc90iCEaIvLM9iVBP3rkcuJDlf9fCg5T+9d/9KxmslG45Qb39l9/R1SZaL1TePd1AAl8Cebfcu2SnjO5k+1A3Ju8s8j4nv1gGyHs4i/pkanS1GtlHOGKjaVfyjr9Munv0jdY1pv3lL/wLUGlA3gEJVE/eKSuH9kURdN7ZCiGDRdPJCE+4+/ibpB0WrM+Q4CpC3o9djXLVZngcurBl441YeCY6Q02bo0s4407TUszaL4xS5bwTGjxzOHi832fMWLgZeaffCou8M3l/AXkPZnXoD4zW7HTvFoeCkLz7z6ZzeSe4tYY56L9DEk21QVYNaTNA3iB59w6zSsm7tTJijOg8aybDZEmW9XhR2oYjiu/d/M/Q7wmQd6jznm755Q+ymgkcqluOEejKr8jO3Eudwj/LIe/WYcJd91HrcD81hBuT9/PIuw3yHoC76Q6+1c5PWi/y7htBEiDvmNWPzv5OpcYWEA1E3gEJVDXyjlpYbXiIkqKLUHuyj37O5Y44m20tmCHtFc8mVU6IAHk/62rUkncehy5s+SBC3n1ZW0XKe/ki73hgC0clWITbOR9Kngbp8l5UtRn6rUDkPY5FZ9+9HnfBIu9niYhoc4C8I9xNf9CGBPjKQqyadq0g70BeHOW9IjOs+ll/Gzj1sCZy4ZyH5Hb+ou/JWBhs5chFHk0AH7RBz/BXxcg72Y+kmVFL3tWu8/7XYD6fO5j0yzdF5B0dA8cruLLIO+cg1NV9qlPjHOnyzlfhRTz0WzmPvLMYQwy3JO8zx+gFna7HyPsPnX3xEfKOWB2Mor5oIBvN7hTfMT3DPPsuIfIOSKC6kXeCrhmD/iEg/b12Np0xJn0PhNrsCxbO2YRrAQzoX9tkOOfEyPuMmZti1WbUrvP+++C/+jd/Yv5N8qX+Ez3Q8uA73pSIvKMDoTTybm05zOd3IXYkXd75KryIh34r9K//k8k733u5HXmvmfche4RF3v2JiE/otA6Vd4TuOAXdZAEy4A4316l467O2BuQdkACWd6ZvVZR3xKrWHtqdzfl99nr/yq7Tj1gNiLNvumwljCFttrMMkxUg72fDq9SKvJMFp0vLX445nxex9N8SKjTyjgctsybgsTTybq3uz8abB7AzeKLzsUiX96JUmP7Z88g73+XPrcj7xuyHHlL+ajO+sylK3lH7OzFB38vGIWi8/OfZ+c2sGh8HIO9AXvgi75WYYTWYba+7NxvH2gA1J2B0Km59UxHYLS8jJ3Jf9RsGfjPrYYbhdALk/dTVKFhths+Bi1nSQ5//+QFLZeTddwFXnsg78suYfHadMy8+jhuTdxZ5f6MNE0TeT2wn3YgyjwE57/hsipZ3dIU56Ys5TAE5fNVDpmv22xBE3gEJVDxtxsev5WTqtDVN6+/7QV0ST4HHQJYNtnLGwq6Hibn73a5ZvWFL66Sa7N1DhLyrO2AV/eBy4GKWpD/meF7EUqnIO6NM8o7arqhKMgkq0kQjXd73Bdkc/VZY5L1Lm0iHq1G4BXl36+xmaQj+yDsLiPDIu2XVhkUWigUSoH+zx0NnziZHP+cs9gfyDkjgduQdox+QvNdCOsd0Ehx2a/lzpU0n2kZfXDw2Wn/QwLK2rWu9TH4hQt594qacvPM5cDFLXBGE53kRS1XknaROsWu4csm71Quv4Z6oFnwk0uW9mGYVvUPyk8ba3e/0tsaE6xPfgLzrZiu6sb6KvM845d1atcywqgqAQqxHDh2nNOm/k4FL/od2FocjVk3bVJB3IC+QvHvB1xuQ90hSVn75Ff7PZtodKS3iY9TVanGDWTkRIe+0qyFHgGryzunAxSwbS77nRSz/S/KTUmjk3Xf3pWTyjozpd7Z2jtvNMJbkgpuRdzqsn85RsdrRQGKDKypc1L0CabgN5ytbDeNYbQadTeyE4pR31IUYGSYZAeRQOxWU6XVZb07Yj9GP+j/QIfDgjYiAyDsggduKvEfT+M5WEhFfFtKPIHHHCJH3mdfTKFZtRu0679aywfe8iOV/TxaUYuWdfv/4R9nkPWRQ6sqbAk0EsuV9NWArsqF7kn7G1adNhPww4PHyoi43ZLE24q8FU+a8M+qCBmgAedHrh915WTWG5Lr3u3MMv4O8AxK4kHeTzNzOSTFt9tvrkbe4ghPJaNop0lh+xE/IlBPb6ZywH9JlMpi8s+8eoZa8q13n3Zr9D3zPi1gqE3kvbc47pmlcJ61thaYhyJZ37ieK5kzesYgiFmOOcM56yFYqyoanbBGLvK/t032s+GozJxZDlZpf4JJZqLtbn+jibobO2z36FtnkMcyq8aEA8g7kxbm8rx6Yl3PB3ZUJZczsE7EXfLeRdliJcM2AIvJy+PpEvwazT5fJoPJ+FDfVqs2oXefd+j/8H/meF7FUKuedUT55t9yr4g+LTMPAr5At7xFpePlyLu80krEacMz3Glg7rzK4nQ7P6cki79s9+9oRCSLvaE/3GylCR4Acmm+Rx8Bq0qMnOCteAZF3QAJY3kmsgMywWgb8nekDWxGES+8VJyG41IwUtrbGpnfDPAcOmw2H7MY/lR2wqnid9//6/0R6Wv7nXy+VqTZT4px3Qvv8FNxEFmlNjmx5j50iIi/O5Z1NQfHRNCLqI1I4/L68rOY9rlRHFnmn8k7PqCSRd8SyX2QzAEQRMx/Lp9XdWFPcJdBzAeQdkMB55L0M5Cjvln6fMPqxmxcXLtnafpngFwsK2Y1ql4rkcuCClqQoB8fzwpdqRd7pcVBKebeWXd9JuLwTfEbKlvd6UYMX6bdylPemiSMZxmJrxHxdKQf6l4PfHY6UGUzWyDtiJviyExDFah/XqLgTnQx+oycDsWrapIK8A3lxKe/upkXHUCekLW3Azdhx5objvL46zl60vCcNpK/E3qFPxtb2jy9OKe/kmyfNjHryzuXABS1xhhXP88KX6kTeWTeDjoNyyrs/2H4RhheAbHlvB88Bkz/0WznKO61c7ejIRyJv6rnxofnysuV191Pk/RQOSSrv1m4eXDwJKBiOQh4rc05Gyfd/oB8QeQck4JP3v5C8L8xuHZcj32gNc0rWOB8HEqeRAfpryzd90blDf5W3ZeUnUdfpTn6ytSJAOuCzibTyPmOdjWrVZngduKCl7vA9L3wJOe/i8NLcrxPgsyNb3vkmNc0BugtP8k4uUOfoMP3HJKpgZExGwYnVRuuwUI/HRFtGDRlq9q7+RV+jtbbl8Is/OCMg8m59rp3CRlABEfBYwY8xuWVGQu8g74AEkLx7oYK6Ya3J8MtPWtBwPW+5ZJ3nIS9VE/Ur+sj61B7QXxUv7+59gr7z20Fg5cfEIB3wDZdNJe8/la02o3idd8v9+PdczwtfKlVthrUBZZV3VmCmias+iEa2vBdWNJ1+K/QzuuRNOI6Jh/B/utowrFV025yD/LfdwZ3W801rgx8zrTG0w3bq7n7fQf/iFCDCjx9a2zZltVRJ8ljOct7p+ZQw5x2z5SlsA8gmeB7Gcz7/oHXncNY7s2p8FIC8A3lxnjZj+MOBllUPr490hbTyxFTerQfcaeTQ0jX568w1OPutnMA6sDa9byiVvJ/ETbVqM4rXebes+X/F97zQpVJ13ssu76S0+26eh/lIlnd3ylakcy3vqwXaoauHkePYY4OFvgnHJEnd4LzVodlhpfe3ncCkevebSa/E/CEiGivZ9cNn1hXJbpTgzwRE3nG6UUJ5t1YGxN7V44XnG1zQiqk48xYi74AEzuS9uWdbPZIMnpIVMUIN6g6XV8F3a/PorFcO331g3uflBtGBYzZeenlnqCXvitd5t/7l3/0rXfI+/2qpXJ13JPDllXfLvWs4ubx7yfJeXNF0uvfoZ/wnbcyRLK/Muv7zT33hi5f/1OtD/N/176bDl+/u9qPiHIuAee5WTtRVwUzGWKOtmeS0PI+8E3AYKKm8W9uRhI8GJIPrG9zSy258IIC8AxI4k/fa1YRDF6H4KHLpkgMgLSpz1jzk3bIabY4bDusEuyYfqA502rRuu1kteVe8zvu//Nf/gdRm4n/+1dJ/+BQp71XIecf0bI75hFIgWd6v22BZ0G+FfkYaeccEp7QvcXFap8E7VLUfPePtdbj5MyZRYZv/jKQJLdofeWf3MtNE3nG2apGtARAE1ze4oi2FO3CpVdO7mSDvQF5geWf3zOvG9aDqBHGgD0ltTv7ybh3iY3gbY11kvjuG6oBbZ5M0JeohmJMwcSMHgGKRd7LgcODClnhObJ7nhS1VkXevXCj+WWJ51zruYSK4SiRBsrwXN3EE/VboZ2SRd0SwRScrD4mkNpqt+Q+2xojd04tRHt+1j9UoWecSFHlPJe/WzvknWwMUge8bfKYLdMZA5B2QwFnkPaAiEnd8mbdzyowEebcWdnTpS93sFh8e8fY4v1L4oZF3JG7s0k29ajN8DlzYst7ie17YUh15pwcAprTy7nawH87yiMdKlnfu4i3C8ct7XOQ9oKcI5zQwJ5SLSxYcxo4h5/30mXT8xFXO+2yWUt6jpuIHCoHvG2QtBfrKQd4BCRzlHc+wGtAkt6KqhPmRFjGSIe+WdbC1UKP6NRqpUNpYiLyzbx+hnrxzOXBhy+ae73lhS2Xk3Zc6VVZ5X93TcyCPIaui5H1/rJgS+cijYA4f9FuhVfH+eTwiV6+XJWLQY5Mo57wf37JczG1txrevTTtXw03cqIqLvBd59wUIJKW847gYyDuQF/7I+zxA3g8GycmIpW3IihbIkXfLrduNoLsOq/c+bpQVQIS8H8VNuWozvA5c3PJ/+I98zwtZqiLvx5x31NWUVN5/P+Z2bHmKuiVDlLw/sUotMXwU1risSQtOU1zc0xH5j8tS64hukpIo8dNTIs6CRF95kjW70Xn02Ug+8sAXeWf3Mn+8ppX34mr9A4Fwyju9AD3JOwbkHcgLJO9eWxMYee+ZzM6jafA00GKQJO/oDy2dQWdz9rm2y9Ggo4rkCpD3P1m+M0Y1eed04OKW/+f/kS55n3+xVKbajO8YwJWp8yFPed/5imOv7t/ZmihEybtvB0SR7mwWQYi8Z2bD4xU4cH2Eq8hZQGcljGSFZggs8v75zL52RHp5b0qb8hDggVPe6bNA3gE5xEXeOZtI3q5JANLkHbF6706HTl/Taget5TgDu6FQSESAvPvFTTF553Xg4pb/foBth//5F0tV6ryXvtqMfpbpTrPfBSJZ3qk8F0Fe8s71ic6mCeHaz8nGzCbCHfGO9DrBIu/+bz69vPMk/QPySCXvtGsFeQfyIm7A6m3LO+arXtO0flur64siHesaAfKucLUZXgcucInHzPE8L3ipTuT9eO+tlPJ+VWNG61xsyIZkeZc2U/UVeck7314b+P4iV+7T6oOtiCfNYFgWeaffPD2hUue8Ix4e2AqgAJzyDmkzgExA3uM4VYQsujbkBQLk3SduilWbUb7OO1o2bZfrecFLpXLe2VFQQnlvtNnKiZ7QCTgly/uCzB9QBKuc5J0vgds/iSWnK7GlcFJ9BVeR9/TVZjCuLxUMKJpEByTIOyAHkPfSIkLe1Z1hlSw4HLjIZePf8j0vcKlUtZmyyrvbDQqS6s7vbE0AkuU9x4ByDPnIe3Mz5JL3U0ZiszfgcyUtn+Y/nTefRd4p5s/08l7gRRxwRSJ5P9V5x60qyDuQF0TeadcN8l4uRMk7+fYVrDbD58BFLv/Tf/vvyZL3+WdLZeTdlzpVNnlfOcElR/xDWLMiWd7P8kekkou8z4Z3kyHH990ePji0Te8NOxMj/s+7fePBJO9VNPVUr3odec+UNuPV7ARUIJG8zxcQeQdkoN2xbx/kvWx4+zyLvPsGK6on71wOXOjyfyTuyP98/1KpyDujZPK+NcMGFjYNrnAvD7Ll3SyqUTuT9yS1ICNoDtGhPZuz38KpTdAP8qfXuNDLe3ylxiVOl0rX9EWTsoD8eeSdXAq/zrLIO1ScUQeub3DLWoqpC/IOyADSZkqLCHlXNm0GfTY+By50ucOzG3A8L2ipVM47o1zyvoiYKsidiApcypb3uzzrl0eRh7y/k3bajm2n+3gnrXF59wf8992n2DOCTLYxw84vGI4ppYI4Rt7pbWz0c4a/+fTyztv1AvmTRN5xFSRi1fRAAHkH8gLSZkqLAHn/qWy1mRLUecfLL0u+5wUsVazzXip53ziRu60taJpK2fLOPae1aPKQd/pq8dVjyDPILqL7OP4QIc84qw4vhuTTM1ECct4zyntx92CAC/jkfU8WeHpciLwDEqh05F1/fHx5aWuaHj/bdgnx9nkGefeJm2LVZkpQ5x0vXfs/cT0vYKlKnXeaOkWPgzLJ+/IuJr1h2U2V/3CJbHnnbHHFk5+8x9ebIc9IIe/iy6GnNebznHdyOmWV9x8pryMA0XAdFHV6GwjfuQF5ByTAct5xY1M9ee+NfurOvfbgmOOh0/pesUCGEHkn3z5BLXkvQ513zP/0f+F73vVSmcj7KXVqViJ55wisx4TmOZEt7zlEk/k4k/cHJwru6wv6aiWKvKcNvJ9F3llEJKu8Q+hdFXhSqZpT0iKRIRPMqvFxAPIO5EWlI++9zqfVodOlr/V6w/zoLwVFlFRAhLwfxU21ajNlqPNOlv+Z7Db+5x+XkPOeAb6U9qikeG5ky7vEpvScc3nXFxEP3z6Jhr5aiSLvqX35stoMErfM8g6hd0Wgh3E03T1pksgEXxB5ByRQaXnHw6X8He6q1hjuOzP2W9nx9nkGefeLm2KRd7LgcOCilyTSwvG8q6U6pSJZoBBRFnlvGnwncXg5Gn5ky3uTps7K50ze69ZnxOMZP4cH+mrlibynvxrIIecdQu+qwFF0/9Amx7C7x205yDsgASbvFU2buZB3TLM32bcqEX8XIO9Y3Dx1U23AKoLHgQtfLht8z7tcKhV5ZwdBSeR9N+eVmrBC8AmQLe/+PygVKu8HMmPt53f8MxTut0jlvTyR95SlZhBe5P2pxr53EfIOoXdFiL2Kmk2sR1za8zvJnSFWTdtUkHcgL46R99mNyDuiWR+aB9JTlRpvn2eQdxZ5J82MevLO5cDFL/v/E9/zLpbqRN5ZN4N+lkPedYf/Bdy7oClYk3Az8t78J/5JW9bP6E+aUN5LE3nHZf5S4kXeH3vsexch79awQmmeZSZuKETNWZGpkdcm8QqIvAMS8KfNzG9E3hG7b7ZWpDGJwNvnGeT9KG5I3ZSTdz4HLn753/3P/1ey5H0+W0LOe0re7xPtrgYJJadHurx/FHQ0NIl3sJY1+pMmlPfSRN5JwnI6vMj74zv51nGzKkDe6f4DCqcbeQdv2f8nOXpdk15sgbwDEiDyTgXuZiLvhOaD3Sj3FHbePs8i7wpP0sTpwAos/4ODtYf/+XSpVLUZ1ALgRqAM8q51Et40O0wy3WWTLu8Zr21S44+8i5X3skTeXTt9j5BP5J3/qAFyxXXCR9msHZwr4042bpedNsyqcZMK8g7kRaUHrEbJO3qh73ajSGvKirfPs8o7uXRTrdpMSeq80yWel4PneWdLteq8U9SXd7eTPBY5M7Jcpd+MvH/6W9boT5pQ3ssSec8yYesx8i5U3i0j+4hrQASryemujKv/9D0a0wdd36LTZzL15leDyDsggRuWd3QSfh9Gd1JKI0Le1a02w+vASiwnM77n+ZcK1nlXX95X92kOdv4BrgFIl/fCfC1Y3pszTatdpF4nlPeyRN6jcyOi8UXe6Y1sMfJOxw8DxfPZMNnhsRkYbL4Dwgj/ePlG/xsF5B2QwJm849KKF1Ra3j+tZscp7ZAgEfKubNpMaeq8k6X7n/8j1/P8S+Vy3pFzqC7vv8drYCDblP8OI13e4+PUOREk77+csYncZGyevamE8l6SyLs7yJBflVPknVSiBZRg1512NcTl9/mJf2gtsk4hVk2v4UDegbzA8s4iBbcXecfoZqukzaMAef+pbLWZ0tR5p8v/G43tcj8fLdWpNuNFCn/8eMygGdEIkfedkTaCvrqnc7WlQLq8Z7jQyEaAvPemh0Nb03qd2TPRcEZCeXfixoG6+0t5j2uMmlMi70Ij75x9XTABOe999LGzyrs1qcq0JOXn03I3yN0N/5lwhBSb8YDIOyCBY+T9hkpFnvNZN8oZfBcg7z5xU6/aDJ8DK7Jc4ck8OZ53Wqoj7+wIQKgdedcz5K6nyZWnSJf3dOezAK7lvd+fGVtb0/q1xrLlG/ebVN73MfGR1vOlvNOSe+F0x0TehUbeM+34Y+SdVpvBdNGv+DUzyTseTwOoRMvLbD9jNWArGJB3QAI3nfPO2JlZWu3C8PZ5uj6HyTv77hHqyTuXA6uy/H205XrecamMvJcl5z1j1ZjEVWoYNyzvvb6z7dfsTmuvm/9wGieNTCrvE39OwTXboXEp7zhqHcHCIAeR2Mh7JskOiLzfiZD3DKXngVzYGUENSf0qbYbe0QZ5B/KCyTs+zG5W3i230ylSn1Li7fN0nT2VdyRuNPauXLUZXgdWZrl+/V/+hWQ/cj5fqZx3dgNGZXnPWq/d6iWrD+9xu/K+e9K3zsI2p4+Po81ot50eMziSyvvM8R/tl7ijxVXO+y7ydujK3FJ5Fxl5z6bJeUXeM/5rQDy9IR6ieo7Z9xs9RN4BCUDknfCeOpu2OLx9nq6zJ/2vf4Ie1eSd04HVWf4vr+QY4n2+MtVmfDnv6sq7200/f46H7vzO1pJwu/I+qRt3C2N46HQ2pqk/vPWOgyeTyrveNCK+8+7Gcv5ES7KL6Ke3t7+b4SeFO1nQg0ho5D1bgkpA5F2MvBd2OABhbHVfpUj6+MX+EwXkHZAAyDvh82tkbEhJvH2ernUn/a9f3BSTd14HVmjZxMcQx/PoUpU67+wCjhwIysr7yslQxe9IqgGvNyvvzfFhuxkOV9aDZrnzYX3b23uhd255p9PKv2zRrg89xlvMcWnomyg0rvuiO2H/wu30Pml9mrhZ6xPRz9QAnlebIWeTGHnn7IEBhSBWTbtWkHcgL0DeKZ+r0g3rFyfv5Ida8l6uOu9suRolqPeuTuTdS5pRV963pphL6ybJrU6GdHnPUm08ExfyvjHa9tvwQJ10YZv7zgStELjl3cVf3LKL1hZs5vhL3C4e/7d7a1qryQ+0tnpDzyN19xYh0Xpa67/m/AN9nSIjLoNMZ2FukXeJXSsgCIi8AxLw5B313zct76gXSTX/S4EIkfejuClWbaZcdd69pfuf/1fuvHe/dxQp7/7UKUXlfYFL+QjBnSAZTYZ0eS+yzntz8rYnNznQm16amtYddDTNcbSH1rivaX2vM+CWd2trIOkn2TZbJ2jX79gtldr+bUDXdkNzT4Y3fK69WXHOWLALsMNg+ChyT63f2Eo6vMi7+Z1+7ahdFSPv1j7L/MBAEYC8AxJA8u7p243LO3pq9rRamQiQd1bnnaBY5J0sOBxYreX/9r9P8PHJ83xV5J1Um2FtgJryvglNoEhBO2lms3R5L6zOO3Js3dT1Fm5b0XuoG5r2MGgTede051YqeUdtNHJPtzu2ncb0KlC+aozvu8Z48Mv6tE6B+V/oX6zux8P7xvNVnlOzO+5252NyCImt8JsxBceLvPuESki1mQKPByAt7CDArSrIO5AXkDbjo4Fa2/IgQN5P4qZgtRk+B1ZtqQ91rucpVued2ruS8r68CyrNlpplN9nLSZd3Ou65AP6JDkqkoKRtRcLYmxz6AxwOx076azCdLNteObwk8o7p96ytrrWd6Xg8ZuU5HGc/fh6bE22zsFbGVzwFjh9zZq1nWmeE/sGUPd9xBug3s4//xTZDyf8Qzmr9JceLvPuESlDk/Vvim0VAwUiyapD32wbSZvw0yhR7FyHvClebiXFfVZefzVGL53kq1nmfqSjviUPlcSQM5EuX94yulx4ceUcK6sn7dtyuLQzTJU7atRezBktsSS7vx+c39YXv4YXOPzuX89/ivUVt/vxfHIt6iA9Ht7M5si/yzm5jiZL3jFcVgHxA3gEJQOT9jHQiXAzePs8i774JepST92j3VXj5716JmMc8TxV5VzvnPUWSeizJUuhvR94fn8djHBtH/39+QL+/6W2zZs51TfvV2dec/vrRO06Tynv/NCnl59mDEjAe2Zfufv18y/r1JnwnZRxqkF/kXWhJHUAG5CCg13Ag70BenOR9BvKOXKFfnpoz4uSdNDOqyXuM+6q8XBiNVezzoM47B00jj/MxUfEa6fI+FZollAD/J/2Cfujjwz+dhW2Px4PhzNnWpsfrqKTy7jb6EYf4LODrWN19i9gNvcgpnNKRcVxoQM67IHlfD9kKUBYkWTXI+21zFnl/v3l5t9xJaYYHiZD3k7gpVm2mjHXefcvvw/973PNUqfNOUqfYYaCavO/m+eR/JykbL13ek5qxMC7l3Wq1RrtW/bXf+tj0t85hQv4TJvlb/GGGNS+r1v0/zvPdKYd5WEvc7ND6NUJZDdhKSo6R97/It45PKEHy7k7ZClAWQN4BCUDazAWrHII6+SBE3tl3j1BL3ktZ5/20/PxP/w/qHuHP80cbi4q1Yo6pU8g3FJN33cnr/bh33KNbbkjel0deyUAD125th82Bpo30P2oH+xSaTvEWt/3Awo9NzT6l1Jyzc0ZBTdK2Yadq8GLI2oMFRN6xUAmQ98z/HpANOwjwFRzIO5AXVN5J4A3knfDVFKBSM8eJulEsBBHyfsx5V63aTDnrvPuXC2cUWXfGf+wWGXlXN+f9/T7H/dIgtcQ5kC3vEpvSC+ynEzTPetX56PU6mva9sRhMfGklqa4vfnXt+nkwfTVr2w8R37HeN+vnGTXNWsde5nKpuzDYSkoCct5B3m8VSVYN8n7bQOT9Cs6PHElH01/zzr8RIO9Q5z3H5afuGP/P8P+uirx7qVP4p1LyruWQHOHjMOF7ednyXlyKs29yUIeq7KdV29v3zqTzYZ+NG04l72gftEbPTktjtM3B/SHmO/jVMsa4yjylPdz3UzV2HODIeRZyjLwLnUcWkADIOyABLO+08wZ59+hn11j0V3OfKFGAvPsHK6o2YBUR5LylWv6//rN5QMdr4H+HyHskbgeZUK7M+GqFy5b32Sm1XDLX8o6ZaZ2utjk/QlPKO0avMxPXDjGtt4fOno/+RY4ZjVlrupxH3kmzKkreC5tyF0gJOQho1wryDuTFMfI+A3n3WGWcjd2ta2b/we6wLoeHNH9QiLyz7x6hnrwHOm/Jlr/agz/+3/9b0H/3i0iuIeYY0DFwvIJTR95X96mO6kTwDYeVLe8H3nwe4QTLe9Bg0gzyriqcHV0o15H3mSh5n5SnAhpAkGTVIO+3jT9tZg7yTlmMMtlUz8Q+/kCsnA8nTZRRjLzPmLmpVm0m2IXLuPyf/j8fnR/X8fffyS/Fc4y8owNBGXn/Xcqc8FuevyJb3oubKC5Y3oOooLxnvWbKMec9XQMPFAfIOyABrXsMu0Hk/Ui2DpRzn/nArX5iBMi7P2VCNXkPc+ESLle9/mD+v//H8+2qyDsZtMwagUdF5H1n8MTEs7O6v5za8xrZ8i4gaS8lfnnfs7BCMGO2jKXzrdFo/d5UkVqj0fiDRlge/mg0jG9sL4Tisn8YTM3WNMdoNO4n3bsu5q7roJc1+5r2tGPPSclocnynmNYdeudf2X8DovB9x1KxqVXjVhXkHcgLiLwH4frKoiWnN/FN6M31SJXfK0DeT+KmWrWZktd5v17+h//1fxg77Qf9/+tt//+hH7XxeDzITZj58JcLVSTyrvNlowuAI7NetrwPCytV65P33lskc6KnHDyamlb0AR5CB2n1+A/yLo2Bphmksn163LqmzeeaNp3gVyT+jl92eK9pWW+l/DHxXpYwRJcJZqo2/+ZwOsfvWCpvh8Vit8Ds6nP2XnIA5P22gQGrgWQavtR7dBJiF5Y2c7zvolq1mRgXLuVSP2jz//nZdpyu9q//rvEF9fboe5/faVqRu/5ULlQVeeetAyOE2Jo2suW9sAlWffK+YMvM2KgFzpo1khP4y3z+Tt5l/yXlzU8feGgAfo3BN/KSGPyy6Rrnc/Br+F72FemgiJe9AXBaHPuOpdKrHftViLwDeeGPvIO8n8gySIhzn/koKm3GL25qyXv567yHLrcLffOv/+5f//jQtN/+blktJPE+QZQOSZ1ifY0S8s5dgV0MvZhq8pLlvblnK/I5yrswd78heccQeW+Ql8SAvBcNrtNTjLyzFZB3ID9A3oPZDtMHwEok78pWm6lAnffQ5SdZ/t0hmwhFyrv/7osC8u52ZQ/Y1J3I4QeS5T1rvfEMePIuzt2JvD8ajtNif0IR9JHj2Og488l7e5i41b6kM0SXnReR98lb1o/u9u3vV/I+enOcfmG3aEoB/o4fZwXJO1siGpkPq3BA3m8bkPcQMoxZLZO8z7ygq3rVZnhduKRLdeSdfv/4R/HyvnKCJtHPl+jhsZLlvbhKkZa5JG9YoLtTed/oG3ndAxdaZ6Hj78Un7ys980k4XqC+6SLy/nvmj759xCWRLuS921ro+Z2slUDr/NTfioy8044VIu9AXiB59wJvIO9+mnbqwEaZ5J199wj15J3LgUu77A3mRwqVd5Vy3rdmEbNJNo2IkpGS5b1VZyvyoS4g0t29tJnt81gt7j6tzvuZvKNfyE7IwBjnvV9E3rP3jPQFrtJmPq0B+yxAMOg7HqHWpAB5n0HaDCABL/KODL488r7F7RbuE3OU9wyh9xLJ+1HclKs2w+vApV3qI6ztbyb+WWTLq9IMq4uM06OlxZ2czf5/hmR578q/8+BBXECoux/lXV73wIX2QL/MM3nPfAVNXoBaNgmI5Snv6Moj6gYWQL7jwgassiUC5B3Ii1KmzXgTYuQq7+lD7+WR9z+VHbBaqTrvgcv/kvykXx65m1QQCuW8b5zCdkS7wVauECXvNBwYT8RNgJzBLiDW3WnaDPpQvhQxFejhHX2e8/5lnLkLs8dfiGV75xN+2T8yf/TVxxhdz13Iu4Pe/6DIVkN98Hf8XETOO/r6WeQdHwgg70BelDJtxpuKOld5Tx96L4+8q1sqsnJ13q+W/z1ZFC/vNPJOj4Ni5X15V+AQvGU35I+LknfOFrK4OZqwCwh2dy/yriL4y/TJe6om+AL8Gp5loxMKv2z67ucEfo2AyDupTglE8AnVZoAKExt5v/dPJhT6kDgiaacvlm8/9c7dT32Xq7ynDr2XSd7JN0/MTS15r2Sd97OlOpH34+X7rFB5Dw9+SyEs7C9Z3gvNeRft7jcs74g85V3Ay94ABcg7aUtB3gEJxMr7ns0jFM1cnrxPHcd4c5xXk1b7iiKbvKf+p6WS9xkzN8WqzVS4zjtb0pGZ9MsrPvJOKVDeo9LO5RCScC9Z3gusNvP6UBfN40TZqiid1kIfN8i7HO0XeqpJri/ARWyeOuQlMaOPhT5J2Yf4we/06Y69aL1ummJe9gZwlsfvWB5/1estqDYD5I92x7790qTN4M4U3zBE/+88kC2hZJR3nFqfhvLI+09lq81Uuc47Xaoi72TQMruCK07em0aGWdEEEVzqRrK8zyZsRT6T19f99CMF08dXI4RXx4mZBKsoDo7jvIzIm7x/cRwcpM1KDb2kjV5yjl4T/X80RC8roHrSBr/Te/JOMZM39LJr9t+AKJan71gKc/zNIz4e2MkP8g7kR/kGrPo703zl3XpsspVklEfeT+KmYLUZPgcu7VIZeccXcEXL+24ekwEnhcAi85LlXWJLeoU+TNkGbIZYJt26FsQDW16gUnMjGJaMXkBOer+PfiyH9BdAMiymKM2qQd5vGxJ5p113WeQd19aj7GOcN6u8p8w/lSXvA9oLmn26TMZJ3hnqyTuXA5d2qVTkHYNagaLkXXdy+8OJcO+uE/Eky7v/70nGHab+FnZzF7V7JmtbuCjuc1aNzan3cPDNYhsbPFAgxKqpVYG8A3lRvsj78PXI8C+2LYSs8r4z2UoyJMl7SKCLE2IpSss7nwOXdqmKvCuQ8/6uTmZF4yrlXLa8kyB2IXzPMGIY75pk7R7IuyiaU3yIufi0clCPtRhf9iZL1uZXjHqBxamiuTeZoby+vnXZthwAeb9tmLzjq8SyRN7JGyawfjGUrPJumalu5kuSdwEwcSMxAtXkndOBS7tUrc47/lmMvGsdhXrhw+TizciW90lhyf9Z5odaIvEHeZdOn5w6jSk+o6YtpHPoKNMupwrwbtFWDbu4KRFieDPnDssOeBuxbTkA8n7blDDnnb1dRO7yXkftYXLKI+9Y3Ki6qVZtBuq8y4KVCyUUIe+uiDofApkZ5yNdZMt7+pmds4Lno0wLbvOStXsg7wLYDnCJpOYAZ8uY6Aiz0f/NZ9ScNEnGJz2SJXbOUhExxjgf5uidsREPPUibAXJC63ryBvJ+Tbq8mWSdGKY4eWd7EqGWvEOdd1n4U6cKkPfVfZYTNA8uBs/Klnccwy4GwfIec1CDvIugZuPhIssxcvXOeIHlfTseon3/hvPe23TkalXlPcvxmi9Y3hkg70BeQOQ9ko80WsW5z3wUJu9HcVOt2gzUeZfFMecdXcXLl/ffFeyBt2fvSba81wobbpglkonbvPN273c7+qgGeRfCsm/uLHe/X1uHcQvL+2GKvobJGG3sT+nwiarKu7qR95HpeAwh5x3ICZD3SFJNVs65z3wUl/PO7rsgFIu8kwWHA5d2qU6pyNMx8Chb3neGCiUiL1nd49nnGbLlfV1YoT+hkfedHVNnF+RdDK3WaGfV9oa1expieXfsntVw+tZqNGUtelXlXd3I+1f953Hy+dyaVJD3W4fIO+296/MA6+QU0arKe6p72Jz7zEeROe8eqg1YRfA4cGmXUG0GHX8X+eWq4M/Dly3vxamW0Mi72WIH9TbkVUHeBdFZOjPLGNXdweP70/7Hx35b65u/Vs6oztKuizui8iXgeG2xeHc0ifvnpNCC7/TxT7opD0Debxsv8o4kDiLv16QKg3HuMx/FRd7JfiQGr568czlwaZfqRN7ZxTtCsrxfVXZRh1MFHNny7k7ZinScDC0AbvP87V5vMqT3VBrjkEH/IO+ZWdktdPHr9mv92m5o/PVxb4+fh+bTg7nsbOffSNHTGvoWqirvAZF3e3OMeEc8cj/0/MKeYxMH8n7bQNpMJJ8vKXSGc5/5KHDAqiduqlWb4XXg0i6Viryzo0CuvF/XVFeInld7Xra8F2e1zoGtpKCF2jx/u7ewH3HhyZVrDELq1oO8Z0ffTxsry3UW/V63Yff7zvi549y/6I8z4zBB/31mztFRXFV5D4i8o6bFi3hHPHI/9PzCDpF3ICeQvHv6BvIeQJqk9xLJu8KTNHE6cGmXSlWbKUDe3W5hNRG50J3fyfKG5D3DUFmciuBv93odJO1uvf82DvuWQd4F8I/+ePDgrpzd3eNjaziZjseD+aOm7V9rjmvpoykpGFlVeQ+KvHM1YLkfehB5ByRwirzPQN4DaJHmLxklk3cibqpVm4E677Jg5ULJUSBR3ldOhimBpMAG00qXdz4ByQEnVW0tQhOXODlr90Zt43AY2MNpSMo7yLsYZo+Dl2Xzbdsxf7Of+uPn4d5cT18XL6tf/bF5c9VmFJF3iLwDEoC0mWgOKW7tl0jefYMV1ZJ3qPMui2LqvG9NmjakMk0D28ENyXsnccPl0e+jf3rW7nWN/d6ZTJ//zn6/AuRdCJ+rhj1/eZxv+88/ptp43B9sHXvnmKOnZ405ZFXlHSLvIO83jV/eodrMNXqK2Y1LJO/Kps1AnXdZFFJtZoEnhlQed3IoQN6HIUniuTPSJzO2mpBNF7d5Z+1e32m/mvb4ZTidsMu0pnt2vQbyLgCirwtj9Lp//Eenv9lNx7P1xtx+jOw5ujr+bG5aznS6q6i8Q+Qd5P2mOc6wCpH3QJp7tpIAzn3moyh5/6lstRmo8y4Lf7lQWfK+cYr8xAloN+TLe2Hlqx19ZaZqBHpmE7d5Z+3ecDDcjx5b9tqdGa3VotPu27Wz+WpA3rOzmz6/9TX9YTT8Y2iuHnAymms1t+b+4d5p1xrmeDw2l1uJnbNUIPIO8n7TQNpMDIPkmsG5z3wUlzZzFDf1qs3wOXBpl+rIO/n6yUEgSd61uxx7NLEsu9LlPUu59UygP7zqdxIfi6sO+je4zTtr9/R747f3/W7wMmj9zXj7Y7NaXHznIO8CaB6woE9fnLHx23G6sx/Lw9R+RdvH8yU+oasq7xB5B3m/aUDeY3hNPgUk5z7zATnvF5DjicuBS7tURt5PqVOz/OS96ZswYbB3HGdE50tRnqGvp29zj7HNIu+pZnUWAYlk9vZ3Wk3/yfuoaf0Bno4Wt3ln7d72zW0ZjenwY9R+tPu/OWzzCZB3MWwP8+ehYdinsj6fLSzug/7mH/T3qso7RN5B3m8an7z/BfIeQIqb2Jz7zEfxOe/KVZvhdeDSLlWRdzk57/6PuMMzpZymTFH84bt45/+assh71hYrNTSS+bnRXkx25RLLcKjVLDyfJG7zztq9kd7rWovhcGp2h093AcOTQd4zg06k2oOmdW1zPB72jueuOxqPn7uvE/SfZgt9XVl5h8g7yPtNg+Tdy5yAyHsQKf495z7zUZS8+8VNNXnndODSLpWpNiMl5/0MPFMKnS6lBI9UlFLeaZwCfWLnT/I7B8emDq/4272F0XyrWe3xdD8ddJ3l5izdnQDynpEGjq/bmofv1EXXnAeyrT9FGj/uVFTeIfIO8n7TQLWZGNLI+8QXuON6dArMeffUTTF553Xg0i5VqfMuZ4bVG6PEkXcE/93GY/eAV/x9xbLRGHQ69ng/7A2cv5trX9YUA+Q9I2utO3Jwyrv96rwajm8yrHes9Vjb8R2UzoNeUXmHyDvI+02j3bFvHyLvwaSYpWmRPJ+3IHFmkXeibmrJO9R5l4VuMnVHP0HeBVHiyLt/JZZj94BX/H1F58H+PuwYg/GgMZ26g9X1/E8g76L4a78fD41TAKjed5zhfjD/G6s5KrFzlgpE3kHebxoYsBpDURktUjiKG1I3teQd6rzLQlLO+21R7sh7QEgzhGP3gFf8fUX/YbgZD0xjuh92DfexuW+y/3AE5F0Ii5Y5+LBfxuO345fW7I8Hg8e9PR7vuwd0RldV3iHyDvJ+03jyjhwO5D2IeoutVBF1J2mCOu+yIMcAOv3xVRzIuyCyyDt/3FswgiLv61Vze/jy9vaxnw50ezAbTlv71cfWuQhBgrxnxt109uPxeGDffRvUfQOrG43Hb38f1tsj/F/7lZV3iLyDvN80pY68Oy9GKBPTcYYfjrPnLu8WTH3vOG8T9qKZcOaO02Cvmo2Gg16LvWom3l6ZtaEfqg1YRfA4cGmXysg7RN7Fk0Xe+ePeghEReXd/NR7n9t4cPc0Hg/3Do7lf2tOnl72xHziNlv/wAnnPiNuejsdmu7e2Zvv7g2ke2nR7zVrvX/v7B/LLT31XWXmHyDvI+01T6hlWnT/qodw9LfQv9/oia0/4N2eh70fsRTPx1F7oYpqN8Z9/tp/Yq2ZjyfYkQj1553Lg0i6VirwzQN4FkUXejeuyinIQEXlvNA5239jbg8Hbh71ddvqDQeevp/nTHx/2cHlo+44vkPeMrB6W5HtyNbNro707XTfW1uqz1pivtvazaTg45R1XS6qqvEPkHeT9pjlF3mclTJtpsJUAvg0+rfdO2lJvJ3qdT+ulz140E0/LT+uZvWo2UOOzfGKvmolZj60glJN3Pgcu7VK5nHd0FQ/yLogs8s4nIDkgIvK+ctHB3ByY/eHzaF5H5jKbPtvPDx+N1ga96MF3oIO8i2FmD/adN2P5/G0zXqH+3Hx43a9Xb19sc9+i4lhVeYfIO8j7TVPuAatR8v7B/eYjQRcAouT9u6hmQ5i8//gb+Uluvqgm75wOXNqlinXeH0HexVBKeRcReac0rdXB1NzWsK1ppt0ZDNe/fl7OVA3yLoJmfzxtbHfz5XC4ndp/ff021sbf7cFyNZot7emQ7PSqyjtE3kHebxoi77T3LmGd98jIOzLc8UtWLXLG6Kx46Z/8Jj1PS8t6Go/HfHs0jA56hSdB8j5j8o5RrNoM1HmXBeS850AWeb+uqigJEZH3E25n0vx60B5mbt38hX6/vAcK8i6A5XT/sLLWTv3urTa6bz+93zkT+02zO99W/dlKG4xx8L2q8g6Rd5D3m6a6kXck7wKiWOQFRKXNkGZDd+grpwS3WOhVhEbeCWrJO9R5lwXkvOdAFnkvzGrFRd4ps73Z0TRnwLI3LgB5z4zbtw9Yzp1Ou9Y/7O3OeHn35eXuw+h0Dsbuj561ehiYq8rKO0TeQd5vGpD3aJi8i4q8Y3l/fh5n4FmYvOPPdMx5V63aDNR5lwXMsJoDpZR3sZF3zK6naT9XwQOPQN6zQ5rs352+5hob031yptrozXEe1475/l+g3vwdtSw/pHbOUoHIO8j7TYPk3RPTCsr7IrON2Bt0IoqLvD/ri2W2yLuzJDVrKh95JwsOBy7tUp1SkacrU5B3QWSQ9+aerUhHdOT9OlXGD8i7GLaOs7SWbXO9exscOuirM53lytwvVp12twfVZoLI/dCDyDsgAV/k/a/KyfvhZZJVi9rmPZF3AaF3LO8Dx3GyTdmqoVf4ECDv9AOpXG2Gz4FLu1Ss2gw5HkDeBZFB3otTLfGR9yhA3oWwGho9qzns96zlvrvpoq+uZry42xd7ZR0M4x0/paryDpF3kPebptJpM8l6k2DwawjNeRcAehWhkXciburJO5cDl3apTuT9dGUK8i6IDPK+MNiKdMRH3qMAeRfByvzYWFbDRLu+P63pI2yvk8EGHW59y9qZY3zwVVXeIfIO8n7T+OW9ctVmkvUmweDXqJ68e7p2iryrVm2G14FLu1SuzjsC5F0QGeRdRKOVDoi8l47Pycfi02pODaSI9uBzZ2J7/TU28fF2QOLYwkddVeUdIu8g7zdNCWdY7R6xX9lKAJOppvUT9SbB9EztYWCwF83E00TTBMm7pk2e2Kum4I79QP/T2HePUE3eOR24tEulqs2wRgDkXRAZ5F3LllaXAYi8l46Gvf60rDZ21u24gw6yJ+yN/ecF+r1LnyK1c5YKRN5B3m+a8qXNLLUjd9/YSgCt+0ajUWtmZode5o8v7EUzcfet0Xhgr5qNh0bj2x171UzcvbDvHtmbYvLO68ClXapV553aO8i7IDLIe3fDVqQDkffSsSAtR22LDL42nqGdSvbqbnoUd0xV5T0o8t5gPVskuR96EHkHJODJO+q8SyLvgABwEQL0f/8EPWrJO9R5l4WvzvsM5F0QGeTdoPlUBQCR99KB23H2s7VHyrinR1lr6m9Rqto5B0Xer+V9cL0JIu9AFShf5B0Qh3+CHrXkHeq8ywJy3nMgg7wXNsEqRN5LTb+NfhgmWf8crcmSUtXOmS/yXoS8Q+QdkACSdy/pHeSdgxU7/1WDGkJS/GUCFYu8kwWHA5d2qU61Ga8BAHkXRnp5X5HJ5QoBIu9lpr5DP7p0EhEakPeoaucccJjqD6w/pNjm4A65ujFgvzNy7+kg8g5I4BR5n4G8c6C/sAZALRrp9j8WN6Zu6lWb4XPg0i7VkXf87dODAORdEOnlfUdjp0UAkffSs5uxFT/bqVNJPmIP04k5QM3s2Biy32UBkXdAAtod+/Yh8s6FPmIrapFy//tTJtSTdy4HLu0Sy7ur33/By0Ll3UudQgIP8i6I9PK+Ka4Xhsh7RVnolXzQ8EcUTR0/Z7eQ3axB5B2QgD/nvRx13oulWvJ+mqBHuWozvA5c2iXuVur2yyuODUHOe8VIL+/1FluRD0TeK8tnBR/4f3xwP1EUEHkHJAADVpOh06RC1Ugr78oOWL2NOu+4pjcOc6qQ845/grwLIr28tw9sRT4QeQcAEUDkHZAAyHsyKhZ5903Qo5i88zpwaZe4zjuWdxzmhMh7xQiQ94tBc2HYhZV5h8g7AAgBIu+ABMo3w2qxVCzyrm61GV4HLu1Sr2va3NG0x7sHrbhoKzkGjk0AyLsgruV9ZzM7j8OMT+XNCYi8A4AIIPIOSMAXef8L5D2eCkbeKYpVm6l+nfcDsrnfGpp290VC4eEIjpF3pPAg74K4lvfZhCziWcsujXEka+R9MR0noLiqOgCQLxB5ByQAaTPJqFbk/aey1WaqX+f94DuSipR3f+rUI8i7GK7lnT+XfeifYEcmWSPvAABgIPIOSIDIO+26odoMB1WrNuNlTChYbYbPgUu7VEbeIeddPFfy7tpN8h846BaV9Z418g4AAAYi74AEYiPvezYjQjTGB57f7QaoZM47QT1553Lg0i6Xz4MjhUfeGSDvgriS9wRFZOi8XQUAkXcAEAFE3gEJxMl7veOfFiH8UTO+sn9RbaqX8+7F3pWTdz4HLu3y8PrtSGFpzgiS884OApB3QVzKO3fGOwIi7wBQaiDyDkgAyTvpuNGPQHlvfGdTIsQ9an32L6pNtSLvbLAiOQJUk3dOBy7t8t++kH1PKDZtxrt8A3kXxoW890zupBnIeQeAkgORd0ACcZF3m7c7d6dspdpUNeddtWoz1a/z/t8oI+/kLZADAeRdEGfy/svpJCjkX95qMwAAYCDyDkggRt4TxNO5Nb/UVC3n/RR1VUveq1/nXZnIO+S8i8cn7/Pp2J7PnTkfv2nmL/Ya0oHIOwCIACLvgARO8j6rGwuDbfVYvfHf7r0Rea9Y5N3Ldlat2kz167wvFZF3mGE1B/zyPtceNPw/HvqvWnFfAUTeAUAEEHkHJHA2w+pV6kuSsVMfRc7xLg2o8y6FG6jzroq8Q857Dvjl/QvbxkOhDgyRdwAQAUTeAQn402bmFwXN1o7G1jhIqY9lo4IzrDJ3U23AKoLHgUu7VCvyTg8CkHdBlFLeIfIOACKAyDsggbOcd8s16mw78qe6yd2GI7QEol9iKlnnnZibevLO5cClXaoTefcu337MQN4FUUp5n8zYijF+HnPSZf/k0GYrAHDzQOQdkMC5vFtua8ymXbLHY2M0Yr/EYyQoZFxmKhh5p6hWbYbXgUu7hJz3ClNKedeNBV40l/xtuWscyKiomVlUfUsAUA6IvAMSQPLuxd2wvCP0n+yx0E9zMMU/yL+tPhWLvPsqjagm75wOXNqlUtVmWBsA8i6IUsq7tZiPDWe/byQIFrrtve0Y4wm4OwB4QOQdkIAv8v7XZa0ZyzcHU9zjVqhqnXfVqs1AnXdZkNQpkHexlFPeEQs9wXRSlO3NRG4AgAuIvAMS0O7Yt3+MvANRVDLnnaCWvEOdd1kc774ggQd5F0SkvLubrmOMDaezuYrKwbhPACg9EHkHJODPeX+12SgkLqY3eae0sjnvisk71HmXBeS850CEvG+700FdX4wXems/7V7scJB3ACg9EHkHJODJ+4zIO9vIBX89sSpRyTrvJGlCscg7WXA4cGmXqtV5xz9B3gURKu9uw95YjSV6hmU9aNbGPk8wB3kHgNIDkXdAAueRd7aRC/6ZPKpEVXPeFaw2w+fApV0qVCryCMi7IMLkfWvUbZdEANBXbu4s164b/n0O8g4ApQci74AETjOsziDyzgHkvEuBfB4uBy7tUhl596VOgbwLIkTedfOXVW9Z7oeL5H01sHAMfoe2HQF5B4DSA5F3QAIQeU9G1SLvP2Ze0oRy8s7nwKVdKpfzjg4EkHdBBMv7V7PvWq7dtPo1JO9I1L+a6Pe+r0Y6yDsAlB6IvAMSSC/vEHlXiJTy7h+sqJq8czpwaZfKVJs5pU79eAR5F0OgvK/M7QzZe61vLRtI3js9LPFuf7Y2VuwZIO8AUH4g8g5IgMg77b0h8s5BBavNMHdTTN55Hbi0S1XqvEO1mRwIlHek6ha295G+tXfPvwYrpPHI3S1r02XPAHkHgPKz0E7kWJQP5P22OUbeZxB556FqOe/E3MkPteQd6rzLAqdOsbcB8i6KIHlfTPE8pMjed8P7Z/PZHE9e18TdfzmDHXsOyDsAlJ55h5m7pvVztGqQ99sGct6TUdk674pVm4E677IgkXem7yDvggiSd/PXbNhYWbM/6iYydvSVz8w6cvd/fDH1hTc/Hsg7AJSe+cmNeiDvQE4geffibhB55wCqzUgB6rxLw586BfIuiAB5Xw/Rj+Xb36x2G6fB4q/cbbetg71Ea2/s5jrIOwCUHpB3QAIQeU9G9eq8U29TsNoMnwOXdqlYnXdyGIC8CyJA3uvmAv1stodzMoSNfOWuMfyGB6vuzDr+FeQdACrAmzn3GOYoDCDvt40n76jvhsg7BxB5lwL5PFwOXNol1HmvMAHybjSMQbfXxFMzYehXvjOt7eFuYLRZswLyDgCl59589Xg7DkYXD8j7bQOR92RUNuddPXnnc+DSLpWr844AeRdEgLzvm9Zq09m/4ewZBPvKh7bd3qys5p7+CvIOAKVnLseqQd5vm9MMqxB556Fidd6pvJNDQDV553Tg0i5VrPMO8i6IAHln3/GyT5fs1/6BLtmvIO8AUHqQVXuNKsg7kBf+yLsBkfdYqpfzzlCs2gzUeZcFTZ2ixwHIuyCu5X07dQi2TZdjuvB+ndI9D/IOAKVHklWDvN826dNmIPKuEKnlnX33CLXkHeq8y8JfLhTkXRDX8u6O9QV+tCZ0yX6dtNivdCJGkHcAKD3YqllYDOQdyIuTvM8g552DqkXef8xoI6NatRmo8y4LyHnPgYC0mY/Vp/W5WxpzCy2tz2e6MObLNVquBvRJIO8AUHog8g5IAMm7lzkBkXcOqhV5/6lu5J0sOBy4tEt1SkUeU6dA3kURIO/Dxea3vdmYDWiMnX7l7sesMbQ7mwUbxgryDgClx6gf21SQdyAvoNpMMipYbYa1M6oNWEXwOHBpl0pF3tkxAPIuiAB573x035uW9WvYJr/Sr/zb8NentX3vDpi0g7wDQOmByDsgAe2OffsQeeeiYjnvCleb4XTg0i7VibwzdUc/Qd4FESDv5LK/+c3URzP8K/nKZ47++u2faMWLhIC8A0DpAXkHJOCLvP8Fkfd4KlvnXbVqM7wOXNol5LxXmAB5d+2mWx8erJVjtFwi727L7LvWwV5aTZvm0oC8A0D5AXkHJADVZpJRsTrvyua8Q513WXipUzj8DvIuiAB5t5aTYesf1mq0dgfDTn1c7wwH7uwP11o1hpMlew7IOwCoynZC67rGsAN5B2QAOe/JqF6ddy9nQjF553Xg0i7VqvNOAXkXRJC8u4+LT+sfo91nY7metsat6VarW7P+p2XVXtEPAsg7AKhK757WdY1+dDSQd0AGMMNqMqDOuxSgzrs0fKlTIO+iCJJ3azax/unsrK3p1vrW2HJ0124ie3ddZ8GeAfIOAMrS27PYehQbDeQdkII/8g4zrMZT2Zx3xeQd6rzL4pg6BQNWxREo79ay7fwXn1a/ZjWWSN4fNGvTRUrf7xzYfwd5BwB16U1+6nGPVgfkHZAD5Lwno2o57+S+C/mhWOSdLDgcuLRLFeu8P4K8iyFY3q0u6mJ/ohbE3iJ535mWZe4sq99g/xUB8g4AqtLreOlt4bx3tAeQd0AGRN5p7w057xxUL+edoV61GT4HLu1SoVKRRyDyLogQebeW/RXydXx0o698sLLW5uo4WBUD8g4AqvLOcXYieYfIOyAFL/KOJA4i7xxAtRkpkM/D5cClXSoj75DzLp4wef/8sX91rWWDyHunZ7nD/VkzCvIOAKrCc3b2QN4BSUC1mWRULfLO7rqghXLyzufApV0qlfPOjgKQd0GEybtlrTT7mzkj8t5z2ra2YtspIO8AoCog74BKIHn3Micg8s5BJWdYJagm75wOXNqlMtVmfDnvIO+CCJd3y2oe+uO9M3b24/6hybZ5gLwDgKqAvAMq4Yu8wwyrHFSw2gxzN8XkndeBS7tUpc47S50iRwHIuyCi5B3T1Bf6pbhjQN4BQFVA3gGVSJ82A5F3hUifNoMh4qaWvEOdd1mcUqdA3oURJ++WFVy3AuQdAFQF5B1QCch5T0Zl67wrVm0G6rzLwj9oGeRdEPHyHgzIOwCoCsg7oBIww2oyqhV5/6lstRmo8y4Lf+oUyLsgQN4BoGqAvAMq4Y+8wwyr8VS1zruC1Wb4HLi0S7XqvNPjAORdECDvAFA1QN4BlfDkHXXeEHnnoJI57wT15J3LgUu7VLDO+wzkXRAg7wBQNUDeAZWAnPdkVDbnXT1553Pg0i4h573C+OX9Tl9wP1og7wCgKCDvgEogefcyJyDyzkElZ1glR4Bq8s7pwKVdQp33CuOTd2fo8DM6sBcAAEAxQN4BlThF3mcQeeegejnvTN0UqzYDdd5lQVKn2EEA8i4In7yPemwbAABlBuQdUAntjn37EHnnopKRd4Ja8g513mVxTJ1CAg/yLgiQdwCoGiDvgEpAznsyqhZ5PwbeFZN3qPMuC8h5zwGQdwCoGiDvgEqkl3eIvCtEWnlXdsAq1HmXhZfzjn+CvAsC5B0AqgbIO6ASPnn/CyLv8VSw2gyLvas2YBXB48ClXULkvcKAvANA1QB5B1QCZlhNRiXrvJNDQD1553Lg0i7Vibx7l28g78IAeQeAqgHyDqgE5Lwno7J13lWrNsPrwKVdKhd5RwoP8i4IkHcAqBog74BKnMn7QEvAC0Te1SGlvP9UttoM1HmXhT916hHkXQwg7wBQNUDeAZUg8k667lnd6DEv56Luspe4KapX552iWrUZqPMuC5Y6RYDIuyBA3gGgaoC8Ayrhj7wbbBsnn2x5U1Qy552glrxDnXdZ+CsOgbwLAuQdAKoGyDugEn55n7NtQDjVy3n3Yu9qyTvUeZcFyXlnBwHIuyBA3gGgaoC8AyqB5N2zt6SR95ukkjOskiNAscg7WXA4cGmXqtV5x4C8CwLkHQCqBsg7oBIZ0mZukqrmvCtYbYbPgUu7VKhUJIYcCCDvggB5B4CqAfIOqATIezKqlvN+irqqJ+9cDlzapTLyDjnv4gF5B4CqAfIOqIRP3v8CeY+napF3L2lKuWozvA5c2qVydd4RIO+CAHmvGKtaw3HM8Xg8dJxJ/SarJAMg74BK+GdYBXmPZz1FDbiCpLshAHXei1sqU20Gct7FA/JeKXrmoP9dX+zQ6lpfzFqj54lKrSUgB5B3QCUgbeaW8U/Qo5i88zpwaZeq1HmnkXd6EIC8CwLkvTr8Y7nvIG3/9Gojk8Wsb8L3emuAvAMq4ck76rxB3m8O/2BFteQd6rzL4pQ69WMG8i4IkPfKoNuNJls9Y9cZrtkqcBuAvAMqAZH3W8Y3WFGxajNQ510WkPOeAyDvVeHBWbG1K9YQfL8tQN4BlUDy7sXdQN5vDn+lEcUi72TB4cClXSpVbYa1ASDvggB5rware42tBeF2Oi5bBW4AkHdAJaDazC1zGqyoYLUZPgcu7VKpOu8g72IBea8G7TpbCaHVYivADQDyDqiEdse+fYi83yAs552glrwPNE3713/3r+hnVZcTlSLvGCTwIO+CAHmvBt0NWbh6nZy5RzYLst2q9ekSuAXSyPs3kx0yOfDodD2MN7YNuB3mkPNeTXqadneHvuDwH3+g/795kXfF5N1aondYbe7e2I5HQM57xQB5rwa/HE1rOfvnD6RkPvrOdGyj/zSb4+qRwI2QRt7//gfTawAQzAdUm6kkOHQd7u3kx732cE+jv8Tg1ZL36nN214NtKwIvdQr/BHkXBMh76VkdDuhs0B+0em3Yvao3s56YNU2brJHfawdIfL8N0sj7j7+zJQAI5g0i75Xk5zNbicSXd61WtZkbYKGMvLM3gQB5FwTIe9n5+tZuD2d4bW0GTqhac8jJ8t3U2iacNjcByDugEm8ww2oloSM+4zgbNAnyLhVffXU1ct4RIO+CAHkvO7iIu2s30flhhJwUO5wzszPR2mxCtwDVBuQdUAlf5B2qzcjArWlt55yJVhc+3QeHvDtY3mfMIBWrNnMDqJI2c8x5RwcCyLsgQN5LDpFyPF71qxFa532LtB6ZGuIj9DlAhQB5B1TiDarNyKTZHvS1g744e8y01tA+sGcIgkPedYi8F8mpTGfRaTOn9/EI8i4GkPeSo4/wz05vFZUSszPcDvl2bThvbgGQd0AlIOddJj2bDm76PHtgtu2h0A4A0mZUR7nIOwIi74IAeS85uoN/dt5HOm2fg9l0Qd5vCJB3QCW8yPsM5D1/WlET8q1NkWXHFlwDVr9DtZnCOJvdlm0rAn/uPci7IEDeSw6LvBvfyG+h9B9B3m8HkHdAJSDyLo9W1FTblrUaCcx8Txx5h2ozklElbYZE3tlbAXkXBMh7yWGR98FVjchztlOQ99sB5B1QCch5l8amy1bC2BoxXUUC+AeseoC8y0WZyDt+HyDvYgF5Lzks8l4nv0TQBXm/HUDeAZWAajOyaJqxas7TOHCSdMAqVJuRDY54e5dOBafNYMhbAXkXRBZ5d/2D2cU+hBe1qiws8h773UHO+w2RSt4f6gCQCzZE3iXRWLKVCMSlvcOAVdVRptoM1HkXTxZ5bwxZCVnxvI0RU7TSWOri7vJVEa/aDPklApD3GyKNvH8bfNwkgzcjhNcn9hRunti/BM55hJx3Sew5est6i61khm/AKpb3Y/QX5F0qtMoL3fuF57wzQN4FkUXe440xG5/6Ql9+cfZjp3OAUHwIEHkHrkgj74079h9ujPBThy+u6KfI7lFlNKg2I4cFz96lU4OIIFHknRgkyLtclJlh1XcHAORdECrLO65US9Df28N9FwQ+CIi8A1eoJu8dfCONm+hyGaIBec8fDSLvcuDLZ+eKl/PAcYaQAavsu0cCD/IuFy/ijdW5WHn33gXIuzDUlncfzQ0S+M6M/QZ4QOQduEI1eR/pbIUHPgERBsh7/niRdwTIe56gU5oDYb0AxxmCB6wO2XePAHmXi7/KS6Hyfsp5n4G8C6I08o5p9iZ2C+LvZ0DkHbhCNXl3AuW95wQetSDvlcMXeYdqM3nSPrCVSIwFW8kK3xkC1WaKA2ZYrTClknfEtj40Dyv2C4DOToi8A5f0TC2WftGR99pcN4K6cpD3ygFpM1JY1QyuLtlpC7J3/gGrHiDvcvFHvAuNvEPOu3jKJu+I3Tf7AfTdAyLvwBU88q7tHoqNvKNrh/pbwIkM8l45iLzT3hvkPTd2wz/69i/2SwR1u230XfZLJvgj7566gbzLxR/xLjzyzg4CkHdBlFDeLWv1sG9AAUkKRN6BK74MmaBH8KA594VG3pt239441/YO8l45vMg76r1B3vPic4ga94Uda+W/THTO1Rvst0xwnCGnAatE3UDe5aJMnXev6g36CfIuiFLK+6flfrdB3wkQeQeu+NvLXTyt+Zdic95XWsPajf7JfjsC8l45IG1GArQnCMxEO6OBB7WuPugv2eA4Q9CZD9VmiuOY846kufDIOwPkXRCllHeMu7Q1Ibf+Sg5E3oErens611kEo2GjgJz3hTbZs4KQz+j/A2Tv7Hen7Q1lAXmvHEjevQAgyHte0POGtycQcqjynSFQbaY4/DObFhp5Z1VvcDMA8i6I0so70ndtCJUjuSPvtA4ByPtNwOO/BVSbWXUMbXZ2wwy9hV80c0Y/fBvSZ4G8Vw5f5B2qzeRFAfKedMAqVJuRjSo57/6qNyDvgiixvKPeddK/+dyZ5h7/NGIvY5a4aXen9Beg2qgm7zTyvn67bjDQe1h7ee/NSRsvQN4rB6TNSKAAeeeMvEO1mcLw5bwXW23GdwcA5F0QpZZ3y6oN62ztZulolrUxYzOImnbNckm6I1B5+ORdcrUZFw+ou0LTPk9576RFAXkPY921aY5ROGZHxXAGyLsE1JR3NmDVU0iQd7koVW0Ggw4EkHdBlFzerVXLuPHgu9saj+fXNTuuWA/H0xZbB6oNn7xLjryHTCCDLiF2Xux9NUQnM8h7CD1zE9vt7XpvO7aqEFqXyhv6CfKeF2rKOzrzodpMcRyrvCCKlHd/1ZtHkHcxlF3eLWsBme/IwjhQ4+sCJKCavOPIO83vCgC9jWPs/fAN5D2MdfztNcx2+MnW1AEi7xJQU94RUG2mOPwR72Llnb0PBETeBVF+ebdWk9aNl51ZchXtBXm/GVSTdxx5r/XZL1doD8fY+84EeQ+jsWQrMXQ3bEUdQN4lUIC8cw5YhWozheFVeSH7nm0rAsh5z4EKyLtl1Z3bPhw2XbYSSXCxbaCCqCbv+NCLuD2EY+9zEi92B58g7yFMOL0nYkcXBVSbkUAB8p408g7VZmTjj3gXKe/kDgC7iAB5F0Ql5N1amAu2dpMsuDrEtzVbAaqOavKOI+9RrYX24BmnvQV5D8HhHJvfVVLevZTXW428N9iIYhEEH5dqyvtphlUCyLtcfBHvYqvNvCzrHh8g72Kohrxbq9EtJ767A468odCcY6ByqCbvOPIe2Voco8Ug76E48TPfY9ZTBeV98g3RwP+7I/NS3B4iO8vgw0xNeUdnPlSbKQ5Vqs00RwZmjn/c33iWszAqIu+W21fozUinz9EkSnYioEBUk/e4yPsJkPdQnLa5XOhxD23YV0/e/3gaeDy9sG03hsjOskzyjoBqM8Xhr/JSpLxbn+R/gEiqIu+W2wmuRHcT0GlWozEVLCEH5INq8h4ceT9M2leZXCDvoTj614YTy8PqQT15b2ik48Y/eJqqKiKys1RG3pPOsArVZmRzzHlHDl+ovAPiqYy8W1ZbvU5LGvGh902ObgYohmryHhh5n/SdiYn+wxkg76GQYvkcHFOQ1ME3OZzusJUbQ2RnGSnvsd++Sd6JkEOVM/IO1WYKw1/lBeS9YlRI3lXstWTRNGIGgWxNjnmcgIqgmrwHRd4Pfbs16V72/iDvofBWi1JR3p0Hra1p2jdN61RL3pfaDh0oWj02jVeavE9jJi3sjck7kSXvZwNWodqMbFTJeQdyoEryfsv2voi2960JpWZuCNXkPSjy3jc163MwvEjmAnkPpcSRdx2J+xAdb2PtQauUvel2Hx2tmkOj2VFIk3ejTX4Lw7Un5J3Iknd00EK1meLw5bwXWm0GyIFKybuC70gau3lEs7gBd78pVJP3oMh7ezKxFub+Ik4I8h5KiSPv+EvGb7+E+rBF1x3h3H0MXzVtbu/v2YZgfontmiLlvTeJLLzW6dF3IkveEVBtpjgg8l5hqiXvXGVXKkqzb2wCU2OaPfMOcmZuCtXkPSjyvjP7A7txOb0YyHsoJY68Y3nHb7+E+qA5TMBD6ZtsJRQcnZcm7+8rIyJSs2ywdyLkq0g0YBWqzRSAbh6vm0Deq0bF5N3t33C990X3Y85qTvgw951f7AnAjaCavAdF3q3NoznsX+YKg7yHUvbIu/k2L6O826wdDWY0coaPbD2UoRR535n4JzpKtvPQFMrNhB0fyY/tIPgj7wyoNiOZY+Qdqs1Uj4rJu7Ua3XRFxJ2v4jN7QIXI26MMkXd0pa1fhwhB3kMpeeR9u9hvStgWaR1/Yxr48K0GP1pS5N0y0AFCJtteXxVxYrS66GK5aaOvQ0xhZY4zBA9YhWozhUGqzbDYO8h7xaiavN98WZXPqwdwc5Qi8h4IyHsoJY+8W5/ouy0faG/6G9Ogh281+PEuR963xpttkN5vdf8X2XLOdlInS/3RGNC1rHCcIeighWozxXGs844Aea8YlZN360efrQDAjVKOyHsQIO+hlDzyTr7b8iFib+IjWoK8W9Ya7+HW+NFpDN4ujxZXmxodZzzFeaULQQGu7b6Bfu6ifqD/QbWZ4vDVeYdqM1WjevL+2fjO1gDgNlEx8t7mulG/b4K8h1D2yDvIuygiD7NGy2rq9YYzeD7L1h+Ph47W0y3XEDgCavuIE6FWOPst7Aer8w7VZooBqs1UmOrJu+U6C7YGADeJavKOg8aH6PrTlOae780LpDTyDpH3IiidvB/38sqXdY8eZNun2MOD7wyBajPF4avzDvJeNSoo7zCbKHDjqCbvOGhMhtLFMZuAvIcBkfciKJ28d1psBXPKu/dYOQL1OZG8Y6DajGSOOe9QbaZ6VFHeIe0duG1Uk3ccNHZxkYs4cG4NyHswEHkvgtLJu9W6j4hd/TJrAksYcMo7VJspDF/OO8h71aikvN/yXE0AoJy8k6AxjqrHoI/QD5D3YCDyXgTlk3drNgyb7MStO0K/A44zBB20UG2mOCDnvcJUU96b9uXkLwBwO6gm7zRo3InzoK8mVguQ92DOIu9NfdlgQxEd7XBWPQTkXSQllHerORkG/bXV0m6J7Rc5zhA2YNUD5F0uvpx3qDZTNaop73gWaAC4VVSTdxo0dltRE7dbVt0kk/iAvAdzjLyvD9393vmy1H/Sh9Z2Bnan56kxyLtIyijv6BDp7Fv6mai7esNucCSuJYLvDIFqM8UBkfcKU1F5d+dlnFjUVxtApQfM0Vo2VJN3L2i8GA6clhZI1xxr1DZA3oOhO3FbHw7bG7+FkRzmba9jmwcSgAd5F0k55R3t8r+cqXE81xrGk/NdfBkHfnlHQLWZAtDN43UTyHvVqKi8W7rDVkrEdsrugysGnPRlQzV5P6VrrxZ15hMXnKbOB3kPBu9EfWS3Qu9e7L4N7tB/BHkXSVnlHV/Snc615YJd5IklkbxjoNqMZI6Rd6g2Uz2qKu9Wd8NWykNyWZADnPRlQzV596VrxysEyHswI/3Xfdyg1c2w0wR5F0lZ5V0KHGcIOmCh2kxxkGozLPYO/XjFqKy8l3DMKsg7IAbV5D3OOc8AeQ/GmJhhVUR89Oz5F7aqDiDvNyvvZwNWodqMbI513hHQj1eMysq74u8uCJB3QAyqyftZoZQ4QN6DWDU++Bo0d7mvqxa3AHm/WXlHQLWZ4vDVeYdqM1WjuvK+M9lKaQB5B8SgmrxD5D0rC/s7t5GvtGFkVR/5gLzfurxDtZligGozFaa68l6+mZpA3gExqCbv/XES5JZ5LYW8H0arJAMOtwZHgo1EQN5vXd4RUG2mAHx13kHeq0aF5b10oXeQd0AMqsm7ypRB3hvthIkwq/slW1MCkPeblXc8YBWqzRTGMecdqs1UjwrLe+lC7yDvgBhSyfsjqwx6Y+xDy1KpIu8rJ4WJJ/b9PAF5v1l5xwNWodpMYfhy3kHeq0aV5X1hsJWSAPIOiCGVvI/8E3Pd0IPtj2sUkfe1sWBriThMxE/KkxaQ95uVdwRUmykOyHmvMFWWd0u1cVsxgLwDYkgl7x3r8yYfoagh72tznW56nYWjjL2DvIO8U0De5eLLeYdqM1Wj0vJeb7GVcgDyDoghlbzfaM57OErI+8pMq7yf+n0Ok2qmAuT91uUdqs0UA0TeK0yl5b25ZyvlAOQdEAPIuwhUkPfP+yRVNi84tNlK0WB574zHY0UbuChA3iPgOENOA1ah2kwB6ObxugnkvWpUWt6tiVoV02IAeQfEAPIugi2tXJkE9i/F0T6wlVQ0FKk5g+Ud1/ovYUsC8h4BR491NsMqVJuRzTHyDtVmqke15Z1HYtQB5B0QA8i7CLZ7/7hWnofwM2WZsea9ItELLO94ll2QdyGUSd4RUG2mOEi1GRZ7h368YmSS976WNxnuGWPcgWoThUcB8l4o+gIdLE39F/u1zIC8i2B1z6pJ8mDvp47TZ/9SFLMJW0nLaq7EmP3f0YXN6xJd3Pz55580/700gLxHwCnvUG2mMI513hEg7xUji7z/YoadHw9ZI0fq3xzwAfJeJJu9Xbese3NaMrsIAuRdOpop/uxtvmWuF7MdqhC+0GzHGc6d0dBxzKzXI5IBeY8gqbxD5F02vjrvUG2mamSRdwm4/Wz2zmMxygDynhNLdi0Yyf3enmuabU6/sQ2RZLwllDMg79LZPYhvPruh80fxo0Tae0M7luTUHbZSEkDeI+DosdiAVag2UwxQbabCKC7vWe1dVR8OBOQ9H3SbGXckD+j/Jmci2END7eMK5L08rLUJy7y55PWFPSULzcGcvdwlfU3aPSYk7x4g79kpk7yfBqxCtZkC8NV5B3mvGqrLe1Z7L1NtYZD3fNBfmHNHg+ydV941kHdADD1T67UGy+OYV9/DESI6yz/8r+k9Wnutpw1lDWf9Zs89zFe2rSSAvEfA12NBtZniOOa8Q7WZ6qG8vGe09zIlvYO858OfXJH3RIC8A0LYGTgnfWs2/XO+0sfCoE/JyKcd8No0m35lShrO+u3t1cMcsW0lAeQ9Ak55h2ozheHLeQd5rxrqy3s2e+fRGFUAec8HXbwvqPpVMUDey0L/B/75qT2Q384wd2wlG59B5SZZJvy7pNZR67KD7MeP+pxtKwmaw67XM9C/cXmHajOFATnvFaYE8p7J3hW3rDNA3vMhhzRbkHdACHuad167LjL5Q1TdSTcgvm4syGJnkkXuIHmnqbezH3Ux9xOksWUCnoUHdBl2q/LOBqx6gLzLxZfzDtVmqkYZ5D2TvZco6R3kPR8g8h4EyLsKsHMr4PpSUOAdEXA0sFZR1mH8hy/y/si2KY/bYSN7BTD6davyzgasegoJ8i4XiLxXmFLIexZ775entQB5zweIvAcB8q4CofL+S1xQPGCqOsnybtyhAwz5G/pf/YNtU57to3+Eb6aH3tEgbYb4O8i7XHTzeN0E8l41yiHvGey9VWcr6gPyng83GHnfs4hfBMM2yHvxePJ+dYiKrM9+LY6S5X3ui7yXR95t3wjfbA+rDvJOgGozkjlG3pHCg7xXjJLIe3p75wlCKgLIez7cYOR94o/7hTxWIO/F48n75SHq2gKLsF+fAIXJ+6xU8i4M7ablHarNFAapNsNi7yDvFUMZeV+QuUoavbDZvNPau6CCazIAec+H24u81zgi745jfwd5LxpP3i8PUbHH7Mc/2IqHZHl32IBV9KP+hKeH0rSDLm2KqJSAvMfCsYvOBqxCtRnZHOu8I0DeK4Yi8j4zDG2mL/RlZ98K0feU9r4asBX1AXnPh9uLvFsL/WfsY4H61XuTld9+fX3rsn8LSMST98tDVBNQXvzE1cAfyfLe8qXNvP3Ua0jevzn7MbL4H7jevJqAvMfCsYvQgQ3VZorDV+cdqs1UjaLlvddpNC23PSGlyz7R/1f1IZKKIFLa+6PqEZ4jIO/5cHuRdwQ+l+J5M9nEl/P5UPxeAmLx5P1y5zshjWA6rkq9S5Z3f513351Q/YfWH8xbs7C7rcUC8h4L3y6CajPFAdVmKkyx8u72O72lsXAO7HfCdhIi6ensPezV1APkPR9uMPLOy/zkiD1ImykAT94vDlH3Q6jQXtVzly3vuNoMAqfNXKYxLuqTqXNQMAAP8h4Lv7zTLx/kXTa+Ou8g71WjUHnfGvhU1p/pjCFHQiU91Sguka1mvoC858NNRt75AHkvGE/eLw5R0SN1ni6uBdSIvB/Rvw3uNqrF30HeY0kk7xioNiOZY847cniQ94pRpLwv5mQektXVQbUyrucEJLA+JxEia67lC8h7PkDkPZS56TgT13InjmO/sHGsGTD+Yq8LcOLJ+8UhemizFUFczvhUUOQdETbD6qa77wiblkoIpZT3pldL6vjI85qIYxfpSN6h2kxh+HLeQd6rRoHyvnFoHH19Pefe1gy+jZpG3sUO/coTkPd8gMh7KGvUu9sbffOoL76Mjv196kfrjb0uwIkn7xeHqOjZKbobtsJQLPJOWL2bf/xi6ypQQnlvGtdlpp4uxzsIhGMXnQ1YhWozsoGc9wpTnLy3ujQm4DoB5/POCQwYgLwXQenlHSLvYbjWp9VGPfw367PXIfPJZHr0QN4T4sn7xSEqel7oy0ZQRXlHB1DN7AsdqJuJ8sm768uCO6HlZ+98uwiqzRSHL+cdqs1UjaLk3e2y2NIq8M9+bgIL16WRd9F3oPMD5D0fIPIeyj/ZEvEuIOf9/ZWtAJx48n5xiIotNnM9VZ2S8o6pOSNVou/lk/dan62cs8+t3hq/vHsKCfIuF4i8V5iC5L1psPu4v8yL0aoegTeO08h7eaZYBXnPB4i8h+K7v1UbCyDazIArPHm/OETfQgb9pKVoeY/PeT+im5oapWfKJe/uQq/3g6dquBzwIA5+eUdAtZkC0M3jdRPIe9UoRt53Jguv1IxQHQ+6c5xG3oNj+CoC8p4PEHkPxRd5t1y+0vBRlGdwuCp48n5xiKZp6KK4bASVjbxj6v//9u6FLW0sXtu4GRmGsdhJOQihQahNN7UbKShj0anXu7//p3pzWEDAhKyVAzndP2YUrbWKkDw8rvwz/iau5apM4f1pemdZmhY4je1xLK6kT+Imcg5YZdpMbnbNO9NmqieX8P6/A7GRWfTDS5aVN4vmQJx9Wga9a0YI79mgeQ/lP7LEH+RjSjOh1MM2vB/dRdMO7yGfv5jhfdTqT1P+zUMc5Qnvc6PrDVd+Mjvasa6R8n3JR+Imsu94TJvJjzttRnTvhPeKySO8N7aHqnaap8q+9Tbi78UK7+n3rhkhvGeD5j3UQfMuXidwPNQEUbbhPePmPeTznzG8b395LxPeR6PZIP+ngaUJ70/WruZaL0Rkd/UnXU17Wto3p5bNzSl3EzFtJj+7Oe82wnvFnD+8r7pX3pXl4ODEqu/N342ciRXead4TKn14p3kPk3LzPgg5gAVhtuE94+a9VMtmHMtOJ4Unk4mUJbwvuqEV2GzsrmNbTLV+JgvaVMM7zfu5+ea8M22mas4f3qeinXsOO1R17+l4AEas8E7znlDpwzvNe5iUm/dhAc9yX2zb8H50Fx1X7IBV5fBuf8lGzktnShLe9empB27TeQ5k/7RXVhbPq+XD+/YXL4T382LaTIWdPbxvdyO68Rh9gNzxyJlY4Z3mPaHSh3ea9zDpNu+t96dbw2nb8H50F72t2KhIhWkzO49GxG9mM1aO8P4WeJDqXq+/cn/aYec9TETiJtofsOrmd8L7efnmvBPeq+bs4b3tbZF7d94hNhGO5h3HCu807wmVPrzTvIdJt3mfSwczCNvwfnQXreVJmo6t2rmeX68c4T3yHISzqbeaLYupaxI3kf2slGkz+dmtebczPOG9Ys4e3r1zJjWnG6mssBwf9AU073kofXineQ+TbvNenvOhFcY2vB/dRQPPcpHA8ZHEZWjebVqed6hyhPfolWqLpleYpb0UyyZ3EzFtJj++Ne+E96o5e3hfDXrL2XSxkDxn8+HH0bznofThneY9TLrNe9qRswa24f3oLpr206Dj8/SUonm3veZ42GopwrtMMdEx3J2o7C5XgWR4Z9pMbljzXmHnP2B1+efLdCb9e+GW6d9607znofThneY9TLrNe9qLPWpgG96P7qJpL0D6cpSByxLe3SXbOSlFeG+I0W2ntDZT59UqYnV8DKrhneb93Hxr3pk2UzXnD+8e6d/hHQQCmvc8lD6807yHSbd5Z9iMsm14P7qLroapZtZnQ1zZKk14H81yS++lCO/iELLTXjfuq8jl8cokbiJxwCrTZvJB815hOYX31Z24Eulgi0PznofSh3ea9zD+YJS4ef99HBERaRvej++i6Y6bebdi4tzhPeaad0du6b0U4V3ul11Dt3NPfzsocRPZ/ybTZvKjG7vnTYT3qjl/eO8Nxz2FDeNFX1xx0LznofThneY9TKrNewaLaitvG96P76LptqTvIl55mvf3Yy7PJc0bJ7PwfjSOLYT34169pP00SO4mYtpMfnbNO9Nmqufs4X1+v3y05vIbxoO6gOY9D6UP7+nfA4r6o1KVavPOknd12/B+fBdN9z77cryeqUzhXWpddwbSvHEyC+9yv6ERP265pK9A7iZi2kx+3GkzonsnvFfM2cO7M252PX6U3jDOPogrjljhneY9odKHd5r3MKk27yx5V7cN78d30VSPLnz/TOD84X37y/sY4T2nKUalCO8qzXv6t6NkeGfaTG52c95thPeKOXt4d3ckWkd6w3jwu/hY4T393jUjhPdsZHAPqEp4T7N5Z8l7DNvw/u4u2lyIKyl4HxzPH9634oT3d2Pqz6IU4V2yeXfO0uR8Fe6r9EjcRPbXx7SZ/PjmvDNtpmrOH96djmk1nsj2fAfbbZr3PJQ+vNO8h0mzeU9/mEUNbMP7u7vouwEx8QWMrilZeF8Z6Z9gKFIpwrtk8+59VOrrjyRuIvtZKdNm8sO0mQo7e3j3Hu8XX4/OGhLmcMdD856H0od3mvcwaTbvcR6ctbcN7+/vosfnVYov4IjPc4f3BNNmXI9G0qeW6tK8cXJu3r97H5X6ob9yNxHTZvLjm/NOeK+as4d3kcb7kv+Ys0R+j+Y9D6UP7zTvYVJs3tM+r1A9bLyl7QcztTwB74onqLYeeOsoUqz3T0ravOcycqYU4V2pec83vDuYNnNmuzXvdoYnvFfM2cO76ArWP6WObluOD47bonnPQ+nDO817mBSbd6nTxeCImNATtOQoreo9aIKnWFF/rkicuHkPWreftVKE91I070ybyY0+NHYI7xVz/vAu9lMXUomq80tc8dC856H04Z3mPUx6zftqw6yZGJ7vnZt9bQTMlknpVxmBc2taY+entTzXUvLkzXsOy95LEd6VmvfUT8QgcRPZ/zLTZnL08KB/tv9/0Od6auvwUAznD+/bHrQhsSU5LqRo3vNA8/5OVcJ7es37t7RWedRMz9B6V8NPur1zPb5YqQSdxT/Orvv4om203vV4Jj4maymE9/Nvx0sR3pWa9zymzdg/NabNABk4f3jfNUH9079nf9SXneONDc17Hmje36lKeE+veecMTTE9alPLceu+9PvxXXxIEq3hvfh0B+x/rX8dUMlnI43wPro887zIUoR3yebd+61FHuHdxrQZIAPnD++7X94tjRPFz6p7Y02ab+KtLZr3PNC8v1OV8J5a836uQx9rJY3x5qfmxR9vXjOTwpp3+2mImezppapShHfJOe/efjP1w1Lkw7uNaTNAmnII77vq/a9N6DLG1sD+Ypbfj6shmvc80Ly/U5Xwnlrz3v8mriA93sr0RNbj8ybeYKk07+kv2T6tFOFd6Qyr6U0fFZTCu4NpM0Bacgjv+43wLGzn9NvbzLw7nTPNex5o3t+pSnhPq3mneM/EbCquxLUcnPswz0DphPf0w+dJpQjvcs37nbvfXL64b6RI4iayvz6mzQAZyCO87wcH9IJj1dPAq9zTCe807wnRvL9TlfCeVvPOnMhsJC2bp+c6JPU0O7xvFz0nCe+pjb6XUorwLneoycQtydK/+SRuInsPz7QZIAN5hPfR4/22cQ8cOaN1vRyxNI6zOs17Hmje36lKeE+peT/3cuT6SPas6NSC93NKqXk/b/VeivAudf94vXFfpX9vkLuJmDYDZCCX8O7rAN5vfFbdK+9Ka/CuNqJ5zwPN+ztVCe8pNe9pJhP4raZS6yKCvbbFlbylFd7PWr2XIrzLDJBpbdzVV4ED/5ORD+9MmwFSlk9435cAq8HRo7k1ECMWfhu/vSs+NO95KHx49w+wfn+ZL74vpDXE6wjajW8ed9glxp313NJp3lM6nRACvP/1ozR9WpTfh6QybcZxzuq9FOFdZu/WHru/3/70bnhbYvLh3ca0GSBNOYX3/RS05X3b3y09G3PvyoVY936A5j0PRQ/vTxsxvDrE/Q95dzfiShTxuU8Y/BRfX4Gl0ryvBmc9kLBm/op7alHdSrAQKl1pNe9nrd5LEd5XN5EDiXod79fbm9SLd5mbyDlglWkzQPryCu+rD9vIvuxPzHbDK0m1y4GI541+UJagec9D0cN7ryOupOBHeutCi/rj9EuleW+kfe4X+D0OYq2c+Z8PiedMpia15v2c1Xspwnv0QnZ9uho4hdhT13s7TRI3kb33ZdoMkIG8wvtoae02w83p65VXVn4XkX3VEevej9C854HwHksZwnsazXsxRolX2NL6JK4paLYL9FNJrXlP9bEeoRzhfTk+Xag/DZbubnNtZPBcTu4mYtoMkIHcwvtoPdgNgnz1SqJVp+md9G9phXwpNO95ILzHUobwnkbzXpBxhFWmnMSX0/TuxylIL7yvhmd7TlKO8B6xkkjr2LfXpjVa3YrlqKlSDe8070Bq8gvvo9HVdFsazJzVMqttZH/crnt/h+Y9D4T3WMoQ3lNo3s/YhdbXq6XUm67fD+rKVXrhfX+wVOZKEt5HjfCZQnNDc9qw147eyeTJnHx4Z9oMkLI8w/toNm6K+O4syNtulmf3oRGd5j0PhPdYyhDekzfvj8bZqtA6m5sL6dt5efWzEOdV3UtvzXvyk85KK0t4Hy2s3W5xvdB8upP+tfZkP+37ZGXzixiJm2h/wCrTZoA05RreR8tPm47bstvhfXvy5tdpeMlE854HwnssZQjviZv3/dmSkall80Vu+7xabBpFez6VYvOexdCUYKUJ7yPdbHtjlZ/Mjsjte13jb/fPsuDcRLqzAw9/cXewbIZpM0Ba8g3vtt7gbnqtW0/b1YztUycWoXnPA+E9ljKEd3/Ki9W8p5lJcNJgakgshumZ93+Iq8WRZni/2h0qlbHyhPfR6NXYWF1N2wTtHx/H4kr63PDuzEIKf2GHdabNABnIPbzbAWKmWQ/266a9VW5ZJ0/3TPOeB8J7LGUI70mbdxa8n4+l/55aTiA64WncacmcdPPM7PC+XfScOLw/G+JK1soU3u09p/6kTYMfjdmN15x/FVdOYtoMkIEChPetVWdsmad3ThVv3u+8gZlpMG7S80V8fUVFeI8tYfP+PCjaAo0Ku7W3jbplXoWuU3puD7v2HxYzvG8lDu+jYfyZh/Om2DzuNZ3FHYHKFd4dIYNnbjJbaCR3EzFtBshAgcL7aPSoR5zAudrN+8h/bv2El+mV/61kF5r3WKrfvD8O4ucoqPJa93VjPG4/vYtj617HNF7dH0fVw3v8eTNPg4V/u+ZePg3CPl35wvsqcEzbIrvfjkncRM5Jmpg2A6SvUOE9UrWbd9tbWpfOL/9byS6E91jKEN4TNe/r2xgPR8TlNO+ux9fuZmM1F95ZqR90rW0NzU5v+8MoYnhPb9pMgof7cmPf3X3bNfcyWt2EPAMtX3gfrQcb8QuFvTtn0ntGJG4i+07LtBkgAzUI7+Vp3lNkh/fUEN5jKUN4T9K8L+8ZNHNOB+vdW/qn3RKQ61f9P/FuR9Wb99iPq9kHceVQ2HEEJQzvzv3C/2sF5xLxy+xE5G4ips0AGaB5r6Yz7SsKgfAeW4Lm/f+szI6DQ5Bd8x7An9Cq3rzH2gs4Qh6Q5mRiBC19L2V4D/jVQoYkD1hl2gyQPpr3aiK8x0PzLmlJdj+zqEkzW1Vv3uNv25rbcwL6PPeb9ov5YjA+jpUlDe/nJHcTMW0GyADNezUR3uOheZfz9w+y+5mdat79Kh/eF3bcVtbS7ft6YzM58tV0x8a/jUaP/e7h01fCeySJm0gcsLpFeAdSQvNeTYT3eGjepTzvz8iOM6F5F2ZTcUXB49i6dw9MfTbaYSOSng6HJxHeI0ncRPadlmkzQAZo3quJ8B4PzbsMsnsOyty8p7rmPcYDa2U8jr45U9C/3f/23hNkPvU/HgjvkeRuIqbNABmgea8mwns8NO8SFlZYeYns0Lxv3an8ksjlbA6dU7Mu+qf+6lvjSlxzEN4jqZ5hlWkzQGpo3quJ8B4PzXukZb+Z7QwLBGLN+9ZYdUapu4WYTUeNtvd2mNW970gOwnskyeadaTNA+mjeq4nwHg/Ne5T5+Ju4hrMqd/O+XfScRnjvKybAlelMmVk0n7re2+H8H0F4jyRxEx0csMq0GSA1NO/VRHiPh+Y9QmPQonfPBc371pU7IUaeN56m3T1Y0h5oNdx/COE9ksRNZN9pmTYDZIDmvZoI7/HQvJ80N/yrgnFOrHnfUvwOveJ9ZA0lVtv4bmTCeyS5m4hpM0AGaN6rifAeD837Ccu2f00wzotpM1uKD3gxF34jMx7+46u4QniXoHTAKtNmgDTRvFcT4T0emvdwT+N9ssHZVaR5/64l9kGtj/GWyC9fZH615LvxCO+R5Jt3gWkzQFpo3quJ8B4PzXsY3bp8f3J5nE8lmvdZYygSeALNofi8cl68szNJPRwJ7yokbiLngFWmzQDpo3mvJsJ7PDTvwS4G1lxcRT6c5v15rp++2BvIgjfvL+J9CayVwrsz392m/3BfRSC8q5C4iew7LdNmgAzQvFcT4T0emvcgF0Z/PmLITL5u9cYXw4pgDnuE90NiybvcfoDwrkLuJmLaDJABmvdqIrzHQ/P+zqNm9jlONX+W2ZRYtb28NIsX3v/xhfcvt+J5Rnw/lJ4AiE2h3H6A8K5C/oBVps0AKaN5rybCezw074dar8ZYi/GoQ+qsyFMMuVbj4oX3e9+0mZeZf5lPvMvf4vNK2YZ3mvfUKTXvTJsB0kTzXk2E93ho3n2eP/U3bUr3grAkH9LNAob3o2UzbwkvSsSm8ILmPXUSN5FzwCrTZoD00bxXE+E9nho27y19rjtzZA6b98fX/ovRZFdbHN7Ew2iq5x89g314n6Wx5l2NmNLTo3lPncRN5BywyrQZIH0079VEeI+nhs27MbAGziSObfOuP2ldazJuX7gT9lAU4sDLSLLz4M9o0N0tej5/eBe3B+E9fXI3EdNmgAzQvFcT4T2emoX3V8uyXtaj9dCyBs4kE2My+Wpdak/Fy39YGVLDOnuX4kqB+KfNpHCGVTU075lROsOqi/AOpITmvZoI7/HULLzfL/S5szu90Od/3Or6w2/v3Sii9cASZykKdzXoS4ykOTd/eL8X7zub6cx9dUF4T5188860GSBlNO/VRHiPp+rhfT0/OAD1fj++3bkVGeVebLqI6OEahTyV1h++aTPeKZPOSGwKmTaTPombyL7VmTYDZIDmvZoI7/FUObwvP00npmV8HTd3D6P7/fqYIi63QDX88DXvSidYSsM2vDNtJnUSN5G9gWHaDJABmvdqIrzHU+Hw/jq2zM1kMrkzLLMpDkb9+WW4dXf29QyoC2/Ou1u9nv+AVZHHad7TJ3cTMW0GyADNezUR3uOpbHhfdTsd49UZCbl66k+vBn+5751eNj8KfZp3ZOR4zvtZiR2A/tN9FYHwrkL1gFWmzQCpoXmvJsJ7PFUN7yuraeznf8/GVwN37fugIR783741Ce/IyD/jH1vG2X/Bsxq6h/A+Sz0cCe8qJJt3ps0A6aN5V7H0n6M79PIoPjpPhPd4qhreu1eG17V7lt2m4UQawjvO4E/z3mPdG2c/YFUMel99cX7tFIXwrkLiJhIHrDJtBkgZzbuK9tiKNDSGMnuJjBHe46loeH/t3B9MmRmtjEbffkV4xxk095E4h1+EfvLObrWR2Uz4tpuE90gSN9H+gFWmzQBponlXIbMFtvQ4X2XaCO/xVDO8r8z2Pj555gOnkCS84wz84f38hyCtTLdNmU4On78G8p2elvAeSe4mYtoMkAGadxUyW+BbwvuZEd6jvA4G707d0/wwJbzjLJqmZRn3lvXDujVyOARp4Vbv7Y+WmLEUbuk7nJbwHknygFWmzQDpo3lXIbMFtvQx4f2sCO9R+uP9wapbj+ZwRXjHOfylz/UfC/1hoj/Mc9g4Lm+cp66L5sx+unqaF/M9hPdIqs0702aA1KQQ3peapl1HdhqpoHmXRXiPp5rh/c4MOIj650YnvOMcWqM3e7vobklyOYmvm8nt6P7aefcLqANigY2H8B5J4iay975MmwEykEJ47xnXmpHipumEcjTv3wnvZ0V4j7B8uQsILZbZI7zjHJxI7Kwmz21L4mwOW5vR6HV6smW68v+CivAeSeImEgesMm0GSFka4d3OTmlumk7IrnnXJ55ff3l+iLe3vPf/I/Ft3j7QvJ8X4T3C2gz6EXZMjfCOc3DCe9/eig69N89vZTyOnrr2lbkx894TpOd8xA7h/djfX7ydoYKv9g998tPdwDBtBkhTDcK7VPOuuSfwjjKV+DaZNnNuhPcIrU3Qj3BqvhLecQ7eYpQ8t4uPw8nU+e3T23o6DTsPh9Y/+P0U4f3YPM7ZcddfdENsYpg2A6SH5t2j7U/gfYIp8W2y5v3cCO9RJuOAwGJsZoR3nEP+4d21uroRhfCeeSX+UDeOpqkS3o89xArvw/k+vNO8A2nxh/c/9icJVbn88U8VmvfudlXeKTLhnWkz50Z4j2KNX8W1vdZmuBxZX/YI78hIQcJ7R/O+EL/HZsfeib22Teu3eM8W4f1Y/OZ9t3MlvAMp8YX3zk9D3rh9L64Z3+2HdJHDO817QoT3WAoU3hvWQFzbWxj2s9of7cVW1znjKpCBYoT3kAfkT8O6bb++/9oI78fiNe8vu2UzdoQnvAMp8YX3/90fE66kN6xE8y6+m5PkmnemzSS22v9iZ3sJW6laxvCu9O2loGV2j+8P6/HU3o/e708o2aN5R0aKEd5D9gT9kDxJeD8Wu3nf5wrCO5CSw/AeS9HDO817QuffV8xN651x6Izm0oX3wG+vLf4wE432+GjFgLUwnJeEd2SvGOF9aQbNiVwePzK2CO/HkjbvNsI7kJIahHea94TOvq9o+c+VsrMIy+hlC++twLjQ8J3cMXUrSzs8N/xVZ+B0/R+MW2tsWff2/+MUb0XArxjhffRkXGvvhM6OJLwfS77mnWkzQFr84T3Wohma9yPMeU/Mf5LyvdUwpHovW3gP+fbuxJVMtAbaeJ9SHgftvvvW3/MH/eZJfzL1uf63+0dA6goS3kePIrD7ha5XI7wfizlt5jPNO5A+mndPms074T2hxnZ826G7K02bBZTWZQrvjzNNswK/vWWcPaO89UCbdr1FMmvNWAy8JL96G42+r0d/m6O3UdiqJCChooR3JYT3Y6x5B4qD5t3DmvdwZ99XPBpBi1MbU03TphvjSby9U5rwvmyaY+eb+Bn07b1mvGzlrT3+YGwsyzLMwdRdM2P7P/t/++7qfqnOdSADhPc6N+8P22Uz9kvCO5ASmndPms07c96Tehrfeodx+ozdMySORs+Xg6Pbtyzh/dX85H3lT8P3397g8PSO6XsbPXaG5mQwHN45c2Y8zr9pTSYTZ0wkzTsyQnivQnh/7iRe8054B9JC8+6heQ931n3F2nLWZrfm+mxgPvlGKepz8QGj0dzYz0hxlCO8r9ofd4X70v996d1hw35lv7tpNbw/z8xcb3zTV3aQF7y23fsB07wjI4T3KoT3ziB2875DeAdSklLz3v3gHvyTteFHceVYR/SXAX4EzOV7z0yxeWfaTHwr6+Jx8DwavT3+bDghc3/xWd7bH7FXjvDeffV/Dwff2Xzghvb+Qg+bOZ0Vr233fsA078gI4b0S4f1jzOb9h73rnLnVINNmgLSk0bx/OVt4D9Xb95jxLgbNe6hz7iuadnh+bY9Gn4/XxhxoHfxpKcJ7yEG4wlXXjs727bwyMj1Z0zs07zgDwnuNw/uQOe9ABr4YW9P+T3FNxlgTj0YvvKe5aYrF32TGudxfiu/mJJr3QxdT8YuLvf7hkhZFF87ia00bPU2Djunccz9uqwzh/dk5JdIJT/2Vezs/GhkU4K33PyaXTvOOcyC81755FwjvQErWD/r24uuhoy+X+6a6EOE9qcuG+G5Okmre6zPnvdGf7e4928s36900GHktdw5L92l+68wwPMXwLZwpQ3iPXA9jPx0ZO6178BD4ZHTD/9DdXToazTvOgfBe4/DunmHVWzRDeAfScxCS/F306cv1YXj/Z2xZA7OUBm4JaYpv5jS55r0u4f1xLK4c+G8Tv8L11pYMngbe3v4Ef2AvQXiXCAKLphvwV4Fnl01GvxUP2wvn2JD+a8t7S9No3nEOhHetOUnPUHzWM4vdvDPnHSgO33QW54DVyz/m+qUlFqCXinXp9ZDimzltKtO81ya8h4RmfymuRgTX4fffEb27HQc24oqtBOFd5kvsjt3DVjOo3sW01L8G/V/2Pf2iPf7lvm2Hd5p3nAHhXRNXyow170AFHIX3Tu9tdJ3zBqoZa7ugaV4rKXW0rkx4r8Oc9+VTx5kOHriOe7U5vVz9BC+3tiYy8dWXBEoQ3mV+HK27rvMqg+rdC+8NwxlH6TwtWnamzr9B847zILx/XP/1V9/rzXcaf3l87/8Se9t5BtokZvM+ELtPps0A+TsO77/cLJCn5nWsDZ927b0W38xpU5p3x//87P5yjkttd2f+5e7epR8//no33PxG5gc52M99L0F4n87ElVMWA/eVM3AnXe6pDppNXzqfOeewpXnHeRDe97vLk24KfRPNY69531VjhHcgZ++a97zD+4W1Xa2htv3bftXimzlNJrxb+vePKSbnmDIM78sP7W03rLnHC2wNJ87LJ/sjHmLtg8RSmFepLG7tp9qUILy7x6JGWX5xXx1M0kmF07zPpuINj3Ob0bzjPAjvkuF9U+ib6CFm8/6DNe9AYRQtvK8uu96ZVJfdodKo7NTD+63+0nnXVZ9dduF9PQhrkVtt7+RJ64ElFVaPidSqSWXx21KFd7nc4t3QS/vxlKrfi8FoOd4+4RKmM+euT/OOM3Duey1983TekxgklEN4nxU7vMdr3vdr3pk2A+SvcM17c+iuGB4tTLXiMvXwbukbo8LhfTX4La4FmFvf7Jfj36O1syxDlVgvInc/KlfzrhLe024oW5OJOWq/ire2WhvnhqZ5xxk44X1qfL+/894sB5r3Y7Gbd5bNAIVRtPD+aA6t0Wip3/YVt3/iq9al5rxLrnl/ij1vJTWZhffLk2Pcl86K9zs7Bn6LsfZDjKmRux9Vt3kfdRNMyg/w1vkxHm2OinfnBrRvaJp3nIFz53MesAdbkqLLI7z/KvQz6KTNu43wDuTMH96/6HMn1eYa3kfPH9qz1uC7Nfwp3iFJfNWa1BlWpZp3464A9UlW4X3uHVQZrrPwjiWNcdilSLhy96NKNu/eR6X5s3PptwEj+a8a1zTvOAsnvDsPWMJ7hGKvK0q+5p1pM0DeDpp3y7LsvJZzeJ8OJ+b063Cg2Hpvw7vU1lXqDKuLIvzuM6vw7iu8Q/Qv3CUaMSYeKoX3Sjbv3ke9W+KSlG6582YOLZr2DV3k5l0XZ2JIwXXkvRZZerZ/BOOOpk3K9KMgvB+LP21mt26G8A7kzB/eb8S7cg3vT2b36ufl98lk0N4dUCnTJe7C+/6I+HByZ1i9GaQ+L0RZRuFd4mDK1aDjzmlXr95Fwu1I3Y8q3Lyn/kDSb8Vpmvxe2/a/U+Tm3eq82M8vUtAcNlPMYVDXtDTt8upa62pa5/3TyIIivB+L27wzKhIojuKF96H1cvePeaPPX6ed5WrdXjSuZM71uQvv4rs5Sap5118+5f/r4YzC+5N3VPBJzxN3KmHLVE2DYl22XHivcPOeQXgPWDZzbcfaQjfvqZ0wYW2mmcMQbqHZ2Wytacc/t+b+Hh3wO6CCIrwfS9C8u+wIT3gHcla48N4ybsed+4vF19vrpWX81J+ufq9lFm6kHt4tfTNJe9ifuozCe+NKXDnlozevXbl6p3nPJrw/Lu4DTntr6QVf827p3wnvpbIeOr26ZlnHd2B/eH//O6CCIrwfiz9txg7uXvlOeAdyVrjwPnr9uPzw4+Zl/Oc/N1//Ndzk6JwKPkrq4b3SZ1iVWo7dunOTonLHJm63ttT9iDXvslp3E/P9/aFlruy7Ps07Elj2ndOy7QyGmxvLGr+8jMU7hNk/d0Ph5UtpfhR1Du8L8ZM79OOroe7n8IFpM0BxFC68Pxor62KkGcONefXli/WHbI+Yeni39O9/i6s5yii8y31a0xk3M1q9KHa5IqvJ3Y+YNiNr1f/xfdQa/yfeFOx/xL6had6RgG486EeXq6n/Lfeida6mH7c6NO8nFCW8Wwt9HnC5bqu73OjGbsk702aAvBUuvPcvXrujv16Gg83m8ucP+VknqYf3SjfvkuHdC9buyEgFSuG9ks279yrl8O79DuTX4Y00m7o3NM07EvjsDBo7NL4RV/bGHd/WtRE1a7Yw8gjvU+URXdmw5qO3gEsc6+9MmwEKpHDhfbh8eXnq3G3u+6Yxvdf/kd1IpB7eUysME8k1vI+9YK266F2U6XL3o0o2794r37eWDnedcdf/nc3Hdkqwb2iadySg//A37N7ls/8N93JFeJcN70U5w2qKm6C1+Xk/553wDuStaOF9bbbNccd4uRtuPm40d5KGnNTD++1D7Zt30Yqrhmqt4b2SOSi2ws278nKjSO7RB6vOrtZbXQ2c38/bd32adyQgdVjLW4/wXrbw7tu6JrU2mTYDFEjRwrt+e7O+mnTvJnd3nfGs1zlaJRAu9fBusWxG9DaqofrCG4+vSf21CjbvLe+GjjyJrTIx4WM2bs9ao5XeGItnSV7zfqFNnAl/NO9QJTc65hfhvWzhPdXm/cGZNiMWzhDegZwVLLyvHoe3d5vhRHs1B33Tai6uGr/kTrWaenhnzXvc5l2cAUpmlnzZmneZMw6MHr0Rmwv3HFdp2haky9fpZvLFuhL3T/uu77TtZvPSPYlR4Zr3zzTvBSc3UKrX+eAL72JvUXx1Du9pNu/umvctwjuQs+KE94vFsHHX6Q6Hwy93083QavcmL98vf1wNrde1xCZoG96txv+K7+dT45Dv/TcS2dXSx3UP75b3Ucqh+t49wvX5i0zS9cXhEoT3vsw+q+2e3Go03Z0hOC36j+3y48+fP8+31/WO17zbEdn9UmneoUiuee917n3hPc6s8FzUObyn2ry7c949TJsB8laU8L7sWv3hYHg3/P518LUz+zkwNne9r+ZweD98GVx3ordB4qu+GAzm/7mW7cEh7/1L5/0071KfdhAzvHvrZpbeGVoj3OznMpQgvMuMbn+euJX7s+G+lab1rTv1w3u5Zb914TXvIryz5h2KZJt3wnvJwnuazfuYaTNAgRSmef81Ws1Gljm8/jL8oY2eR73psP/l8qf5aPWeR5+jVyB4X/Va1x90/bPtQVSTf7l/6vBNyJLJrkybid28izr9xnpy3zrFH3FLEN4llgKtLMNN+P1v7ptZOJj15r7xaqf44cAavNivU7zHpILmvfBo3iXVu3nfz3knvAN5K0x4d/1ePzat7/9d3S/m639vvn8x7rV131kGED2a1vmqV53vt8fF5HgQsB2Vya4079veRj1Uf3KfbFmzQeTCmYZvJE0JwrtYzn/Kx1d3vUzLW/h+JvYDRv+mz/WLuX51Kd5XFDTvhSfbvE994f2s9+8k6hzes1nzzrQZIH/FCu+uxmA9bw7M7uuo88M9P78U56vudIzJ5OvkwKZpvF8ELJNdad63vY0/YMtZGc4Iw/ZrK+iZk9/BSbhKEN5HzU/iShjtarRxvqc0f3DR7nXn6a39/9voV9HCO8174ck27769BdNmTqlm8z5wcjvTZoBCKGB4H82N9ut8faH91CQa9y37q16bP+xtlfgr27/ZMgfvtzMyyYo579veJsYd4tF5xmSH8d8RZ2c9eF5QhvDeMk8fD9pse7dzmt+LBF/D1itc857WA4nwnhXZ5p3wXrLwnk3zbiO8AzkrYnh/W75+HJh9bb9cXYL9Vetm0GbaCjg6VSa7Mud9ZHqbfqkRK0ec8Or837o99S/pH/xRuAzhfTvEPlhr6vyzdyvvycsZGb5fOP0Q7yuK1B5IhPes0LxLKlt4T3vN+3bRO9NmgLwVMbxvydfuttTDO2veR9+9Tf+L/OKlvU5bu3X+3qoTXr7PrYPPXIrwPmp0QnP5YuxOh1z0e+6yoTMa/CsexN++NVnzDkU075LKFt7TbN6ZNgMUSZHDuxInvH9PM7wz531kusebxtv5rRqancxnTcvaTAbi4GFHv7Fd5b68PszuJQnvo9fp7jDcC/vb2zMnhv3t2d9TT2K0aboGjd0giMKF99QeSIT3rOjfNQl9wnvZwntWc94J70DeKhXead5P8oX3pky2ffzidswJMnVzupjrh5eLtum20nNtfHw/K0l4H82NzoV7yzQHi+2JkraXC83I414zaOw6MZp3KPsk8vlpa8J7ycI702aAqgoK7x1f1irNpZN+817haTNSA2T6Y+9V7O2089v4t6OL/d4byxpPBrsGfqcs4f1t1OvfGZZlGSv3Gzo0zyPVFDm82w8k/69e4hsQ3nNGeC9ZeE992sx24QzhHchZQHj/ffv9JgObofd6uPFep+v7rT76PA6aPUzzvuUL7ycPuxQu7twPSnCm0JDf4Qy/6YFLwssS3l3Pc91+vhhkeLgY6Czs8L7drRawef/L/yw7weWR8J4vwrtkeP913uPVQzFtBqiqgPCekfnQ68+Gp4cHJtDa3L8/pefjZuAeRXig9s37ahi5d1lbbbeeT3Cm0OA0Hnqio1KF99Hb6Ffwt5fHqSfd8O5p3gxk/bi3rDRu845lDSzxOd/bvKRnKD5nXVljewsafd7iSI/2pxl/EJ9U3g3hXXz7Ec58vHqotKfNiG+PaTNA7s4X3kdzUaCJNzPQ6U/FuLy9cdN6n1Olmvcqz3mPXguzun/uOikhQfE+WhkB/8qy/yquHStXeA/59lr9FLKVMl94/zMwjQUAAHQ4SURBVKY1ZH39NNf9d4q4Jp8/t7+Iz5mhf8XrGmtO5vpVCg+T3nSub27FJ5VnEt7Ftx+hKOE91eb9M9NmgOI4Y3h3lzwrjX9UtboSid1vGrCKQa55r3J4f74/Xb0v+7OR8du+Sa0kT7ZaffFD8NmEfkdlC+/B314e2d2/bObb/3qvJHydv42+is+QhH3HWnwRnzPQrrFLKrVPVFKf7B9X8C981PQ6b6PvffFJ5f0kvItvP0JFm/f944/wDuTsnOG9OKSa90qH94iZQn87a42c719qLE1KShfei0M07+6+VSW8H90pYooM76moe3B3OOE9jYeJ8wSA8K6u1s37A9NmgOIgvIep9Jx32/T9oQA7r+5JhvoXUge2pobwHtugsTv5oUp4fxiNbiZJ72G9ib3hOBXe00zdNU/wTnh/miQ+JNqa/OOEd+Ubk/BesvCe/px3sZ0hvAM5I7yHqXjzPlpavny7EscjuJcLY3zhLJZZDTbGOSenEN5j2615t3etas178tM6uJ/gDMtmap7bXU54934lloj7CWje1dW6eWfaDFAghPcwlZ4242oOxKZ9eXnnDgISbu3/B5P2ajR6N4o9U4T32PwHrF6I19Gc5j3z8E7mTlG64V35R0N4L1l4z+oMq0ybAfJW0/Cu+YrmkIvxqQhn2sgyvI+eLbPZe9DnU+ec/scaKUZpOYT32PzhXa15fwyZVi9P69iPk6g17ylEeJ4FiPA+T7xhMp/sBzzNuzrZ8D49b+0RKvU179sHIeEdyFk9w/urVzFH6BfgTBuZhve30XrRsSwjeBrk2VcNEd5jc8L7dr+q1rwPE5dzF9ZLeHgncafKCe//fk+8Yboybt3wrvrTIbxLhvdqnmF1P+ed8A7krZ7hvTwyDe9CyFGpgyRDIuMgvMcWv3kPu1OosD9HVPOePMbzNMDmhPc0HibO56B5V1e28J7Nmnf7oUh4B3JGeC+2c4T3pRl0WGrLPPcvHgjvscVf855peCdwp4zwro7mPRVrUx8435r3mCa8AzkjvBfbOcL76Gl8pR1r/nwWf3o2hPfYBo1dTr7oSvva0bSk4V237ysTTZt+EZ9z7/L41aW4GlfCv14F/zg3taFp1wmnQP3PWLseDsQnlfdSyvA+9LZoabCcG6Ahbo2t7RNn3/u/VLB5HzNtBigQwnuxnSW8j9YNsXPaW5z/kCvCe2y+5r1tZztJnY/N5qSVzKBzrU2azY+X4nPavnwQEabb/f5BvG/rWrwuDN8X+/NevK+4rv5pNqc/Ne3nJ3Hzx9QYN5uXTfFJ5d2XMbyPFuKrT4MTyvWjO/E2IPve3yjA4VKOlKfN7BoCps0AeSO8F9t5wnuQN/H6fAjvsfnCe/NSvO+k3U93k/BJmtPtHd2xbnriS/n27da5+4p/y311/ntVBN8X2006d+c8nIdJ55d4I6aYDzXf3qJE4b3GUl/zvo3vhHcgZ4T3YssvvJ8f4T02f3hXuxWTzhRyur2Q8G7v6N3wXmglDe8Jb9fGlbiihvBeMhmsefcQ3oGcEd6LjfAeT93C+7/iQSzbvO8YCQ9tkGjeC62e4T3mmbkI7yXDtBmgqgjvxUZ4j4dlM5KSdnOhzbv7C3bCe/rSCO9XDXFFDeG9ZNJt3g1d/PAJ70DuCO/FRniPh/Au6cNMXImJ5v3c0gjvMf8+4b1k0mzemTYDFAnhvdgI7/HUMbx7B5Mphvekd7ATa95tU8J76gjvkJVy8747XpVpM0DeCO/FRniPh+ZdUjPhDRXcvG938jTv6UsjvMc8ezLhvWSyWfNuI7wDOSO8FxvhPR7Cu6TXtrgS0+nmnfCevjTCe8wBoYT3kkm1ef/8w/65i6flhHcgZ4T3YiO8x1O38O5Mm4m1bEa3xJWYgpr3X+4X4nw9hPf0pRDel0NxRRHhvWSyad7tBzbhHcgZ4b3YCO/x0LxLaiV81NO8n1sK4X1+L64oIryXTMpr3rer4QjvQO4I78VGeI+nnuHd2bkqhvfRXbIzuQeved8ivKcvhfD+1BVXFBHeS4Y170BVEd6LjfAeD827rIRnaTrdvDNtJn0phPeY52givJdNus37j13zzrQZIG+E92IjvMdTu/C+26+qhvfLJ3ElnsDmfffF0LynL4Xw3o35Mye8lwzNO1BVhPdiI7zHQ/Mua9EUV+Jhzfu5pRDezbW4oojwXjJZNe+EdyBvhPdiI7zHQ3iX9WyIK/GcWPNu7+oJ7+lLHt5j36MJ7yWTZvO+P8Oq/cAmvAM5I7wXG+E9njqGd68XUw3vo5eluBJLWPPufTGE9/QlD++xH2iE95KheQeqivBebIT3eGravNt7V+Xw3k+0Hz7RvNsI7+lLHt5j/23Ce8mw5h2oKsJ7sRHe42HZjLRkN/vpNe9Mm0lf8vA+jPu7FsJ7yaTbvO/nvDNtBsgb4b3YCO/x1C+8b3esyuE92fcX3Lxvvxia9/QlDu+/Yx/lQHgvmWzWvNsI70DOCO/FRniPp77N+x+q4f3te8zZI67TzTvhPX2Jw3vjSlxRRngvmVSb98/G7kk54R3IG+G92Ajv8bBsRl7cU/a4Tqx5t/f0hPf0JQ7v8U/LRXgvmTSbd5NpM0CBEN6LjfAeD+Fd3uNYXImjgM27/k3T/hmbN+ZKvOOU+oX3BLNBCe+5azWtY9NF6B091eb94Yf9cxfdO+EdyBnhvdgI7/HULrx7O1X7pXp4Hw3m4koMgc272MOfPbzrWtvafLX6mvbjaq6/yCwHql94b8Z/aBDe87Yef9LnR5dZsx+W3tNs3pk2AxQJ4T13JzeDhPd4aN4VJDnJ6unm/YzTZuaN6cS6ftVb7lud3pvceURrF95XpncLxUF4z9t0Nhq9HV1Go/ar96fvpNq8M20GKBDCe9704anMQHiPh/CuoCW1wCTYiTXvtjM176un/t3gys41NifM2I+bXyPCe6DZVFyJgfCet+AzqoVuOWnegaoivOdsOf7bOrFqgfAeT33Du/K0GVuC8zQVYM37rDPsXhw9/XAeN4T3IEnOyeUP718mgc7xA6+x4BVuTfuGN/qv7+/vqTbvnznDKlAchPecLMVWuPs0ejTCi0/Cezz1C+/bHWuM5j3JMYzBzbv7xdgvsg/v6+Zm2nv/+CG8h0jwoz4M7y/ifYcSTS5CpPlg9u7Ovm4M7Pc9X7TN5vGKqGyad/uBTXgHckZ4z8GqYW2GXx6dq09d+8WJAwYJ7/GwbEZJ/J18vs37umMuApdwE95DOOuJYvOH9zuvaT+kEd6zs5zbu4z59N0Nv+lu19IsjKM9Sbpr3mnegeIgvJ+NaW9n++6I5X5Tb62GboPinjAl9HgjwntcNQ3v9t41Vnj/1hdXlAU177+8L8aWbXh/7phhn5/wHizJ4Q3RzXuvQ3jPzJtlGe5hHav2cUbfaVnegR9baTbvnGEVKJKMwnvrqW14tYBt3H6S2Y1WnbPDvTD++e1l9ecf7jvdwPradq8HIbzHQ/Ou5C32iXtON+9ZTptZ943wFpnwHizBnEgb4T1H9o9uNbbv0utBeNczWh0eQJVV8860GSBvmYR33dp0X/dp4PG1axoZ7sVLwhvzcGFYbkYV4/ncwDoPn9xAeI+nduF9t1+NFd7jV+/Ba963smveV43xqfxAeA+UrHgnvOfownmE2s+x5/cnn2e3DP8ysmzWvNsI70DOMgjvF4OA5/vPHTP8PHD1sNq4SxP1rw375XYbuxrYm+IL61Eb95/cdxwhvMdT3+Y9zrQZW9zqPac177pxdXJzQngPlKx4J7znZ204e4/h8nEQMab/4KQNqTbvn/dz3gnvQN5SD+//dfvBC/LWTcM9RLO+Ou6OTXenqTkn21g2mpZ1Y7YWVnesPV50h+3322XCezwsm1H0O+YUksDm3dvJ2y8zCu+tP28jtiWE9yCJRs3YCO+5aX6yX7Ru1lbUnfrgJFzZNO/2A5vwDuQs7fD+PAgskF2PNV87s/xzam9XH78u9NVre7RqmNpCn6+NYVOk1mXA7UN4j4fwrurEUdOn5NG869EbEsJ7kBNjraQQ3vPirXfSB6fXzLj8941Um/cHw4ntHsI7kLOUw/uvwalGbNUJPzKzFmYb5/jd29s7Y7Uca87vQd9Gjz+fxZz3oB0f4T2euoX3f73HsL1zjRvel+OI38cHy2HN+7UV/ZUS3gP8SvoAI7znxVvv9HrnLLmM4E4fFtJs3k3WvAMFkm54X24i1rVP6/2Yf7sw+rf9pmVZt1Z/IKbz9ofuFrnVDnpmQ3iPh+ZdWbxoF9a8ex1dBtNmWgOZfEh4fy/m0zMfwntOxIHGzXHE/tXhH3+Q7pr3H/bP3XtcM20GyFu64X114wbStd5o2wF1r699837dl+Tc3OX3aDhz3q/Npwdd1zXrxrlNHgfXy2lz9djZBMZNwns8hHd1sfb0527eZ2OppR+E9/cSHq1qI7znRGwap+FrUvf826ts1rzbCO9AztIN7yN9fGtZk7vJB62hP+wuv7TmcPJ1PNU6Kcaz8lmLiR7bXz88Gj9+3Bvzt9FoYY5D9saE93jqGN69UizmtBnbo2HfFVWdec17byp+XxWB8P6OfiuuxEd4z4l43mXKZHH/9irV5l1n2gxQHOmF96d++3E0+kuf60/m4WneRnYmaF32n2eavctZNayG3P63apb3j2442mfU/z7/8f1/3Wst5zYKQniPh+Y9hjg/gODm3d3L2y/SDu8N2a+Q8H7scAB4PIT3nIjaR+oenX3zbj+wCe9AzlIL7+3uxevgt5NBG5eBC/MuBn/bL1eDK10bxGj4SqzlzfH4xxtvNzN/Oqedvev3lvbNsOyfPgSJ8B4P4T2OGPe2szbvV1fiSiTC+7E0SljCez6WQ++1cnhPtXn/vD/DKuEdyFta4d2dIOxuNjphO9hnZ0TtlZNVG9L74Cp4NtzJu6tBdzy++nO46bgtyupb57s7b+bq5O6O8B5P7cK7t1+1XyYJ7yv1UzGcc817R2LWhkB4P3J9La4kQXjPh255rwvSvNsI70DO0grvDWej/Wb+7aXzYOv7lvf7vxRWX5bH06D10aneu0+j0WN345xrw/E2Gv2nGc7G+OSAbcJ7PDTvsTyKqaXyTjfvqU6b6St8MsL7oW38S4bwno/tDvNONbynu+Z937wzbQbIW1rh3dtom+vXU5Pc59abu0NNZ09SDovLlTu8y/1tQ6Prz0Zvo/VgNhqtpv9YlhUSNusU3ud3znqidHwVr9PQF19fgaUV3g+GREsJbN53O/k0m3elhwLh/cA66qT6cgjv+djuMCeq4T3N5n1M8w4USMrh/ck62dy9tr3wXqPm3flVw+rO3vTZN8zi3TOb5e3cfve9Pl/Ym+dZe3PXPdoo1im8x+S7C0eo6A1g84X3+NNmXKpL2s625v3Er/QCEN79ltZvcS0Zwns+tr+TVA7vWTXvhHcgbymHd3d0+QmG+4u/GjXvb3f2C3tz6gy4n0299/m1BuuR8Xv0Zt8kV4PX1uqpvzkIKYT3SIR3O7yLM6zakjXvqiH51Jp3e1efXnhXTIWEd583S2o2fjTCez5EeF/l2rwzbQYokpTD+6lFM45nd/NTo+bdPd2dfuscz7tyj1t1rHy73ov+hbMs46+f2xPjNQ92f1UM72t9ntplWe3wvtakrN3m3evFkoZ3xbvcmZr3bfcoi/DuMz0a3Rsb4T0fxWjePzPnHSiOlMN75LAKb9lMHZr31cI5t+xgs3ICulNn7vZrj4Mb3zbV+OkewzsYexvmo4MGqhjefw6cWyYVP+1bq8rhvWeIeH6S0dsum7H3ronDu9ppkIOb9+1ePq3w7j7BVUF430tvG0J4z8f2SJSCNO82wjuQs5TDe+TGxQvv1W/eVwuz6VTDjUlvtOw07W97tRHnpuoZz/5d3L8b+8XKuL51/vjx+By0VQzv5vpCpM6knn/ZN5d8eP8lvoDy6G3Es5RT9M4uvNuSh/eVyliX0817StNm1obqed0I7zspbkII7/mIfcBqqs37g7F7Us60GSBv+YT36jfvTWe8w5t9sYzm5tpZNbN9xnLVfTu4AR7tvWDrsjE3zflzf3y8o61meJ+I8J3Qn5YTZOTD+1/iCyiP3vRzpD+v3fC+3a8mD++jVUd+0GZQ8/5LfClpNe8r57BuNYR3YZXmtE7Cez62+4uNanhPs3k3ad6BAsknvNdgzfv2hDLzu8Wb+2vPppjw7twCqy/edcfzptfffPlw37+yjG+j+dFIt4qGd3EtIf228uHd/v6iaFqnd5/atBlPU3rmzDnWvMdIhIR3z/I2rfXuDsJ7Ppbixpa6R2e35v2H/XMXHQHhHchZPuG9Dmver5rOy8bQ0rS5s5DdOUmTzT0VrftC+H1nfdNfvr21zGVzMBmYzYP4Tng/gfDucMJ7qstmHA2Jf9gVvObdZe/nUwnvcTYXhHfXOq05Mx7Ce07ccxvGCO/ZrHm3H9iEdyBn+YT3WkybWUyG1nhgvWpN07l1RAny+tF+cXAqnKvGW895u6l9sfe0q8XmUqwKcRjj+3huxSfwqV54r/6yGfnwnuKyGUfPkjutT/bNe8uQ+0oOEN4d+iCd+e5bhPecNL11bNEDIWyZNe8602aA4sgnvNehebct588/184Md/vWefv+4pyts+1OhLxqjOZTy7p0D8O7+nfU+8d+/dp+cW++1suVSNvxmZ0vH8XVvRSCVCoI79Jkwvu1b9mMvXdNKbyPdENqxx/YvO928mmE90vvV1ZqCO+2a8knYNII7zkR05amr+6r07Jv3m2EdyBn+YT3usx5f2s7W1v99rX9arbdHel0Nn4cre3QOZjpD0+Wc2vYO2I3vF81DC+miJolCUuXSi75YNmMNJnwnsmyGVvr9lpcO+V0857C0ZJBpzaLRngftazUvx/Ce07EqLLmdmLZKf69a8pr3ndPypk2A+Qtn/Bek+bdO0XT6Ffn6R+jN3pzrq/HV1PLbL44O9+30W/reTQazL3w3r/4sFk4N0/LXDkfmsRtPcI7zbvt6IDV1ML76E2TaG5PrHm3JW/eV4bMUoF3CO+SvzlRQnjPi1fovL5EnQXR5t9m0LwDVZVPeK9L8+5uctfW+rfxX99r1Ze3jTtLm20naa+Nx+XNavRkP5t5vm9pf/7cGNqVNYyzUOCApYtzPhVRis272pz3H+LvlYdkeP/la95TmTYj6D8jf08f1rx7JV3y8B4zDdY9vC8/pr1kxkF4z0vLdLqf+UDiBGr+D0l3zfu+eSe8A3nLJ7zXpXl3io/n22fn2151G/Pl6JfZa2qaNu56B+HNLWvt7It7X1q/rbUbw561xjz5FpfmPUhK/+wZSYb3bJp327J97825CHWiebd39YnD+6MR77dQNQ/vr6bM6mhlhPfcuD3Q8mU1iHg8Hv7eNs3mfcy0GaBA8gnvdWneh53biTvl66phb0i/D792lu6hR1eN3tiyjIlTjDh/Pu32nROsOjHM/lN3fU0ylv69DuFdsXmvbnjPYs27Z240T66zPb3mPXF4l2gaA9U6vM8HbYm10TEQ3nPjzVzatFpRA4QOjpiieQeqKt3wHn0GuJ9OlK1L875qfBIbT2ew+8q0N7+tsbNb7WjTu8nEnRf5zQ7zLXPd/c++LsJ7Cm4f6tO86/vgGqGi4f06k2kzO5/Gryfa7+DmfbuXTxre/SdEUFLj8L7uDFId7u5DeM+PPrUfhfZdej04mZufB/4HK2vegapKK7y7MyHWd5G/43ZPPCoTSSrGmXenf1iNpu4JDy3N0Oe6NngcrQ07zLszaWzphfeaTJuxnOZ9tO+DIlQ0vGe4bMbx1mqbi9AH9unmPem0mf43cUVVbcP7umOmtA0JQHjP0afmaG3ae4tV/8TvwtaDgzt9qs375/2cd6bNAHlLK7yPBo313IrebTyaT+tvRnGDZVbclYivndXQSUG9zvzeWRwzHz/eP/rqxRSb9xqteR+J+2+06ob37JbNuFpN8zokMJxY825L2LzHLt7rGt6fuxlGd8J7vvqT796SmU/jsCMa5sbhohqad6CqUgvvS828kzlI6nFi9mMNfyu5RdN5MXAGnvSmI3EiDW3zPBqtdqcwT7N5r8+0GcK7CO9eL5bmtJm9lmZ+DFxsm+ma99jFey3D++ppKs4UkRXCe77eRqOZ6Zzr75Aldqit9uBoxFCqzfuDsVsOR3gH8pZaeLfJPc0vX4JKh7u//fPnwJx0VqPlxt37Pn7f/oGL5l3NZ5p3m7PmPePm3bF8NcaL9+MHA5t3bx9vv0wW3uMX7zUM7/P2puuuycsQ4T1vs8H6/UCDC3M21y+0weZde5Zm824ybQYokDTDe1eq9qlreF9Z9vbuufnPTfvCDhXrvhvfx3+Nrva7uzSb91pMm/HWvIv7b7SKhneved+WYlmFd9tjczPtHd2vsmzet8eCxFCz8D7XzMFr+ErotBDe8xZ8LLK2saz+dcAfpbvm/Yf9cxebGcI7kLM0w7vUaf2XQ3GldlZ9d8fWeu2bk69fjX8s07I2Wt85gtd+b+NVX9G8q2HNu8O512Q5bebArGOO20++Aj7DNe+rm/hxtEbh/XnRvxtoZ3m4E97zNg5ccvoaduJV1rwDVZVmeG9ciSunPJfvNJfp0Hva+OdBObLW53/8dDeCy2vzqn37ZdhJK7zXZc474d0L72dYNrPz+NrdjLvak5cLTjfviabNuKdEiKkW4b2lf9KsodH8FjnkKyWE97wF/zIq9GwIqTbvOtNmgOJIM7xLLVF1D9ysn9mN1bnW/xn3fVvTZc/ouPnibaw5u9/lTTOt8M6c9yCE97Q8PmmX1mRoWdOfdl57H963e/lEzbvcMrxgFQ7v//NT037eWtZgcmM1tYfsF8vsEd7zthw4Z+g+0g3dStC8A1WVZniX2lum2AWUR6szbTmzAt5u/73/cjMxu7/0B60/7Ij5HeIJTfPDdXrNey3Cu3eG1UtxB45Ui/CezbSZQMu5Pvvn/v7+qCH35eEk4X15k6BQrnB4n9u3+L2mz73f4qVwOmZ5hPfcvS1EYvcJf5Kb8pr3XfNOeAfylmp4l2jVf8cfIFFinYG4og9f/pyPHhumYWn25k/seb2FjBcD1ryr8Zp33104As17yoKT480v7yuxd/VJwrvM9x6qwuFd3OhnTe0C4b1ksmne7Qc24R3IWarhfWQ8iyuhoj+ikhreie8uBk/Ok5e3UcsQx/w9WZrWMFaj0epqurxOLbzXac671t0XQqdVO7yLW+Gc4T1YSs17otawwuE9R4T3kkl3zTvNO1Ac6Yb3vwYRKzA1b7ZK/cyNK01r95+mX71nL7Op+2r9U9e0u67ZmBv2LZNeeKd5D1Ld8H62aTMy0gnvq5ckh2ES3rNAeC+ZNJv3MWvegQJJN7yPZtbJ9K4l+U14uS0bmtb9Ob3YdNy1qivLnavpju2dzDaTibNuMb1lM3Wa8y4f3n+Jv1ceBV82E8yXhxNMm9EtcSUWwnsWCO8lk1XzzrQZIG8ph/fR3AjfXT9Pa75lH9hbvMZmMBlbg7sPzmbV3dWtze7T8nVsp3dNa4+tVLw807y/95f4e+VR0vC+28knaN6TxUDCexb84f2L2NT4jduE90Jh2gxQVWmH91GrM14EnUhi+atrZH327qJz0kTLfBs96t6kCG+25ny8Wdm3z8+WnVeWcz2Vy/ytHnPe1Zr3iod3LzKfcdpMiHSWzSQrDQnvWfCH9xf/9mZ7WV5zGxZJutNm9nPeCe9A3lIP785J1McTU1QxW8bXYSfB1OaKcDLrarhfyutO51laWtd546I/WhzfbLHdWkPfWTALJrXw/pnm3eaG93/Ft1ikZTP2rj5+eF8GLcuQR3jPgj+8D2+CvPh+dcjNmTumzQBVlUF4d6z9dYx9EQPN6621sV/4z2TlnBjvua+LE+TZWcO+pR5SuhQ4qOa25p1lM2fh5mGvpIsf3pOcXtVGeM+CP7y/6J8/+7Y328t2i/+0WSQ6aAFpSLV5fzDEo9pGeAdyllF4d8Yh+i+wrU37xWvbe8NhDoyvzlqi1b0zgialRGsr+O3NmndpkuH916Dh7VbtlxWZNpNw8TThPQv+8O40Ee/st/hrM9kRx0hDms27yZp3oEAyC+94b9Mazb2B757ehZh63xr8lXSdQImkuOad8O6G9wpOm+kmW2VHeM+CP7xHbK7W5udbcRW5SXfN+w/75y5KAsI7kDPC+xldNZ6s4KXoz+afutPL1wLNu7Syhvftr9fjN+8Jz+ZGeM/C/qE2iwzv32ne88e0GaCqCO9n9HzTDT3xTM/0TttUA+bTZLc0NtFlYVwrhfcf4gsojxjhvSLTZoYRp3uLQHjPgu+hFt286zTvuUt3zjvTZoDiILyf08lZmcUdD5OyK+tWzKNIzpmOLx3e0zuq4Fxkw/v2DKu2akybaSXcGBHes7B/qNG8lwLTZoCqIryj5AjvxV3zHju8J01+hPcsqIR3mvcCSHnNO807UBiEd5Scvg+uEarfvNt71yKE991OPnZ49w9lioPwnoXd3mIWvWyG5r0AWPMOVBXhHWXnRcWr7qFP7nsP3k/zfha+PBx72kzS0+wT3rOw3VvYjzia9zJId837vnln2gyQN8I7quFCO3C9nVbie/9CvKs8Sr3m3Ra7eSe8F5Fvb0HzXgZpNu9jmnegQAjvQGHFaN6rMW3GCd9JEN6zoBLemfNeAFk174R3IG+Ed6Cwytq8u3t5+wXhvVLcvYWX4Gjey4BpM0BVEd6Bwir7mvfY4b2fMBwQ3rOg1Lyz5j1/6U6bYc47UByEd6CwVMO7vXctQHj/5X0xttjhPWllSHjPwn5vwZz3UmDaDFBV78N7R5z+pmB+3osrCfRDz28KFJFSePd6sdTD++VA0XDR6/V+2f/3ft1/F+9TcfvDsl62xxvH1B5b1teBZY3F5wzlfrGe/gfxlxHC3VtILpuheS+AVJv3B0P87O37AOEdyNn78D7xnX++QJfhJ/9b8S4bmSoOKIwiLJuZNBQtxFdi+yXepeRmOtdfEj5Ul87D/WmuR37xvi/24h/xlxHCt7egeS+DNJt3k+YdKJCA8P42KuLl5f/534p3kfo9OlAYCuF9W4qlPm1mIj7x2Zj2N53GQ9Vcv42+is8pYZ7/gqOis/cW27tZdPP+QPOeu5TPsGr/3MXPn/AO5CwgvLsvC+flQVxJgPCOcpEN71lOm4kR3rcJb39FRVrh/bv9OeS/+HkBjhYoOpXm3aR5zx/TZoCqKk94n4srCRDeUS6FWDYjPvHZOOH95yTp0aPzuy9/K3zx8yIc6lt0auGd5j136c55Z9oMUBw070BhqYZ3e+9asPAeo3t3wrvUd36S9wlkv3g7uxPeI2mX3q1liwzvY5r3/DFtBqgqmnegsEravMdaLbOTQ3h3sjvhPRLNe8mkvOZ997hm2gyQN5p3oLBKGt4PKCd5J7z/fZU4vH9wpk3KffFudie8R1Jp3pk2UwA070BV0bwDhaUS3kVIzn/azEFaj1HCuwesDl7FPx/Xo/Uiu+bdy+6E90g07yWT7pr3ffNOeAfyRvMOFJZseC/YtJkjigHeDe8pPFSdzyHzxYvsTniPpBLead4LIM3mfcy0GaBAaN6BwirhspkYVfuRM4f3bXYnvEdSat6Z854/mnegqmjegcJSDe/23jX98N6Vd7l9If7fvn3pXpF0Y2jaMI3w3tS0yC/+n112J7xHUlnzzpz3AmDNO1BVNO9AYSmFd68XSz2CLjR11+K1bXfV977T/vyz2bz6u5XYp2azORWfM5SZ4e8sKkepeWfNe/7SnTazn/POtBkgbzTvQGFJh/d/xYM4/wj6tnvhvdr+v31fwWS54KhyVMI7c94LgOYdqCqad6CwYqx5T33aTLUR3hXYe4tt+UrzXgapNu8Pxv6AFsI7kDOad6CwJMP7r0Fjt1slgiohvCtQad6ZNlMAaTbvJtNmgAKheQcKK0bzTgRVwi2nQCW807wXQMpnWLV/7qIkILwDOaN5BwpLNbzbu1YiqBLCuwLOsFoyrHkHqormHSgsmvesccspUGremfOev3TnvDNtBigOmnegsGTDe5ZnWK02wrsCtTnvN9ZCvIGc0LwDVUXzDhRWjOadaTNKCO8KlJp33VywcCZnKa953zXvhHcgbzTvQGHRvGeN8K5AJbx/14cTiXsvspRN8860GSB/NO9AYbHmPWvccgrUmnfWvOcu3TXvNO9AcdC8A4Wl2rwzbUYV4V2Bypr3rxMWzeQuzeZ9zJp3oEBo3oHConnPGrecArXm/cfn/8QbyElWzTvTZoC80bwDhcWa96wR3hWohPfx56HRF28gJ0ybAaqK5h0orBjNO9NmlBDeFdh7i235KtG833xi4UzO0p02s5/zTngH8kbzDhQWy2ayxi2nQKV5/86c9/wxbQaoKpp3oLCUwrvXixFBlRDeFaiEd6bNFIC/eV/r83eX3+LPJKzNB2P3exfCO5A3mnegsFSbd3vnSgRVQnhXoDJt5rvOoplE/tIf3l1etfc61nvmxPNVvHZ8F3/md9cS/1g0+9kYa96B4qB5BwpLIbxvSzEiqBLCuwK15n0qrtbYQgRsv74Izn4bEbD9xuLP/D6Kz+HX8zXp24vsjm4T9AmDNc3PP+yfu7eZYdoMkLePX/Z+uu+heQcKQja8M20mLsK7App3Nbopkq/fN1/I3l7kC/Agb+8ushTC+/U3mnegQD5OF1sazTtQKDEOWGXajBLCuwLWvCtZXJrXz+K6nz9mexe/5bWIy/Ku311s7csA1v2BO/nwrl3oTJsBiqOpiSvO5tZ9RfMOFESM8E4EVcItp0AlvNO8r180rS/xAHa0dsva53/8FGm5WJpMmwGKpDzhneYdtUN4zxq3nAKadxXODrVnitXqPmJN+4GN+DPb+B/x92OTXzajYG1+3p9hlfAO5O3a3nAMxf9eU0LzDhSEani3965EUCWEdwWseVfhhvepf2m7dxF/HEbmMZ8D35x3G+EdyJlzpIwzDHYf2WneUXdzy3lMLKzpUrwjLyrhXdRiRFAlhHcFNO8q3PDe8S9t9y4RihreTX3fvDNtBsibE96d07AVP7zTvONceh86mv2kdnGT9x1GNrwzbSYuwrsC1ryrcML7L/UkXtTwPqZ5BwrEbd4X+gPNO+pg7awPk+I/v8lphvjcGVBp3gWmzYRa6ddTy7ozrcZ+NB/hXYEd3rfla3Tz/kDzHiuJF7h5Fz97G+EdyJmzF1vcfhn0vTdtNO+oLvk6sNMTVyJl+IiJEd6JoMFWPeuLpc0e9NVav9osxHsJ7yrUls3QvFcqvH9/YNoMUBxOeH87SLU076guXb5Qlyc+dwaUwrtXihJBg7Saw457pKBYctzc3rCEdwVK4T3T5l0TD70M3O1/LZNM5Zp35rwDxeFtqMoQ3mnekVwWR9EVIbz/6+1T7b0rEfS9VtNcrMR1oXHlvSa8KyjMtBl9+kfQ2Y9SkdpeomrN+2fWvAPFUZ7wTvN+woU4k0aKpFeNlEpVwzsRNNwuuq9mTcucTDZPzhuG6Fm55eQVZdrMwvxx//Io3kgb4T2Q27xvq3emzQB5o3mvhElzKDJ3SszOsJI3VhZ1YP7h/degsfuNNhH00C66P3bupp90+17d6jpPTJ0ZW7YfhHd5RWner7XR2/3CNzo9zcuG8B6E5h0oFJr3Spg4O4o0WXo1b6zqN+9Mm/F73Eb35/54/7ukjb3Zcyb52wjvCorSvGua/YMzxBlJ0/bP0QKr2CrXvDvTZkRJQHgHckbzXgmph/fbqob3SjbvLJsJtNbGYy+667eGP204k4RE895vituNWy6aSnjPsnl3wvutHnm6o5xVLLzv57zbAZ7wDuSM5r0SMmjex9UM76x5r4nVwjA1b130hWUdPvV3wrto3gnvCorUvIufX4FVsnkXCO9AzmjeK4HmXVJFm/ftGVaZNrNz1ffmkayejL5+dFJ6mvd4irLm3WvexRuFVbHwvp/zbiO8Azmjea+EDJr379UM7zTvNeE+2Fu9/rD7fqggzXs8Ss37Z5r3SoV3/5x3ps0AeaN5L5c3vaFpv97FkfSb94dqPtMpW/M+9c/BCL50fM27jQjqehzbLxqbzkXQ4Yc07/EUa827eKOwqta879a82wjvQM5o3svk+XK4ub8zTfOmuRTv8mTQvFc0vJesed+IERgn3F4wbea92dR+EXYfpnmPxw7v2/KVNe+RKte8D8TP3kZ4B3JG814eb01jao6tq441HHw03TPNbLHmXVLZmvcP+sPJy+fP+lyf0ry/40Sg0AcFzXs8NO8qKhbemTYDFAnNe2m0rKtpR5xW8Jtx1W16V10ZNO9Mm5GV4SPmUbTrp9xat4+seT/mRKBnQ7xxjOY9HqbNqKhc8/5jt+ad8A7kjebdb6WJQOTT8W6i3C0HzZ8zcd3+Sq8GHV96p3mXVLLmXYYzSIVpM8fcZTPDw8VlOzTv8TBtRkXFwjtr3oEioXn3WVna7jDA3aU3Fm13zvrXg4MoMjc6r+JqBuGdaTPyCvCIoXk/5h6w2rH+J/CpN817PErN+wPNe8Wa9/2ad6bNAHmjefd5bTs95vHF7fBy1+veH86YeWs0zV0yoXmXVMHm3UF4f8e5/64u2huj8T6/07zHo9K8mzTvNO8AskLz7uPs099bRuymzmJltu0d1qHBftk7zbukKjfv3opUps14tidpetbM7ZEiOzTv8bDmXUXlmndDFz98wjuQO5p31/q1b0wmE/8xoDvzgbiSpwtj/G5g9dwYbt+XfvPOnHdpNO9FtPpkmJqb2le98VFNS/Mej0p4H9O8V7V5Z9oMkD+ad9tSG7cvnp16u+Ff7e5dLowU/uXEOuMrcc3HHG+PYM2gea9oeK9s876dBEEE3Vlr47H3yzTd+ue3e8VD8x4PzbuKqjXvD8ZuI0N4B/JG8z4a/TYaosFedsSIGddg4pwix/nt+3oeMrbibIzNftLMTsfcLqVhzbukijfvTJs58tgxvfh+YXR3d+iV8UjzHgfTZlRULbyz5h0oEJr30WwQFlPng64b2i/G1sAZyJejzebwcFWXtmmLaxk078x5l1Wg8G4jgh5ab+P7k7npN5zEt2o37Jc07+r8zftwcZI2/Hgv/lb6aN7Pb20+/LB/7l73zrQZIG8074/Gu8Xke0+DR/s22qxy36Le3QR87Zq5/apo3iWx5r1+dvG9daFZE8u6Wzhv/Jy47gjv8vbhfdb48uOkn1+//xR/K3007+fHtBmgUGrfvK9ON8yP97q7EQ6ZRHM2phmwr2qa2yNsM2jemTYjqyDhXaxHZdrMe7v4btO9DUlDHENySXiXZ4f37arn3EdF0ryfl7NsZrfknfAO5K32zft2Jx5mOXheDu3X7jrZ/ExvAp48TMduh2ijeZdE815P687wo0h77gI4bSp+30Z4V6BywCpr3ivbvNsZnvAO5KzuzftqN20xzNJY3zi30kXfezsf2uD9qaKWN+b2CQXNuyTWvNfV8tX6Ymkz/WHV0j/tjvQmvKtg2oyKyjXvP2jegcKoe/MuEckf7wfupBcj4JDRs3k0B+/++UZ3l9jTb96Z8y6tQOHd3rsSQUO96doHy/pyc9tc744/J7wrUJk2w5z3ioX3MWvegQKpe/PefhVXwr0tvrqrU3Kt3t/61/dHA28ejf6TuJpF817R8F7h5t3rxYigocQD6OBxRHhXQPOuosLNO9NmgLzVvXmX6W9WhjeRcZznqvfnwdXuV/2ewWJ/6lfWvEtizTsOEN4VMOddRcXCO9NmgCKpe/MuFcifvN1Qc3t4aC6e+pYznnqrNW365tNn0Lwz511WscI702aUEN4V0LyrWN9Z1nh7Jg55hW3e3TnvAuEdyFndm3epflkk43wPWbX3nE1n6rynN3699y2Cp3mXVNXm/V+xUyWCKiK8K2DajJL5XI9xau7iLpth2gxQHHVv3lXCe2vjvspNb9Awuk/621r/ZHS1g9GVGTTvTJuRVazmnQiqxBfeG/tlaAik1Lw/1L15d46uODpOSUZhw/tn5rwDxUHzLq6cshapXeqDM/TbMgb31p1pDabj5kGlQ/Muqbpr3t0dq/2C8K6E8K5AZc171idpKkHzHg9r3gFEo3kXV05Zi9sk/7Jn3jSdc7rfN46+7Enrzj3Ze3qeq9m8P38V31+KnHN45YzmPS7CuwLWvJ9BgZfNzLbVO9NmgLzRvIsrp2zDe3HLngx+aFK3DIqB8B4X4V2BSnhnzntMNO8Aoh2Ed9EkFtKwAM17dzdXvWjcPj5dQ/VDrZAXps0EsMQ9+aQvhHd5dnjfdq8071kp7pp3Z9qM+PkT3oGcvW/ei6k3zLV59z6q03NfndPqc3oedJXL/ORlJb6+gvnt/w6SXf6f77tNesn84TVobEMVzfuO1GN7SHiXx7SZMyh+825vawjvQM5KE96/pLCtLmF4b46t1Hy9FVeSG/8hvr5ieR6Kry8FLxtxJQURQSc5ls0EILynjTXvZ1DkNe/ih094B3J3EN59vWPRLlf5HrCaW3hP859UXBh/aspZQXcwaZZ93RS/xcyPI9mGd3vvSnjfMp98v/wIuxDeFXCG1TMoangfs+YdKJCD8O62hCmWlym6Hc5jjMw9Ej+8e6/7599i5RjeTylqeE+x7CtleLcR3reu7M2G2HyEMwnv8pSad+a8x1Pc5v3Hrnln2gyQt/fLZjIPGvEUYVRkDmUP4V1FfZt3zrAaU4fwLo8572dA8w4gWnnCewFGReZQ9hDeVdC8M21G0WVzP0CF8B6BNe9nUIbmnfAO5I3mXVw5ZXv60pfzT08kvKuo/Zp3G827Eua8K1AJ78x5j6mo4Z1pM0CR0LyLK6eI8P5suK/OivCuot7Nu9eLEd6VEN4V0LyfQWGb9wdnzrtAeAdyRvMurpzy6IX3PLaqhHcVtW/e7fxOeFdCeFfAtJkzKGx4Z807UCB1b96NZ3HllNep+yrNIC2L8K6CNe+Ed0WEdwU072dQ2PD+eT/nnWkzQN7q3rx/mIkrJ7Q2V86rlendWGdFeFdR4+Z9t18lvCshvCtQCe807zEVNbzv17zbCO9AzurevDcX4soJ7aGboBdN963zIryroHln2kyk+cFWgPCuwA7v2yeJ0c07c97jKWzzrhuzXUVAeAdyVvfmXaIeuugPnH87l+Kd8K6k9mvebTTvYVYzzbqbTAbmZPok3kV4V6K2bIbmPZbiN+92hCe8Azmre/MeHcmf71dDZ0RkLsU74V0JzTvhPcxFdzjVdO80zbPudPuwJ7wrYM37GRS2ef/sTJsR3TvhHchZ3Zv30WtbXAnxe9Bq3div18b5h7zbCO8q6tu8izOs2rtWwnuQntl/Wonrjpkh0jvhXYHKtBnmvMdU/ObdRngHclb35j2qwbkYrEfOmPeVlcKThxgI7yrq3bx7pRjh/b2e2dk+9Jdz/bfzWr/XXAbhXR7N+xkUtnnXmTYDFEftm/dRy47nYZZX/ZX90lhLHdiaBcK7Cta8E97f20b3la71vw8ty3Ae1COr44b3n4R3ecx5P4OihvcxzTtQIDTvo9+GbzfQ0uf7y+vmw+dH+53rl01eG1TCuwrWvDNt5tg2ui8bpnV94V69cM7bIJrbPuFdHs37GRS3ef+xa94J70DeaN5Ho/+srviDuXljHbi1xsNX+w/EAtnzI7yrqHPzvt2x0rz7tF5FdG9dm1fOg9g7YNUZHyWaW8K7ApXwTvMeU/Gbd3tTQ3gHckbz7uzQn0xDu9AfZpvDHYK7p1/2f7lv5IPwroLmnfC+t/xlbdpedG+amv94c+dRRfOuTql5fxjoWXUeNO/nR/MOFArNu+f5um9Zm4Z468DjWFzJA+FdRe3XvNt7V8K7Z90fdrx8t+5sFv5JM96jiuZdncqad1N/MZzlSVmgeT8/ps0AhULzLjgte9tZIfPOMmI3lSnCuwqad8L7VscOeLbVRcd89xiieY9Hbc37zaesFs7QvJ/f2nxw5rx7mDYD5I3m3eeiL64ciJoEnynCu4oaN++732gT3j0vS/t5d68/7Ac8gmje41EJ72P9xkpx43WA5v387GdjNO9AcdC8+7Utd3zcgc4gl7MzCYR3FTTvTJsR5k4S7/a/Ha6XEWje47HD+/ZJYmR4H3ayPWCV5v281ubn/Zx3wjuQN5r3A7pI7D5ZtUdyCO8qar/m3Ubz7nJ/i+a070Fo3uNRad6zDu807+flW/NuZ3jCO5AzmvdiI7yroHknvAvOPfTZEG8co3mPR23N+08tq3xN835+zrKZ2a56J7wDOaN5LzbCu4raz3m3XxDeXc49dG2KN47RvMejdobVl8y6d5r382PaDFAoNO/FRnhXQfNOeBfcu0LYA57mPR615n2T6ahImvfzWpufnWkzXvfOtBkgbzTvxUZ4V8Gad8K70NrYLxrD7lPQsnea93jUmvdsT9JE835eNO9AodC8FxvhXQXNO9Nmttxmdvl0OfzwPmfQvMej1ryn+GA8QvN+fu6ad/HDJ7wDuaN5LzbCuwrmvNO8b/0yNe/hPuubr0f1O817PCrh/XuaD8YjNO/ntx4zbQYoEJr3YiO8q6B5J7zvPGqm8cndvq3b5vVBfKd5j4fm/QyK27z/oHkHCoPmvdgI7ypqv+bd3rsS3veem5v+s3NleW0ufKdr6j7RvMehtuad5j2W4jfvNsI7kDOa92IjvKugeSe8H7kw/vk9Gr2N/muaje3z/5Zhb/Zo3tXRvJ+B/nVSSJaveWfaDJA3mvdiI7yrqG/z/q/YqxLe37kwvPa9dTWYWFcXv5cXg5n95u1Cn9uXe8K7PNa8F5Vzi8jcJu5HhJ7/4DSad6BAaN6LjfCuguadaTPvvNnxvfvbu643+saLU8WPlmPLZf4pbjfCezQ7vG/L1+jm/YHm/Xy88B59m7gfETe8O3PeBcI7kDMnvC/1zdM+1hY1vNO8J1WD8F73Ne82mvcAF0b/KNd0xQPLXyYT3iOoLZuheT+fczTvn5k2AxSHE977xvf7ofemrajhneY9qRqE91o3714pSngPdGF91/bP/9dWQ1zTuruFvIT3KKx5LyrRvD+5b4RbjROEd2/Ou/dwIbwDOXPC++3nN1+8KGp4p3lPqgbhve7Nu71nJbyHWGvOmndNm/W0qblLfjTvClSmzYxp3s9IhPeNb6RSkMXXROFd/OxthHcgZ054dzqM4od3mvekahDeWfNOeD9Fb2jatKM5B6wKhHcFNO9FJcK75b4K1TIHycL7TPyaimkzQN7+0rTrcedam9ivva1hUcM7zXtSNQjv9W3ed4s/CO9KCO8KmPNeVCK8z+7dwUph+t+SrHl/oHkHiqNpado/f1xr/Wut6T2kixread6TqkF4p3ln2owawrsCmveiEuFdXw+8+XGBrhrerRa3eXemzYiSgPAO5Ky5/T3b2/YhXdTwTvOeVA3Ce93XvNto3pUQ3hWohHea93O66Dsv7R3c3Fq67wjgbLTd/cmz4b1DkbPm3c3u9gvCO5CzXXjfPR8vanineU+qBuGd5p3wrobwrkCpeWfO+xktjcfRaOY8XZpZf3vvOnblbND02//sncon7z2KmPMOFMileb818DbHRQ3vNO9J1SC817Z5F2dYnRHeFRHeFaiseWfO+1k9jwfGvVu6Pxu+47F3Wn1vOOqTaZlX7jVluznvNsI7kLPm+MeOt7EtanineU+qBuG91s27txyV8K6E8K5AqXlnzft5zZ0TB2uW1b66mT5679pZNYZdrW8a69Hbf/O4e0HfnHemzQB5822Oezfue4oa3mnek6pBeK9t886ymZgI7wpUwjtz3nPwUdP11ytrM7EOmZNBV7tY/76194Bv4mOVMecdKJDd5nhW9PBO855UDcI7a96ZNqOG8K7AvrG8X+/QvBfTdg+30ufOpaFpF+61v7x3J9udsOYdKBDfvovmvYAI7yrq3LxvUxXNuxLCuwL/jRUV3pk2kwPrSVwZvbmX7TVheZ/kRnPWvHuLZgjvQO7E5th5TP6ieS8ewrsKmnfCuyLCuwKV8E7znoNlv7kSVwM8G4kit7fm3UN4B3Lm2xzTvBcQ4V1F7de823tXwrsSwrsCzrBaeAsr9ByrnwbJ9n9MmwEKpDzhneY9qRqEd5p3wrsawrsCpeadOe+5mBv9wJ6rZ54q5WXoxm5tHtNmgLw5m2P3EVn4A1Zp3pOqQXivb/O++4024V0J4V0Bc97L4GJg9Y72dI+LTSfxzo/mHSgQmvfze3YnAfgv4g8ClDC8v/v2nPnD8bV8n8m7hJ7/u4zN+/tvL84oN6bNxEV4V6DUvLPmPTd6xzS7WkN/cC+N/nDcbIk/SsCdNiNKAsI7kLPyhPeqNO8XN4YYvrszGO6GBBwrXXh/enn37Rnh316k9fRGfJad22En7Pe/pWve14N33551F/rthWPZTFyEdwUq4Z0577laP2matz25vfq2TDDdfW83590O8IR3IGe+zTHTZs5hbgR0IMvboDNaO8oW3nUroBdfxt7RrgbvdxJvo0VXXD1WtuZ9ZQQ9JQ399sIR3uMivCtQCe8077lKIawfY847UCD25ni7Wpbm/Rz6gVu90JaqbOG9/01cORC7hLvoiyuHwn6QZWveFb+9cHZ4F0euEN7VEN4VMG2mzljzDhQIzfuZBRdGzy9aI3BteJnC+1r/pm2Cv70f4oqqkCcJRke7CFobXqbmfaXPG9OQby902lsYmve4CO8KaN7rzDfnnWkzQN58m2Oa93P4FZjXOl1Ns4yAiQClCe/Lq5+m1b/uBHbJ7VdxRVUraJHRSB9r133rbvpuB1Ke5v1p+sWyrrTAe+TcEFfkEd7jIrwrUAnvNO9Vs1vzbiO8AzkrT3ivyrSZtnGlHWmaXlBs9cyro4MVyxLeF2bj0b3SMZviu9ppGm33j+KYjTvis+xNxc9x1h94/+ZOWZr35/uud5DDbGg/azsyNdTvpr7wzrQZJYR3BfaNtS1fo5t35rxXDGvegQJx9l1ie0zznrXn6eVyNPrd0Np3A5HUXI39MonG7eEBn+UI76tuc/dl29+ej3HX1j7Z396qY4Udkxtm1XbKtVZP08Z3B08Ivu2e4MwHh5+0JM37t8Huzux8e3udiaVpM/vb61lN8QFymPMeF+Fdgf/Gil42Q/NeLbs17/a2hvAO5My3OWbNe8ZaxuzJHcai/wxfRjI/HNdSjvA+DZ8F+Tp2drLLDz1dtVDuNPSp93e7oUOKl/2D9F6O5v1pGjoL8vnWDe2Ljv5x4b5DEstm4iK8K/DfWF9uvUmEIQZ3Bs17nvRdifKU0m7Pt+ad8A7kzbc5pnnPmNMVOWH81/SwXT80m4orrlKE95NL2pdT+1twWri5pTS/3PknnL+2PmrXDy0PVs6UonnXw7O7bdG3/9S+o64slTv8Nrzbe1fCuxLCuwL/tJmf4hRAYZe5nt3Wlub9tPWV9fV2tzqza5rdNHYjTJsBCqQ84b30zbuzxxl1n0ZaxEl4mp/EFUcZwnvIwMOtVUfzKvGFylKQR8O+lewnMs/GX+I9wX77j+4sQ/O+Mk+f7PBisHTvqGvj1FO8IzTvcRHeFfhvrHvxvjzQvJ/yfGk2Dm+c9VPHXChVJ0F0Y3fEA9NmgLzZm2PvATmjec/Ws5syjefXqKM3W6ZvM1uC8L4yjg4bfaf9+jh2Xk8Vlr274xIXzb8HUef19g/OL0Pz/inqKcx8unLXxD8pnKtp8K/7IHYQ3pX48ujrd/E+hPA373k+06F5D7fuG0GLGNdNM+muhOYdKBCa93PxTl90N/sQ2YD4A3sJwntE8W5bTfUvznftPX+R4n3S9mIQNPz+gL9tL0PzHnknfHtte+uQjMjvfYdpM3G93wAilL95zzu807wHujDCYnWr01X4XV4Ad9qM6N4J70DOyhPeS968e93z49BYRp642p+GSxDeJb7EpbFxB+rsp6xE8T5yYIYfCbsz3O+SStC8zyVCT8dw2/nI39HssWwmLsK7Au/GcvMbzXsRrZr9EwH9fwfKZ3/z2815t+8AhHcgZ759F9NmstR0p4dcTF4js/uotRFXbCUI7+OoVTO23sRN4dElvSA6+qFMQvAtxilB8964EldOaG3cg5ajVsf7uOHdK8UI70oI7wp8NxbNexH1G+JKsEf1czf7MOcdKBBncyx+E0bznqHV0F0ts5BaOHK3X1lTgvDu+2rDDbzMKvsT8L7t5VeZfY1v1k0Jmver07tXz6v39M3JKHKYNhMX4V0Ba94Lzr99Xc119+LfhspvUQKw5h0oEJr38xCdcOfUUMUd39dZ/PC+jDhbi+fCG4Ap++14t4AuNdHCt0MqQfMudwsM3c5d/tth2UxchHcFuxtrRvNeSO3X0Vr/dGWZE5+v9v+Dvvakj5b3SSow35x3ps0AeXu/7ypqeC938y4SpiUV3UoV3temuHKS6MT9jf0J4nP2pIp0f3gvfvMu9wP17gHi1zUSOMNqXIR3Bb4bi+a9aFrOavfpV9NqD8fHY71WV5PppfV16NxmsXeCuzXvNsI7kLPyhPdyN++iJ5Kri6oY3r0SWe6Dt59ePbxXpXkX9wDpdpFpM3ER3hXYN9b2SSLNe7Gsp5vhn+5z/eWHxrvn/G+j51vv2P+LjXmndPLmPda8AwXi2xzTvGfIHZUoWxdVMbyLxf4bqWMwxTL2ntSk80o2795CVU1mgbyDZTNxEd4V+G4smvdCWQ3sNL1wtpfr++AbZtV1Nia/xy37Wrydym7Nu50YCO9AznybY9a8Z0jcqvVt3sUJcOR+BOK7lltkU8nm3buf+L610wjvcRHeFexvrBnNe6F4c7zsres6/JR5V/at5m5+FM634edb8054B/L2ft9V1PBe6uZ9m3Dr27yLj5KZK7m7mdTDe1Wa9+/eDSAzV9K1PcOqvXclvCshvCvwps24EY7mvVC8jeCtvro/MaCr/erdapKLF48xbQYokPKE91I379vNpWhUI1QxvIuZNHJ9mfiohnJ4r0zz7u0b5Z692Nzm3evFCO9KCO8KfDcWzXuheBtBS//nVKheTXX3VosZ3nVjt8SWaTNA3pzNsfuInO3Cu1ZIdx1xJYFh7uFdNKoRqhjexT8u15eJj9KUw3tl1rx7H6UW3j2EdyWEdwXMeS8qEd67p0/KvDTdBfExwzvNO1Ag7/ddPZF0C6YtXicR8yj7FGw3l/Vt3r96r5Wad/XwXpnmPX54Z9qMEsK7gu2NNaN5LxgR3u8i5gE0JgnCuzttRnTvhHcgZ+y7zmK7uaxv8z70XtO8y4V39WUz299o07wrYQOowHdj0bwXigjvUfXU6iZJeGfaDFAcvs2xmDaDDGw3l3J1URXDu5g2I3fAqriZ5LKrP7xXbNqM/AGrLJuJifCuoEjhnebdT4T3yNvE/Yi44Z0570Bx2JvjbWXHvis7282lXF1UxfAuPsr3rZ0gbib18F6xaTO+b+20bXi3H8uEdyWEdwWseS8qb0sRfZu4HxEzvLPmHSgQmvezWCoNW6lieP/pvZY7SVNfZdWIP7xXpnn3BqNecZKmrBHeFdC8F5W3Ecy4ed/PeWfaDJA39l3nYXjjd29n7qsIVQzvXicuudtYNN1XNT7DqncPkG4XB43dfpXwroQNoIIihXeadz9vI5ht875b824jvAM5Y991Hk3vUCJLJbo5KhPevU5crkvfngKwJ5XF/eG9Ms27ew9YDVfuW9GYNhMXG0AF9o21fZJI856VRyuG8dh5efPj1n0rnPsRgxfxlpIr1rwDBeLsu8T2mH1XhrzTVzvnuJNQqvC+FHNkTruYuq9kv53h0nk5lwoIVWzeh+7qIvlvh2UzcRHeFfhuLJr3rPSmcz3u5eFBP33R5/63VC5P5gPTZoDi8G2OWfOeodbGfbUYy3SpyllPTjbhffRF5luaenNTfE9LTpq6y4uWX2V20L6bqATNu9Qy9ifv3qJdu68kEN7jIrwrKFJ4r2zz3uu8jeJeJEh9UIC1qf/Yrc0jvAN5Y991Jt4xmLOJRHYTQd9VgvAuM/3xafLkvBK/f4gmPnBjSDwx8IK+qwTN++vpcyC6lhv39xQrU+roXocd3t0dq/2C8K6EDaACps2cwa8UNzwpWn9nzTtQIJnsu1a+X+S5F9mluxXmLeNuDcfR3fOT7zjNEoR3iS9x+XPjHrArDtuV4H3k1Ih+rrPauEtsXCVo3sVy/pPaP90DdsVhuzJo3uMivCugeT8DyeOCzu2geWfaDJA3e3PsPSJnKe27lovp5Is4xGXnbmItpFvEivKq97tHY581Q/jTcAnCe3Sd/tafuWtrvskW79sPbb+KoZEn+AN7CZp3iZVDvY57aIRC8U54j43wroDm/QyKGt5p3oEiSXvf1TCbgdMQ9eZYq3f/7lWuxvN8GrHqsGX6bqgShPeVEbVupv36OHZeyxfv4mMXzdUg6u/0v4krthI079F9uj5d3Ttj3hWKd394Z9qMEsK7Apr3Myhs8/55P+ed8A7kLd1913Kq/SeuvrPUrHqX784eZ3Srv/VuT3fvXXd5uFCC8B5Vva86mleJXzs3gKy/nOXu9j+zHpwejT/74HsuVIbmPapQ/zZYuu38o8x6/y3mvMdFeFdQpPBO835evubd3tYQ3oGc+TbHyafNLE+3IfOB5KyRinJuHef/ufGXeE+Qw213GcL76QGYyw/2t+BU4orJ2vknnP+X/VOfvWX4o3AZmvfR3DqVyhd9+0/t8B79+ww/ls3ERXhXUKTwTvN+XmtnVOSuIiC8AzlzNsfiEZl43/XWjzh/6PNAoUysnpahaU40G62Nq9Ab4sn9iJ1ShPfR1P/LgkOfTHcn279+OojZEjpt7dZZM/PWtkJz7Nr9iJ0yNO/2j3ga+tOfD9y1MhfWbKr0g9+Gd/uhTHhXQnhXwJr3MyhseGfNO1AgaTbv0SOsPyks462g39cNO7bNNO1qs9H8dtl3+bF7GOzKEd5X3eZuKdCF+J48xl1Tu7Y39Kur7m/xAbJWDc1O5uuGdm1N2uLTufbHPj8draIvRfNu30QDZ027ay2+J09nMrW/PfumvFDL7jTvsRHeFdC8n0Fhw/tn5wyrXtPHtBkgbynuuw4OtAyhcshiRbXtfHbM8Or2303zeIlIOcK7U7A3vHq8b1yJb2qvf/jbBBWzgE/XNd17UevV6BwdPVCO5t35FVT/wr1JnsyO+Kb2/hirP0gG/4oHMeFdEeFdQZHCO837eTFtBiiUFPddMueOLOiG6YyCT9LTNizLmhhO6XqoLOF9tNTGpv09GIE/YKnTigZpjYMO7p3f3FrWZtP+fTy3pyTNu+2iP3RmqAYevOqN5lHCtJm4CO8K7Btru+qZ5j0rhW3edabNAMXh2xwn3XfJnPp+ORRXast3PlCf36Y+D9wZlSa829b292AEfnsyZyYK5D9flY/xOteDYm9ZmnfHm31rXYV8e8rVO8tm4iK8K/DdWDTvWSl+824nBsI7kDPf5jjhmnf/Sf3DGaorn6sm+KxDs+koePp7mcK7HUgPpq7vzT6IK6pCplBuWsG3Vnmad8db+Lcnrkhzw7v3LJzwroTwrqBI4Z3m/bycNe8070BhpLfvkms9o8+YWXHPQUNXWqF7onKFd2cMZtC3dx97RzsIur80wv71MjXvjlXgt6ep/8tMm4mL8K6AaTNnUPzm3UZ4B3KW3r5LbpuTZhgtp/lm8s4mdNRi2cL7aBb07cXf0i8/iM/h1w47/rVczbutNRXfkl9T/fBels3ERXhXQPN+BoVt3vV98860GSBvzubYfUjOCO/nEbzgI0zpwnuuyta8p4YzrMZFeFdA834GRQ3vY5p3oEDS2nfNrLtB0GCQIytrMq59fFdBeFdRuuY9LUybiat3K243wns0mvczKEPzTngH8pZSeL+w5uuGxPlTp9rysRt3bmAdEd5V1Lh5Fw9imndFhHcFRQrvNO/nxbQZoFB8m+Mk02bc8R8fIoOm/tN+sdpIVPTwEN5V0LwT3hUR3hXQvJ9BYZv3z8x5B4rD3hxvH5EJ9l1r03npbFJPa1w5LyvbmWSA8K6ivs27OMOq/VgmvCshvCtgzfsZFL95txHegZyl07zLhnfvIyrbmWSA8K6i3s279yyc8K6E8K6A5v0MCtu8Pxi7oo9pM0DefJvjMzTv3kfQvMsjvKtgzTvhXRHhXUGRwjvN+3mtTZp3oEDyCO807/II7ypY8860GUWEdwX23mLbvdK8Z6Ww4f3zD/vnLn7+hHcgZ054F49HmvcCIryrqHPzvk1VNO9KCO8KaN7PoKjhnWkzQJH4NseseS8gwrsKmnfCuyLCu4IihXea9/Nyls1sCwLCO5A73+aY5r2ACO8qar/m3d67Et6VEN4VMG3mDIrfvNsI70DO8gjvNO/yCO8qaN4J74oI7wpo3s+gsM375/0ZVpk2A+TN3hx7j8gZzXsREd5V1Lh53+1XCe9KCO8KaN7PgOYdQDSa92IjvKugeWfajCLCuwKa9zMobPOu75t3wjuQtzzCO827PMK7Cua8f/vWvLHKJd+7EuFdQZHCO837ea3HTJsBCsS3OWbaTAER3lXQvNvh/Vafl+ryVXwP+SC8K6B5PwOadwDRnM2xeEgmb96v3DdOoHlXRXhXUfs57/aLZmf0VqpL5jfOSYR3Bax5P4OihnfWvANFkmrzvmm5b4VabWjeFRHeVdC8u+G9XAjvpUHzfgaFbd4/7+e8M20GyJtvc5y8ed803bdCaV54p3mXR3hXwZp3MW3GnMhaeJ/gSEf8abS++Bt7j3fijyLdPTofT3gvjSKFd5r386J5Bwol1fCuDebumyHW4yuad0WEdxU072LazGS0borjQU/prUJ+kJa+/CQ+5hSt5T3yD9g/hHlXfMAJ3ZnYEBDeS8PeW2zLV5r3CH2rbT+RtSzllFvY5v3B2P30Ce9A3nyb4xTC+3pwYuHMcvDImndVhHcVzHkXzfvXZ/OT75jQsEtnGvKDvNV/Nn0fF3bRjOeA8G69Gk8PetTlyWp4GwLCe2nUpHk3J8Zo9DyZuHuruCZP9kOjN+0of5LChnemzQAF4tscJ1jz3to4L+1N6txaue8IMp2NFu66mtP9PPwI7ypo3kV4nzQ/jZYN0XGH6Nv7X+M6+Lu0rvtO8hAfGeJ1NWpqQc278Tx6bIsPCtF5HrXM+8/OxxPeS6NI4T1Z8+5/CvruMtE2+nzx/XLqf+fxpaWwPizU+0VnBQ7vn3/YP3dREhDegZz5NsdJ9l327tpN56OnD0vvPceWH+wY+ji2r7XM8ICPI4R3FbVf827vWr3wfqu/jTX938tQfz5dTK9GnU7wd3l7qY0uu7Nf4oODvOrtwaj3T1Dz/nU0M1/1P8QHBmh++/VzNjLvad7LpTLTZuYv4klkoB8/fhjD+x8/7sXbQQZG9NYm8gMCFp0VN7yz5h0okpTC++P4utdtO9d04y/3PUfWlp3sR6PG9LVhuNcghfCuguZ9G94t/VNz1P2ghboa66vNf2Hh3brUno3R61h8cJBBw362Hhjebyej/kVr3BEfGKBttOaDkTkgvJdLZZp33fB16O8u9n+fDO916OXJHOlfRX8eKvIDyhTeTZ1pM0BxOJtj9yE5S7bvammdp9Fo2fhXnxtX75r1lTae6wttPRrN2lfuiAnIIbyrqG/z/q+7T3Vsm/dO77fh/WEw+0/NdXh4v+51Vuap0a/2n3Z6wc37xP7M3gq5MJ+aa5PmvXQq07zrQ1GgB7jdvThlYIf3xFUBzTuAmFJq3j1rS9OszdfJRtO0p21FcWG/YU7uhlbz+tThrAhEeFdB8/5ttm3eOz0n4pzw9XR4/9UJjBZ7lv5ncHi/dcL76WJUt5zwTvNeMtVp3k9uKN7E/6fY99+ahXfzM2dYBYoj1fDefnVf6T3tsLq4ep27K+Ff3YU1UEB4V1H7Ne820bzPI8O7E7FPLJvpRYV3p9wPb95PF6NeeKd5L5kihfdkzXviDYUT3tP4JO8Vv3m3MzzhHciZb3OcYNqM0A4+44vN6zFei7lZKjLCu4p6N+9eL7Zv3q+zDe+W/uev8OY9IrzfOuGd5r1katK8y3DCe82ad53mHSgOe3O8fUSmsWwmNL07LgZrcQ2yCO8qaN79a94jm/fvoeH9tnOG5v07zXvJVGfNO827qvWYNe9AgaTavI9WzX7IpEjbqT9DCMK7ino37x7vDKtOLZ5s2YzMmveQ5t1ZTR+x5p3mvYxo3nec8F7f5p1pM0DefJvjVPZd38aN4Ij+ZJxs5RGM8K6ixs37br/qNu9fpZr3hGvePydo3t3wTvNeMkUK7zTv58W0GaBQ0g7vo9aVqb0fKtMzu85pnKCK8K6C5n2/5l2uef8zfni39M6vX6Fr3mneK8jeW2yfJNK8p/NJ3its8/55P+ed8A7kzQnv4iGZ1r5r2dgY7ad9gNcb07sOq93jIbyrqHHz7j2GbWFr3levl4dxR7V5v+ge3hdV1ry3rtoHWwCa91Kied9xwntdm3c7MBDegZz5NscprHnfen7tbsQ55CYTS5u9O2sTJBHeVdC87+e8/3kY3leD9pPVEG+4FMN7u//UmYrrLoVpMy2z8Tr2v8MO798L17z/ehHvQ4gihXea9/Namw/G7vcuhHcgb77NcYbFU9QZLxCG8K6ivs378RlWp5+PmnfnHAurof9ZtFp4fxzbLw4SeVjz/vl9895cjEZz/8+mkHPev+X7lZQA02Z2nPBer+bdZM07UCDnCe+Ii/Cuot7Nu1eLbZv3zuGad/cEaXf+Z9Exwvt05r3hCm3erXfTZtzw7k97Ys37Z+c64b00aN53nPBes+b98w/75+5tZJg2A+TN3hyLhyPhvYgI7yrq27wfrXl/P21mNb66mCZZNtPtztoHy2YU1ryvN689w/+OQq55J7xHoXnfccJ7vZp3ps0ARULzXmyEdxX1bt492+a9fTRtptXofxNXPYrhfdWbvh4cu+Isqw9f835YjD62OwfTpgo5bYbwHoXmfccJ7zVr3nWmzQDFQXgvNsK7ijo37+6O1X7hhff302besSP23wrh/R2VaTPHaN5LqUjhneb9vJg2AxSKb3Oc4rQZpIXwroLmfde8P7wbFdnQDuOOYvM+6mmHp1lTmDYzWmtawKhImveSoXnfccJ7zZr3z/szrBLegbw5m2PxkKR5LyDCu4o6N+9bIWveRz2jeRgVFMP7eqiZB3kprHkPmDYz6vT7B/8Q02ZKiTXvO054r2vzbiO8AzmjeS82wrsKmvdv3/4Qa947T0fhvbP+Lq56VMO7ObLm4rpLYdqMfTc+vMcwbaaUaN53nPBes+Zd3zfvTJsB8ubbHNO8FxDhXUWNm/fdfnW/5t2dDrlzHMZXd1HhvbURb7mc8H6Ql+7np9a8Xz6JN13H4X02dcM7zXu5FCm807yf13pM8w4UCOG92AjvKmje99Nmmq8r09+UH4X31VXzdHh/6o76/kXux+H9wnjr/PoVsuZ9/Kgb/kXuR+G9Nb1wwzvNe7nYe4vtk0Sa9zo374R3IG++zTHhvYAI7ypq3Lx7j2H7sSzWvH9+Nv7TBxOff9ZfxDXHXftNN0YnwvvKfFx3xQe7XkaGuOaa/t0yW2HNu/Zx9GqKD3R86fX8//hmMdLs5w6seS8ZmvcdJ7zXq3ln2gxQJL7NMWveC4jwroLmfd+8jz5trFtrb/zP30Nx1WMYv0+F95FuDsRHugYvox+GuO65eRqFTZtZdm/EB3nMXs8UVz1mf8mymdIpUnineT+vtfmZOe9Acfg2xzTvBUR4V1Hn5n27Y92ueR+NVnN9e5np8z8u15vPn7/pD+Ki/x69nQzvo9H+73+b6083o/tPur5711x/s+8HAeHdmTYzGrW2/86D/u1Bn/Z6U/fK9uKsqaF5LxumzezUuXm3Ed6BnBHei43wroLmfT9txn5pp2v7f+cyHL15a96nByc6jQjv27/9Nvowd4KG/Ukbje27nE8e3LxbX51X7p875h/sf+dXr/M2ehHvEWjey4bmfccJ7zVr3h+MXUPAtBkgb87m2H1EzgjvRUR4V1Hn5n1r37z72F/ALze8H70/Krxv2X/N/tv2S+1avMcTtubdz/mhdHq/7H/o6GageS8bmvcdJ7zXq3k3ad6BAqF5LzbCuwqad9+a953VxjlItGmH9779+qt/hIxceHf+2qRpjqz+V/tKX7zXEbbmfe/56+TrZNPt9bruV/FbvNvBtJmyoXnfccJ7zZr3zz/sn7vo3gnvQM4I78VGeFdR4+bd26naL8W0mcNoY38B7rKZt7jN+4MTNLzmfbcexibfvDv3GPv9/r/MspmyKVJ4p3k/L6bNAIXi2xwzbaaACO8qaN6DmnfbnX3bfJ3YYWMaL7zbf235Mrl7HDUO3x/dvI9Gc/uHok0m9l+0vwo/mveyoXnfccJ7zZp3nWkzQHHYm+PtI5LmvYDs1JMaZ81DWg4zXFE83okvr2CC9tGpilrz3hKv91c8suHd/mteZ75auq+2gsK7N23Gx/s37b9/9I+z5r1sWPO+U+fm3UZ4B3JG8w6U3rtpM03/yvZwxnVIeL/2r2wP19QCmnfrh39le6gW4b1saN53ati8f96fYZVpM0DefJtjmnegnAb/igfxtnlvmW0t2vQyJCnc6oOu+JhTOuO/gsL7zLwSH3DK+NUrTwnvpVGk8E7zfl4070ChEN6B0nu3bEafNS+j/atrIc37Yq6JjznlD/0pILz/eHj6U3zAKb90g/BeLvbeYlu+0rzXb837vnknvAN5c8K7eEgS3oFy2oZ3+6Hshvf+rSXD/qgn7xMc0cQHRLsSf2NvLf4kyu2t5ZxnlfBeHjTvO/Vr3sdMmwEKxLc5Zs07UE5uePeehLvh3T+RMRcKXwDhvTSKFN5p3s+L5h0oFN/mmOYdKKfjZTNlQngvDabN7Djh3ZjryS4Bi87se+TU/yGFuTyx5h0oEsJ7DvRrccyepv3xh7iCImhfXl4u/Lus1C6f7M/8Ufwr6TN902Zu7stlIr6HU5wF/Ne+WzPu5f1P4cO9uN1sL2KyJ+T9sP83D+eHxuKcxXfofkZpSUbfpjI2N/EnSXN47xkwbQYoDju8e4/IGeH9bG4+dIU/P4krKAQ7SDbN0VsGF7Opdb6KfyV9H/53t1/tTcX7quTLVNO++m7NuJeAn4Imbjfb/hkQIuzubmZnNDLdYxeScT7HRHxOFNHs2/+IazbCO5Azmvcc3PTETY6CmYSsQ03ODifzr+JfyZAuXlfMl0U6y2sCfgr/K17bCO/R9suePTmG9+MvRUmiv5yWQnwR0mb/s/+CCe9AzgjvOSC8F1WW4f3tDOF9Rng/KeCnQHiPZRvjnPB+87QSt29s8w3Ne7HZP/Bt825fJbwDOfOFd6bNnAvhvajsgPjXxrKsmfhJpaNnf8bNX6N5luFEhKkKh/cv1rO4PeN6vg34KRDeFeya1x0nvE+/N8UtHNfFZrA8b/NeCGX6Duyvtbf/ggnvQM6c8C4ekTTv50J4LyqneX+Z61fpTmuzFnP95UzLZsqfaII44f3/dTRxe8aldfQRy2bS4t3TnPCefLqh9wlo3ouNNe9AcdC854DwXlTuspm3UePGPY1QWoYXb86a3ofswvsusle4eXcHBCbifoLjnwLhXVrQE8Mcw3v5n6eW5ztwv9J98860GSBvrHnPAeG9qJzw/n00+p/p5zQZeuChklmww3v5M817KYb345/Ck3htI7xHObxvOW854f0x8W+qetO5/ZLmvdho3oHiILzngPBeVM6a96+WNU66hvdQ35haX/7Ornn3RaoKL5uZmg1xe8a1MO9X734KhHdJwfcsJ7ybgydxC8e1nr78RfNeWOLrtHdb26+Y8A7kzA7v28cj4f1cCO9F5S6b0R/0xNMzDiz1ub7JtHnfpQB32UxZMoE8J7x/Tf5TCfopEN4TccM7c95rgWkzQHGw5j0HhPeicsO7+CmlK7s17wdRnVGRJwX8FAjvUrb3suMnhjmG9/I/Ry3Hd7D7Knv7r5fwDuSMZTM5ILwXVabh/Qxr3rdz3sufaw6lGN5PNO+7Ex/j0KV44b7eXbl0Xt4Ymnb3UdN64haO68X+HBPns6JQvB+596p5tf3JdwnvQM4I7znwhfePExTIF/v/vvgppcuyP/PG/TfS9fXw9Z33qoyGWmPrg3jXztj+3/nWLHFrxjW0P8fRT+FePBJtEw1RrsVr4frj5eXlS1NrbvR5osuwf3n5p/ikko6+lBIqyXcgvsyrpvfa0SO8A/lywrtb080I72fjC+/dpBM0ANubeF1iYY+K7beWxm9FXpbiyo5uiH/Tlka3X1XOT2H7v/NC/FTcV+ba+cm8JbqksfQGGdj+0N2f9P4K4R3IF817DgjvwLGoR0Ua4f19PNd/iH/TRniPxwvvydyle4w4MkZ4B/JFeM8B4R04llN4p3lPLI3wPnELXZQF4R3Ily+8M23mXAjvwLEzhPeAv68bvhEa4n1Qk0J4X76IKygHwjuQLzu8b3deNO/nQngHjuUT3h9o3hNLIbwn/fs4M8I7kC+a9xwQ3oFjZwjv84G4sqcb+7mahPd4Ugjvj2NxBeVAeAfyxZr3HBDegWNnCO+zqbiy95llM4mlEN4DfjIoMsI7kC/Cew4I78CxM4T317a4sudOmxH5nfAeTwrhfdEUV1AOhHcgX054F7suwvu5EN6BY2cI782FuLLnTJvZdu+E93hSCO8BPxkUGeEdyBdr3nNAeAeOnSG8T2fiyh5z3pNLIbwH/GRQZIR3IF8sm8kB4R04dobwPn4UV/Y+u9NmvO6d8B5PCuE94CeDIiO8A/kivOeA8A4cO0N4D0jnzHlPLnl4X92JKygJwjuQLzu8ezuvGeH9bAjvwLHsw3vQPMLtGVadrSDhPZ7k4Z1JkWVDeAfyRfOeA8I7cCz78H7RF1d8WPOeXPLw3uuIKygJwjuQL8L7gfvJ1t326hf7/+5/CS2Xfzufx3A/4+Tul7jJCe+AkH14b7+KKz7emncP4T2e5OG9+ySuoCQI70C+fOGdaTMHAWLL3qPrt+KPE/jb3rt1TO9TfrrwXtsI74Ar+/Buh8x3fGveZ4T3eJKH9+FSXEFJEN6BfDnhXey9aN5Dw7sl/jgBZ+9GeAfCZB7eA/82zXtyicP7b0NcQVkQ3oF8STfv+rw6l5X4nt4LCe+D3+LPY1s92bcu4R0Ik3l4D1xYrRvb8oLwHlfi8M75VUuH8A7kS3bN+yfTqoxx+K4iOLw/GsNn8QFxNb9PCe9AuMzDe6cnrvjtmnc7whPe40kc3vtEwbLhJwbkSza8axUKmSdGGwSH99HI0t0/js8NDoR3IEzm4T1oybs3bUZ074T3eJKG99Uw/HehKCbCO5AvO7xvf2tMeA8P77eEdyBTWYf34CNXtnPeHYT3eJKG96euuILSILwD+ZJd817v8P6vmTi8978R3oFwWYf3oEGRonn3MG0mpqThfToTV1AahHcgXyybORAc3r+Z10lHmekfXwjvQLiMw/vqJvAxzLSZ5BKG95bJqpnSIbwD+SK8HwgO74yKBLKWcXgPWZvhm/NOeI8pYXhn1kwJEd6BfDnh3d17zQjvNsI7kI+Mw3vI2ozdmnemzcSWMLwP5uIKyoPwDuSL5v2AL0B86nommnb5U/xxXD1N+3inacaN9yk/vHqvbT8J74Aj2/De2ogrR3xr3gnvMSUL78+coamECO9AvgjvB3wB4sO95vrzstMf+k/xFONiPwFovlxedq+8T9n2XrmCxtcB9ZNteG8uxJUjrHlPLll4Z8h7GfFDA/LlC+9MmwkLEPae6S3R5Wuy3/gD1ZdpeA89KNK35p1pMzElCu9sGEuJ8A7kyw7vzHnfCw4QqztxJa5kpSFQA5mG99CDImnek0sU3sN+JYJCI7wD+aJ5PxAcIN6S7tUJ70CELMP7ymyJa8d0Y9deEN5jShLemRNZToR3IF+seT8QEiBeEo55J7wDEbIM7+HTCHfNO9NmYksS3iney4nwDuSL8H4gJEDYe6dECO9AhAzDe3jx7k2bEd37DUePx5IgvFO8lxThHciXE97FrovwTngH8pJheD+x9drNebdtCO+xJAjvjJopKX5uQL5Y834gJECEnOBFGuEdiJBdeF+Pw+td/5x3wns88cP7RV9cQckQ3oF8sWzmQEiASLowk/AORMguvJ+qd/3TZgjv8cQO76sxt3hJEd6BfBHeD4QEiPDj3eQQ3oEImYX3k/Wuf8474T2e2OH9qiGuoGwI70C+7PDu7bxmhHdbSICYTcWVmAjvQISswvvpepc178nFDe+PBkerlhXhHcgXzfuBkACRNHkT3oEIWYX305su1rwnFzO8r6y5uIbSIbwD+SK8HwgLEHfJKiLCOxAho/CuW+JKMNa8JxczvDPivcQI70C+fOGdaTPhAWL8KK7EQ3gHImQT3ltG6Ih3l2/NO+E9pnjhPelaROSJ8A7kywnvzHnfCQsQCUsiwjsQIZvwfquLKyH8Z1glvMcTK7xHPatCoRHegXzRvB8ICxAJ5xET3oEImYT3yO2WbmzLC86wGles8G5FPKtCoRHegXyx5v1AWIBYDsWVeAjvQIQswnvEgncba96TixPeNaZElhrhHcgX4f1AaIAwfosrsRDegQgZhPdn6//EtVDutBnRvRPe44kR3htX4grKifAO5MsO79vfGhPeTwSIZIveCe9AhPTD+9+D6GXV7px3wnsi6uH9xCYYpUB4B/LFmvcDoQEi2aJ3wjsQIfXwvjQkwjhz3pNTDu8JDyFC/gjvQL5YNnMgNECshkkmvRPegQhph/f/u30W104Ra97d7p3wHo9qeJ/1ObNq2RHegXwR3g+EB4hOT1yJg/AOREg5vC/7M3HtJOa8J6cY3snuFUB4B/LlhHd37zU7Hd4Xkwppim/qvfAAkeiUIoR3IEK64f3/LKns7q15Fwjv8aiF996U7F5+hHcgX7LNe/bWQ81lJKm4kzoRIDYJzilCeAcipBre1wOZNTM21rwnpxTeFxyrWgWEdyBfxQnvq4YX3rU896AnAsRVgsHEhHcgQprh/dH6S1yL4q1595bOEN7jUQnvWvivPVEihHcgX77wfnLaTE2cCBCPY3ElBsI7ECHF8D4fSMdw35r3GeE9HvnwvuwH/WRRPoR3IF92eN/uvHJu3gvhVIAYzMUVdYR3IEJ64b1xvxTXonGG1eSkw/uzQearCH6QQL5o3g+cChAJhhMT3oEIaYX3lqVy9k7d2LUXhPeYZMN7Q/4XIig4wjuQr+KseS+EkwHCkDwG7j3COxAhpfA+M3RxTYrbvIv4TniPRy68t6YqT6pQbIR3IF+1Cu8rfR5xefEFiHe7mvjVO+EdiJBKeF9qU7WpUO60GSe82/8T3uORCu+9sdzsTpQC4R3IlxPeRe/U2zzo8pcnMRsmjo+D+MZiVnscd0aUwev/bDU/iptoL3b1TngHIqQR3r+NVWdCMec9OYnw/jjoyB+HgOIjvAP5uvg0n88f3P9mpkiwUm678f3ZiO+T2NFmYrZ9ImNrvg8Qsat3wjsQIXl4X0/7yidj2M55dx74hPd4IsP76moc/2h/FBHhHcjZX3umtxurqn0uD3b050EBYvworigivAMRkob3lRZnYQbTZpKLCu89M8E5MlBIhHcgb2/if3vvKPZhtbaL8EEBQr8VVxQR3oEIycL78pOpxTntvm/OO+E9ppPhfbUwOwlOTo1iIrwDxaES3qNq7EJS+qIDA0T3SVxRQ3gHIiQJ78trsxkvIa5vxL9pbxwI7/GcCO92dG9yq1YQ4R0oDpp3f7oPDBAtM067R3gHosQP72vNvP5PXFe13oh/03ZDzIwlNLw/f4z7nAoFR3gHikMtvJeye1cQGCBGi6a4ooTwDkSIGd6XPcu8XoqVf+r84Z3mPZ7g8L5u/DReie4VRXgHiqPyy2aUBIf3eOMiCe9AhFjh/am76SQaZOKFd29zRniPJyC8P38amFcxD+9HCRDegeJQXTZT7QAfEt7/MmIsnCG8AxGUw/u8Mb3rPq1il+4umvfkjsL742v/xWgyG7LSCO9AcciH9+r37qHhfdTriCsKCO9ABJXwvtY/9YeDq1msI1AOOOF9uzkjvMezC+/Pc61tbcbtC07IVHWEd6A41A9YrXKIDwvvo05PXJFHeAciyIT3zVzvadPBV9NqfksnIHrTZlg2k8SmqTWHljX+aljaq84y9zogvAPFIRvegyL7L3EC1DiuxIlX4/hHnPA1lslJYRl9ZSiv5SS8AxGiwvsX+zG5sazO9SzNFRksm0nu6v7+8lqfs8S9RgjvQHE4e0c5X8Xr/bWXQXwftPgac13u8uC7vr2I71vVo/Kyd8I7ECEqvGdjG96dRoLwnkSiQw9QMoR3oHCiN8K7jyjA9vpN8hL0kXE9dcUVWYR3IEK+4d1BeAfkEN4BlI/qtHfCOxCB8A6UBeEdQAlpaumC8A5EILwDZUF4B1BGaiNnCO9AhFzDu3sQPuEdkEN4B1BK05m4IoPwDkSgeQfKgvAOoJRWfYXunfAORMg3vDNtBpBHeAdQTqvOq7gWjfAORMi/eb8hvANSCO8AyqotHTEI70AEls0AZUF4B1BaWltciUJ4ByLkF963p4wmvANyCO8AyuvVaolrpxHegQg5hfcb8W/aEZ7wDsghvAMoMd3QxbWTCO9ABJbNAGVBeAdQZi3rSlw7hfAORCC8A2VBeAdQbo1B9NIZwjsQIdfw7i57Z9oMIIfwDqDk5mZDXAtFeAci0LwDZUF4B1B2q6vxXFwNQXgHIuQf3mneATmEdwDl9zjonFw7Q3gHIuQX3hkVCaghvAOogt5YW4qrAQjvQASWzQBlQXgHUAnLa/M6NL4T3oEIhHegLAjvACriP81shiyeIbwDEfJfNsOad0AO4R1AZSwXZjdwo0Z4ByLQvANlQXgHUCGrp/6m/Vu8sUd4ByIQ3oGyILwDqJbWqzG+mq3EWx7COxAhr/C+XTQzI7wDkgjvACrnsTG9szRdvGUjvAMRaN6BsiC8A6gk/dqaDPraL93p4AnvQATCO1AWhHcAlTW/0DrWl8nGmmhacyPeCSBA/uGdaTOAHMI7gKpr6deXl7cL8RaAADTvQFkQ3gEAqL38wjtz3gE1hHcAAGovp/B+I/5NG807IIfwDgBA7bFsBigLwjsAALVHeAfKgvAOAEDt5Rre3WXvrHkH5BDeAQCovfyb959z8U4AJxHeAQCovfzDu+E7KTKAcIR3AABqL7/w7o2KnH37QXgHpBDeAQCovQI075/FOwGcRHgHAKD2cg/vM5bNAHII7wAA1F7ey2a+sWwGkER4BwCg9hKH97k+V0/f++Z9xgGrgCTCOwAAtZcovK/bxsSyfbUaLfEuOax5B9QR3gEAqL0E4f1xar4+e1f1K7OpEt/Xm+2sGZbNALII7wAA1F788N4wZuKaY7UYKySLg+ad8A5IIbwDAFB7ccP7anq1EleFZb8hrkXzh3ead0AO4R0AgNqLGd5X/W3tvtbna3H1SvoTHDTvD+KdAE4ivAMAUHsxw/tUZPeZYVqWuV1A01x4ryP5wjtz3gFJhHcAAGovXnjXxIe2p+4Rq88f2u6bo+6T9zqKE963c94J74AcwjsAALUXK7zPLW+9e+fVfWV77bivWubRQvgQ6xvxb9pY8w7IIbwDAFB7scK74U2IbO+y+2jUuHJfLZruqygHa96Z8w5IIbwDAFB7ccL7t777ajZ1XwmDufNyZUqNe9+H9xlr3gFJhHcAAGovTni33Lh9lNOfDffVldS8SBHe3WXvNO+AHMI7AAC1FyO8Lzfuwvaet8x9p+8mi8ex+0YEX/POAauAJMI7AAC1FyO8P126r8TC9x2ximb86L46zb/mnQNWATmEdwAAas8f3ocTjyn+LIR3nOr63UeZ7sma/EexhnLCu7Nmxvmf8A7IIbwDAFB7/vA+GXXMm81wuLFOLlz3Dk298I5a9en0nJdS82b8zTvLZgA5hHcAAGrvKLz/XMz1uf50snvfuAeqvj8y1VsEfziDJgTLZgB1hHcAAGrvOLzrb6O3gCUxPqs799V05r7y8Y5VnXtTZ07bLptxMG0GkEN4BwCg9o7Cu7eG5WR4H925w2Zelu4bPt7fUm3emfMOSCK8AwBQe8fNu1uDnw7v7jyZ1sZ7w2/ivDieIBlo+UX8mzbCOyCH8A4AQO29WzbjvPN0eHcXzAR9iFvGa1IDJyfbRTOseQdkEd4BAKi9GM27O1Um6EPcWZHezJkoE/Fv2mjeATmEdwAAai/Gmne3Ww/6EHcx/PsDWYPswvuM5h2QRHgHAKD2jpv3xcNcn58eFemuag9d8y51hlUnvDNtBlBDeAcAoPaOwrt58zIcmtaV+NNAuuW8dJP6Aa+Mfz+FJsh+2QzTZgBJhHcAAGrPH96/WpvJZPJ14g1yD+WFdHeB+4FnZ8L7cui9EcG35p1lM4AcwjsAALXnD+/tz58/z3Vdj1j44p2l6f2Bqe5aeO9MTZF8a95p3gE5hHcAAGrPH96lhjzaNi37hX7rvbHndvHv3x3I17yz5h2QQ3gHAKD24oT3wdx56UZ4n/nAeSl1jqZdeHcOWmXZDCCH8A4AQO3FCe/dJ+floum+sdN3k4XcOZoOmnfCOyCF8A4AQO3FCe/NhfNydf/sviW4h6uORu1X91UUDlgFlBHeAQCovTjhXXTuc+vNfe1aGX+5r+XO0XTQvD+I9wE4ifAOAEDtxQnvF33v9aLtvXZ4i2ZGI+Ogjg+1D+/MeQckEd4BAKi9OOFdrJAZjRpdcUam5Yft4Mih1DmaWPMOqCO8AwBQe3HCe2sjroyezOvn0ejx2twulll9EVcisOYdUEZ4BwCg9uKE99HdSlwZLa+Nr5OxtqvbJc/RdNC8M+cdkEJ4BwCg9mKF9/H+HKy+Y1YduiWuRNiF9xlr3gFJhHcAAGovVngPHykjeY4mmndAHeEdAIDaixXeO9vDU99pXIkrEfbNOwesApII7wAA1F6s8B5+GlXJczRxwCqgjvAOAEDtxQrv4YtjtuPeo4jwPrP/J7wDcgjvAADUXqzwrt+KK+9InqPpYM074R2QQngHAKD24oX30JkyP9TDO807IIfwDgBA7eW7bMbBtBlADuEdAIDaixXew6fNLJriSoR9eGfOOyCJ8A4AQO3FCu/D3RlVj62Gu5OvnsSad0AZ4R0AgNqLE97/GosrASRnRbLmHVBGeAcAoPbihPdT9brkKVZZ8w4oI7wDAFB7sZbNXDXElffCz990YBfeZ6x5ByQR3gEAqL1Y4X01aOvzwMsvI3Q5/AGad0AZ4R0AgNqLFd5Ho1crWKclPiDCvnnngFVAEuEdAIDa84f3S1+FHn15CLyE/sHhZWKndoEDVgE5hHcAAGrPF94bP42z+eBld+cl4R2QQ3gHAKD29uF9Ll4ntavUT5nNdx/GshlADuEdAIDa24X3fZqWofTBgXb/Hs07IIfwDgBA7W3Dezq9uxfI5ZL9w8z7QKbNAHII7wAA1J4I76rZPXnzvu3emfMOSCK8AwBQe154T7N3l+eld8I7IIfwDgBA7bnhXT27h+R0590KEd5N76x5B+QQ3gEAqD0nvOfTuzucde+seQfkEN4BAKg9O7zHye6hSV0xws9nrHkHJBHeAQCovZtefr27Y860GUAS4R0AgNq7uRApWs2JrK4W42dz1rwDcgjvAADU3sskDV/Fa/81WV8J74CE0ej/A7+rlOAw6T9eAAAAAElFTkSuQmCC;" vertex="1" parent="1">
          <mxGeometry width="3004" height="1177" as="geometry" />
        </mxCell>
      </root>
    </mxGraphModel>
  </diagram>
</mxfile>
